M48
; DRILL file {KiCad 9.0.6} date 2026-01-19T16:58:12+0100
; FORMAT={-:-/ absolute / metric / decimal}
; #@! TF.CreationDate,2026-01-19T16:58:12+01:00
; #@! TF.GenerationSoftware,Kicad,Pcbnew,9.0.6
; #@! TF.FileFunction,Plated,1,4,PTH
FMAT,2
METRIC
; #@! TA.AperFunction,Plated,PTH,ViaDrill
T1C0.300
; #@! TA.AperFunction,Plated,PTH,ComponentDrill
T2C0.600
; #@! TA.AperFunction,Plated,PTH,ComponentDrill
T3C0.650
; #@! TA.AperFunction,Plated,PTH,ComponentDrill
T4C0.900
; #@! TA.AperFunction,Plated,PTH,ComponentDrill
T5C1.200
; #@! TA.AperFunction,Plated,PTH,ComponentDrill
T6C1.800
%
G90
G05
T1
X110.95Y-101.5
X111.94Y-118.0
X112.19Y-101.5
X112.94Y-118.0
X112.99Y-105.05
X113.06Y-120.03
X113.06Y-120.83
X113.06Y-121.61
X113.87Y-120.01
X113.87Y-120.81
X113.87Y-121.61
X114.06Y-105.08
X114.44Y-118.0
X114.44Y-119.0
X115.0Y-99.132
X115.11Y-105.09
X115.996Y-94.318
X118.407Y-114.18
X120.94Y-114.18
X121.025Y-97.632
X121.645Y-107.83
X123.126Y-94.308
X124.62Y-118.578
X124.62Y-119.847
X126.04Y-100.42
X128.3Y-97.607
X130.286Y-94.298
X131.215Y-115.245
X131.215Y-116.635
X132.565Y-113.875
X132.565Y-116.635
X132.565Y-117.995
X132.575Y-115.245
X133.965Y-113.875
X133.965Y-115.235
X133.975Y-116.635
X133.975Y-117.985
X135.12Y-109.68
X135.325Y-116.645
X135.345Y-115.235
X135.4Y-97.625
X135.63Y-107.555
X136.34Y-102.94
X136.495Y-110.955
X136.685Y-107.555
X137.455Y-94.308
X137.74Y-107.555
X138.795Y-107.555
X139.12Y-112.23
X139.12Y-113.505
X139.12Y-114.78
X139.12Y-116.037
X139.12Y-117.307
X139.12Y-118.578
X139.12Y-119.847
X142.295Y-99.805
X142.475Y-97.632
X143.95Y-119.781
X144.575Y-94.308
X144.955Y-103.595
X145.795Y-120.555
X146.795Y-120.555
X147.76Y-120.55
X148.975Y-97.657
X149.645Y-104.36
X150.65Y-101.1
X150.82Y-102.41
X151.31Y-120.11
X151.315Y-120.93
X151.714Y-94.341
X152.54Y-110.34
X154.12Y-101.75
X154.795Y-103.71
X156.45Y-97.627
X158.86Y-94.32
X159.32Y-109.105
X159.7Y-108.035
X161.1Y-111.275
X161.1Y-112.175
X161.1Y-113.075
X161.38Y-101.955
X162.0Y-111.275
X162.85Y-105.435
X162.85Y-111.275
X163.8Y-97.632
X164.9Y-102.135
X165.3Y-102.985
X165.5Y-107.408
X166.013Y-94.373
T3
X168.55Y-101.695
X168.55Y-107.475
T4
X112.38Y-104.055
T5
X154.76Y-123.01
X157.3Y-123.01
X159.84Y-123.01
X162.38Y-123.01
X164.92Y-123.01
X167.46Y-123.01
T6
X112.38Y-110.455
T2
G00X171.85Y-100.265
M15
G01X172.55Y-100.265
M16
G05
G00X171.85Y-108.905
M15
G01X172.55Y-108.905
M16
G05
M30
