%TF.GenerationSoftware,KiCad,Pcbnew,9.0.6*%
%TF.CreationDate,2026-01-13T17:11:52+01:00*%
%TF.ProjectId,TempWatchtV1,54656d70-5761-4746-9368-7456312e6b69,rev?*%
%TF.SameCoordinates,Original*%
%TF.FileFunction,Copper,L3,Inr*%
%TF.FilePolarity,Positive*%
%FSLAX46Y46*%
G04 Gerber Fmt 4.6, Leading zero omitted, Abs format (unit mm)*
G04 Created by KiCad (PCBNEW 9.0.6) date 2026-01-13 17:11:52*
%MOMM*%
%LPD*%
G01*
G04 APERTURE LIST*
%TA.AperFunction,ComponentPad*%
%ADD10C,1.800000*%
%TD*%
%TA.AperFunction,ComponentPad*%
%ADD11C,0.900000*%
%TD*%
%TA.AperFunction,ComponentPad*%
%ADD12R,1.800000X1.800000*%
%TD*%
%TA.AperFunction,ComponentPad*%
%ADD13C,0.650000*%
%TD*%
%TA.AperFunction,ComponentPad*%
%ADD14O,1.700000X1.000000*%
%TD*%
%TA.AperFunction,ViaPad*%
%ADD15C,0.600000*%
%TD*%
G04 APERTURE END LIST*
D10*
%TO.N,*%
%TO.C,CN11*%
X112380000Y-110455348D03*
D11*
X112380000Y-104055348D03*
%TD*%
D12*
%TO.N,GND*%
%TO.C,H1*%
X167460000Y-123010000D03*
D10*
%TO.N,unconnected-(H1-CTS#-Pad2)*%
X164920000Y-123010000D03*
%TO.N,VBUS*%
X162380000Y-123010000D03*
%TO.N,/esp32S3/RX*%
X159840000Y-123010000D03*
%TO.N,/esp32S3/TX*%
X157300000Y-123010000D03*
%TO.N,unconnected-(H1-RTS#-Pad6)*%
X154760000Y-123010000D03*
%TD*%
D13*
%TO.N,*%
%TO.C,U5*%
X168550000Y-107475000D03*
X168550000Y-101695000D03*
D14*
%TO.N,GND*%
X172200000Y-108905000D03*
X172200000Y-100265000D03*
%TD*%
D15*
%TO.N,/Connector/Temp1*%
X139120000Y-116037500D03*
X115000000Y-99132152D03*
%TO.N,/Connector/Temp2*%
X121025000Y-97632152D03*
X139120000Y-114780000D03*
%TO.N,/Connector/Temp3*%
X128300000Y-97607152D03*
X139120000Y-113505000D03*
%TO.N,/Connector/Temp4*%
X139120000Y-112230000D03*
X135400000Y-97625000D03*
%TO.N,/Connector/Temp5*%
X142475000Y-97632152D03*
X135630000Y-107555000D03*
%TO.N,/Connector/Temp6*%
X136685000Y-107555000D03*
X148975000Y-97657152D03*
%TO.N,/Connector/Temp7*%
X156450000Y-97627500D03*
X137740000Y-107555000D03*
%TO.N,/Connector/Temp8*%
X138795000Y-107555000D03*
X163800000Y-97632152D03*
%TO.N,GND*%
X132575000Y-115245000D03*
X114440000Y-118000000D03*
X132565000Y-113875000D03*
X133975000Y-117985000D03*
X133965000Y-113875000D03*
X114060000Y-105080000D03*
X110950000Y-101500000D03*
X115110000Y-105090000D03*
X112190000Y-101500000D03*
X135325000Y-116645000D03*
X135345000Y-115235000D03*
X112940000Y-118000000D03*
X131215000Y-116635000D03*
X111940000Y-118000000D03*
X132565000Y-116635000D03*
X133965000Y-115235000D03*
X114440000Y-119000000D03*
X112990000Y-105050000D03*
X131215000Y-115245000D03*
X133975000Y-116635000D03*
X132565000Y-117995000D03*
%TO.N,+3.3V*%
X144955000Y-103595000D03*
X144575000Y-94307848D03*
X162000000Y-111275000D03*
X161100000Y-111275000D03*
X166012857Y-94372500D03*
X161100000Y-112175000D03*
X151310000Y-120110000D03*
X126040000Y-100420000D03*
X151315000Y-120930000D03*
X113060000Y-120030000D03*
X158860000Y-94320000D03*
X115995714Y-94317848D03*
X130285714Y-94297848D03*
X113870000Y-121610000D03*
X113870000Y-120810000D03*
X123125714Y-94307848D03*
X152540000Y-110340000D03*
X161100000Y-113075000D03*
X146795000Y-120555000D03*
X151714286Y-94340705D03*
X137455000Y-94307848D03*
X162850000Y-111275000D03*
X113060000Y-120830000D03*
X113870000Y-120010000D03*
X113060000Y-121610000D03*
X147760000Y-120550000D03*
X145795000Y-120555000D03*
%TO.N,VBUS*%
X161380000Y-101955000D03*
X165500000Y-107408000D03*
X164900000Y-102135000D03*
%TO.N,/esp32S3/TX*%
X159320000Y-109105000D03*
X124620000Y-119847500D03*
%TO.N,/esp32S3/RX*%
X124620000Y-118577500D03*
X159700000Y-108035000D03*
%TO.N,/esp32S3/BOOT*%
X121645000Y-107830000D03*
X143950000Y-119780760D03*
%TO.N,Net-(U5-SBU1)*%
X165300000Y-102985000D03*
X162850000Y-105435000D03*
%TO.N,Net-(U7-PG)*%
X120940000Y-114180000D03*
X118407351Y-114180000D03*
%TO.N,/CAN/MISO*%
X154120000Y-101750000D03*
X139120000Y-118577500D03*
%TO.N,/CAN/MOSI*%
X139120000Y-117307500D03*
X150820000Y-102410000D03*
%TO.N,/CAN/SCK*%
X154795000Y-103710000D03*
X139120000Y-119847500D03*
%TO.N,/CAN/CAN_CS*%
X150650000Y-101100000D03*
X135120000Y-109680000D03*
%TO.N,/CAN/TXCAN*%
X136340000Y-102940000D03*
X142295000Y-99805000D03*
%TO.N,/CAN/CAN_IN*%
X149645000Y-104360000D03*
X136495000Y-110955000D03*
%TD*%
%TA.AperFunction,Conductor*%
%TO.N,GND*%
G36*
X173004418Y-90500816D02*
G01*
X173204561Y-90515130D01*
X173222063Y-90517647D01*
X173413797Y-90559355D01*
X173430755Y-90564334D01*
X173614609Y-90632909D01*
X173630701Y-90640259D01*
X173802904Y-90734288D01*
X173817784Y-90743849D01*
X173974867Y-90861441D01*
X173988237Y-90873027D01*
X174126972Y-91011762D01*
X174138558Y-91025132D01*
X174255360Y-91181161D01*
X174256146Y-91182210D01*
X174265711Y-91197095D01*
X174359740Y-91369298D01*
X174367090Y-91385390D01*
X174435662Y-91569236D01*
X174440646Y-91586212D01*
X174482351Y-91777931D01*
X174484869Y-91795442D01*
X174499184Y-91995580D01*
X174499500Y-92004427D01*
X174499500Y-122995572D01*
X174499184Y-123004419D01*
X174484869Y-123204557D01*
X174482351Y-123222068D01*
X174440646Y-123413787D01*
X174435662Y-123430763D01*
X174367090Y-123614609D01*
X174359740Y-123630701D01*
X174265711Y-123802904D01*
X174256146Y-123817789D01*
X174138558Y-123974867D01*
X174126972Y-123988237D01*
X173988237Y-124126972D01*
X173974867Y-124138558D01*
X173817789Y-124256146D01*
X173802904Y-124265711D01*
X173630701Y-124359740D01*
X173614609Y-124367090D01*
X173430763Y-124435662D01*
X173413787Y-124440646D01*
X173222068Y-124482351D01*
X173204557Y-124484869D01*
X173023779Y-124497799D01*
X173004417Y-124499184D01*
X172995572Y-124499500D01*
X168779418Y-124499500D01*
X168712379Y-124479815D01*
X168666624Y-124427011D01*
X168656680Y-124357853D01*
X168685705Y-124294297D01*
X168705107Y-124276234D01*
X168717187Y-124267190D01*
X168717190Y-124267187D01*
X168803350Y-124152093D01*
X168803354Y-124152086D01*
X168853596Y-124017379D01*
X168853598Y-124017372D01*
X168859999Y-123957844D01*
X168860000Y-123957827D01*
X168860000Y-123260000D01*
X168008481Y-123260000D01*
X168019110Y-123241591D01*
X168059999Y-123088991D01*
X168059999Y-122931009D01*
X168019110Y-122778409D01*
X168008481Y-122760000D01*
X168860000Y-122760000D01*
X168860000Y-122062172D01*
X168859999Y-122062155D01*
X168853598Y-122002627D01*
X168853596Y-122002620D01*
X168822030Y-121917986D01*
X168807381Y-121878711D01*
X170149500Y-121878711D01*
X170149500Y-122121288D01*
X170176339Y-122325159D01*
X170181162Y-122361789D01*
X170200300Y-122433211D01*
X170243947Y-122596104D01*
X170336773Y-122820205D01*
X170336776Y-122820212D01*
X170458064Y-123030289D01*
X170458066Y-123030292D01*
X170458067Y-123030293D01*
X170605733Y-123222736D01*
X170605739Y-123222743D01*
X170777256Y-123394260D01*
X170777263Y-123394266D01*
X170814004Y-123422458D01*
X170969711Y-123541936D01*
X171179788Y-123663224D01*
X171403900Y-123756054D01*
X171638211Y-123818838D01*
X171818586Y-123842584D01*
X171878711Y-123850500D01*
X171878712Y-123850500D01*
X172121289Y-123850500D01*
X172169388Y-123844167D01*
X172361789Y-123818838D01*
X172596100Y-123756054D01*
X172820212Y-123663224D01*
X173030289Y-123541936D01*
X173222738Y-123394265D01*
X173394265Y-123222738D01*
X173541936Y-123030289D01*
X173663224Y-122820212D01*
X173756054Y-122596100D01*
X173818838Y-122361789D01*
X173850500Y-122121288D01*
X173850500Y-121878712D01*
X173818838Y-121638211D01*
X173756054Y-121403900D01*
X173663224Y-121179788D01*
X173541936Y-120969711D01*
X173457691Y-120859921D01*
X173394266Y-120777263D01*
X173394260Y-120777256D01*
X173222743Y-120605739D01*
X173222736Y-120605733D01*
X173030293Y-120458067D01*
X173030292Y-120458066D01*
X173030289Y-120458064D01*
X172829813Y-120342319D01*
X172820214Y-120336777D01*
X172820205Y-120336773D01*
X172596104Y-120243947D01*
X172443983Y-120203186D01*
X172361789Y-120181162D01*
X172361788Y-120181161D01*
X172361785Y-120181161D01*
X172121289Y-120149500D01*
X172121288Y-120149500D01*
X171878712Y-120149500D01*
X171878711Y-120149500D01*
X171638214Y-120181161D01*
X171403895Y-120243947D01*
X171179794Y-120336773D01*
X171179785Y-120336777D01*
X170969706Y-120458067D01*
X170777263Y-120605733D01*
X170777256Y-120605739D01*
X170605739Y-120777256D01*
X170605733Y-120777263D01*
X170458067Y-120969706D01*
X170336777Y-121179785D01*
X170336773Y-121179794D01*
X170243947Y-121403895D01*
X170181161Y-121638214D01*
X170149500Y-121878711D01*
X168807381Y-121878711D01*
X168803354Y-121867913D01*
X168803350Y-121867906D01*
X168717190Y-121752812D01*
X168717187Y-121752809D01*
X168602093Y-121666649D01*
X168602086Y-121666645D01*
X168467379Y-121616403D01*
X168467372Y-121616401D01*
X168407844Y-121610000D01*
X167710000Y-121610000D01*
X167710000Y-122461518D01*
X167691591Y-122450890D01*
X167538991Y-122410001D01*
X167381009Y-122410001D01*
X167228409Y-122450890D01*
X167210000Y-122461518D01*
X167210000Y-121610000D01*
X166512155Y-121610000D01*
X166452627Y-121616401D01*
X166452620Y-121616403D01*
X166317913Y-121666645D01*
X166317906Y-121666649D01*
X166202812Y-121752809D01*
X166202809Y-121752812D01*
X166116649Y-121867906D01*
X166116645Y-121867913D01*
X166066403Y-122002620D01*
X166066401Y-122002627D01*
X166060000Y-122062155D01*
X166060000Y-122325159D01*
X166040315Y-122392198D01*
X165987511Y-122437953D01*
X165918353Y-122447897D01*
X165854797Y-122418872D01*
X165835682Y-122398045D01*
X165803281Y-122353450D01*
X165759414Y-122293072D01*
X165636928Y-122170586D01*
X165496788Y-122068768D01*
X165342445Y-121990127D01*
X165177701Y-121936598D01*
X165177699Y-121936597D01*
X165177698Y-121936597D01*
X165046271Y-121915781D01*
X165006611Y-121909500D01*
X164833389Y-121909500D01*
X164793728Y-121915781D01*
X164662302Y-121936597D01*
X164497552Y-121990128D01*
X164343211Y-122068768D01*
X164332718Y-122076392D01*
X164203072Y-122170586D01*
X164203070Y-122170588D01*
X164203069Y-122170588D01*
X164080588Y-122293069D01*
X164080588Y-122293070D01*
X164080586Y-122293072D01*
X164036859Y-122353256D01*
X163978768Y-122433211D01*
X163900128Y-122587552D01*
X163846597Y-122752302D01*
X163819500Y-122923389D01*
X163819500Y-123096610D01*
X163842462Y-123241591D01*
X163846598Y-123267701D01*
X163900127Y-123432445D01*
X163978768Y-123586788D01*
X164080586Y-123726928D01*
X164203072Y-123849414D01*
X164343212Y-123951232D01*
X164497555Y-124029873D01*
X164662299Y-124083402D01*
X164833389Y-124110500D01*
X164833390Y-124110500D01*
X165006610Y-124110500D01*
X165006611Y-124110500D01*
X165177701Y-124083402D01*
X165342445Y-124029873D01*
X165496788Y-123951232D01*
X165636928Y-123849414D01*
X165759414Y-123726928D01*
X165835682Y-123621953D01*
X165891012Y-123579289D01*
X165960626Y-123573310D01*
X166022421Y-123605916D01*
X166056778Y-123666755D01*
X166060000Y-123694840D01*
X166060000Y-123957844D01*
X166066401Y-124017372D01*
X166066403Y-124017379D01*
X166116645Y-124152086D01*
X166116649Y-124152093D01*
X166202809Y-124267187D01*
X166202812Y-124267190D01*
X166214893Y-124276234D01*
X166256764Y-124332168D01*
X166261748Y-124401859D01*
X166228262Y-124463182D01*
X166166939Y-124496666D01*
X166140582Y-124499500D01*
X107004428Y-124499500D01*
X106995582Y-124499184D01*
X106973622Y-124497613D01*
X106795442Y-124484869D01*
X106777931Y-124482351D01*
X106586212Y-124440646D01*
X106569236Y-124435662D01*
X106385390Y-124367090D01*
X106369298Y-124359740D01*
X106197095Y-124265711D01*
X106182210Y-124256146D01*
X106025132Y-124138558D01*
X106011762Y-124126972D01*
X105873027Y-123988237D01*
X105861441Y-123974867D01*
X105843747Y-123951231D01*
X105743849Y-123817784D01*
X105734288Y-123802904D01*
X105640259Y-123630701D01*
X105632909Y-123614609D01*
X105605803Y-123541936D01*
X105564334Y-123430755D01*
X105559355Y-123413797D01*
X105517647Y-123222063D01*
X105515130Y-123204556D01*
X105500816Y-123004418D01*
X105500500Y-122995572D01*
X105500500Y-121878711D01*
X106149500Y-121878711D01*
X106149500Y-122121288D01*
X106176339Y-122325159D01*
X106181162Y-122361789D01*
X106200300Y-122433211D01*
X106243947Y-122596104D01*
X106336773Y-122820205D01*
X106336776Y-122820212D01*
X106458064Y-123030289D01*
X106458066Y-123030292D01*
X106458067Y-123030293D01*
X106605733Y-123222736D01*
X106605739Y-123222743D01*
X106777256Y-123394260D01*
X106777263Y-123394266D01*
X106814004Y-123422458D01*
X106969711Y-123541936D01*
X107179788Y-123663224D01*
X107403900Y-123756054D01*
X107638211Y-123818838D01*
X107818586Y-123842584D01*
X107878711Y-123850500D01*
X107878712Y-123850500D01*
X108121289Y-123850500D01*
X108169388Y-123844167D01*
X108361789Y-123818838D01*
X108596100Y-123756054D01*
X108820212Y-123663224D01*
X109030289Y-123541936D01*
X109222738Y-123394265D01*
X109394265Y-123222738D01*
X109541936Y-123030289D01*
X109603655Y-122923389D01*
X153659500Y-122923389D01*
X153659500Y-123096610D01*
X153682462Y-123241591D01*
X153686598Y-123267701D01*
X153740127Y-123432445D01*
X153818768Y-123586788D01*
X153920586Y-123726928D01*
X154043072Y-123849414D01*
X154183212Y-123951232D01*
X154337555Y-124029873D01*
X154502299Y-124083402D01*
X154673389Y-124110500D01*
X154673390Y-124110500D01*
X154846610Y-124110500D01*
X154846611Y-124110500D01*
X155017701Y-124083402D01*
X155182445Y-124029873D01*
X155336788Y-123951232D01*
X155476928Y-123849414D01*
X155599414Y-123726928D01*
X155701232Y-123586788D01*
X155779873Y-123432445D01*
X155833402Y-123267701D01*
X155860500Y-123096611D01*
X155860500Y-122923389D01*
X156199500Y-122923389D01*
X156199500Y-123096610D01*
X156222462Y-123241591D01*
X156226598Y-123267701D01*
X156280127Y-123432445D01*
X156358768Y-123586788D01*
X156460586Y-123726928D01*
X156583072Y-123849414D01*
X156723212Y-123951232D01*
X156877555Y-124029873D01*
X157042299Y-124083402D01*
X157213389Y-124110500D01*
X157213390Y-124110500D01*
X157386610Y-124110500D01*
X157386611Y-124110500D01*
X157557701Y-124083402D01*
X157722445Y-124029873D01*
X157876788Y-123951232D01*
X158016928Y-123849414D01*
X158139414Y-123726928D01*
X158241232Y-123586788D01*
X158319873Y-123432445D01*
X158373402Y-123267701D01*
X158400500Y-123096611D01*
X158400500Y-122923389D01*
X158739500Y-122923389D01*
X158739500Y-123096610D01*
X158762462Y-123241591D01*
X158766598Y-123267701D01*
X158820127Y-123432445D01*
X158898768Y-123586788D01*
X159000586Y-123726928D01*
X159123072Y-123849414D01*
X159263212Y-123951232D01*
X159417555Y-124029873D01*
X159582299Y-124083402D01*
X159753389Y-124110500D01*
X159753390Y-124110500D01*
X159926610Y-124110500D01*
X159926611Y-124110500D01*
X160097701Y-124083402D01*
X160262445Y-124029873D01*
X160416788Y-123951232D01*
X160556928Y-123849414D01*
X160679414Y-123726928D01*
X160781232Y-123586788D01*
X160859873Y-123432445D01*
X160913402Y-123267701D01*
X160940500Y-123096611D01*
X160940500Y-122923389D01*
X161279500Y-122923389D01*
X161279500Y-123096610D01*
X161302462Y-123241591D01*
X161306598Y-123267701D01*
X161360127Y-123432445D01*
X161438768Y-123586788D01*
X161540586Y-123726928D01*
X161663072Y-123849414D01*
X161803212Y-123951232D01*
X161957555Y-124029873D01*
X162122299Y-124083402D01*
X162293389Y-124110500D01*
X162293390Y-124110500D01*
X162466610Y-124110500D01*
X162466611Y-124110500D01*
X162637701Y-124083402D01*
X162802445Y-124029873D01*
X162956788Y-123951232D01*
X163096928Y-123849414D01*
X163219414Y-123726928D01*
X163321232Y-123586788D01*
X163399873Y-123432445D01*
X163453402Y-123267701D01*
X163480500Y-123096611D01*
X163480500Y-122923389D01*
X163453402Y-122752299D01*
X163399873Y-122587555D01*
X163321232Y-122433212D01*
X163219414Y-122293072D01*
X163096928Y-122170586D01*
X162956788Y-122068768D01*
X162802445Y-121990127D01*
X162637701Y-121936598D01*
X162637699Y-121936597D01*
X162637698Y-121936597D01*
X162506271Y-121915781D01*
X162466611Y-121909500D01*
X162293389Y-121909500D01*
X162253728Y-121915781D01*
X162122302Y-121936597D01*
X161957552Y-121990128D01*
X161803211Y-122068768D01*
X161792718Y-122076392D01*
X161663072Y-122170586D01*
X161663070Y-122170588D01*
X161663069Y-122170588D01*
X161540588Y-122293069D01*
X161540588Y-122293070D01*
X161540586Y-122293072D01*
X161496859Y-122353256D01*
X161438768Y-122433211D01*
X161360128Y-122587552D01*
X161306597Y-122752302D01*
X161279500Y-122923389D01*
X160940500Y-122923389D01*
X160913402Y-122752299D01*
X160859873Y-122587555D01*
X160781232Y-122433212D01*
X160679414Y-122293072D01*
X160556928Y-122170586D01*
X160416788Y-122068768D01*
X160262445Y-121990127D01*
X160097701Y-121936598D01*
X160097699Y-121936597D01*
X160097698Y-121936597D01*
X159966271Y-121915781D01*
X159926611Y-121909500D01*
X159753389Y-121909500D01*
X159713728Y-121915781D01*
X159582302Y-121936597D01*
X159417552Y-121990128D01*
X159263211Y-122068768D01*
X159252718Y-122076392D01*
X159123072Y-122170586D01*
X159123070Y-122170588D01*
X159123069Y-122170588D01*
X159000588Y-122293069D01*
X159000588Y-122293070D01*
X159000586Y-122293072D01*
X158956859Y-122353256D01*
X158898768Y-122433211D01*
X158820128Y-122587552D01*
X158766597Y-122752302D01*
X158739500Y-122923389D01*
X158400500Y-122923389D01*
X158373402Y-122752299D01*
X158319873Y-122587555D01*
X158241232Y-122433212D01*
X158139414Y-122293072D01*
X158016928Y-122170586D01*
X157876788Y-122068768D01*
X157722445Y-121990127D01*
X157557701Y-121936598D01*
X157557699Y-121936597D01*
X157557698Y-121936597D01*
X157426271Y-121915781D01*
X157386611Y-121909500D01*
X157213389Y-121909500D01*
X157173728Y-121915781D01*
X157042302Y-121936597D01*
X156877552Y-121990128D01*
X156723211Y-122068768D01*
X156712718Y-122076392D01*
X156583072Y-122170586D01*
X156583070Y-122170588D01*
X156583069Y-122170588D01*
X156460588Y-122293069D01*
X156460588Y-122293070D01*
X156460586Y-122293072D01*
X156416859Y-122353256D01*
X156358768Y-122433211D01*
X156280128Y-122587552D01*
X156226597Y-122752302D01*
X156199500Y-122923389D01*
X155860500Y-122923389D01*
X155833402Y-122752299D01*
X155779873Y-122587555D01*
X155701232Y-122433212D01*
X155599414Y-122293072D01*
X155476928Y-122170586D01*
X155336788Y-122068768D01*
X155182445Y-121990127D01*
X155017701Y-121936598D01*
X155017699Y-121936597D01*
X155017698Y-121936597D01*
X154886271Y-121915781D01*
X154846611Y-121909500D01*
X154673389Y-121909500D01*
X154633728Y-121915781D01*
X154502302Y-121936597D01*
X154337552Y-121990128D01*
X154183211Y-122068768D01*
X154172718Y-122076392D01*
X154043072Y-122170586D01*
X154043070Y-122170588D01*
X154043069Y-122170588D01*
X153920588Y-122293069D01*
X153920588Y-122293070D01*
X153920586Y-122293072D01*
X153876859Y-122353256D01*
X153818768Y-122433211D01*
X153740128Y-122587552D01*
X153686597Y-122752302D01*
X153659500Y-122923389D01*
X109603655Y-122923389D01*
X109663224Y-122820212D01*
X109756054Y-122596100D01*
X109818838Y-122361789D01*
X109850500Y-122121288D01*
X109850500Y-121878712D01*
X109818838Y-121638211D01*
X109756054Y-121403900D01*
X109663224Y-121179788D01*
X109541936Y-120969711D01*
X109457691Y-120859921D01*
X109394266Y-120777263D01*
X109394260Y-120777256D01*
X109222743Y-120605739D01*
X109222736Y-120605733D01*
X109030293Y-120458067D01*
X109030292Y-120458066D01*
X109030289Y-120458064D01*
X108829813Y-120342319D01*
X108820214Y-120336777D01*
X108820205Y-120336773D01*
X108596104Y-120243947D01*
X108443983Y-120203186D01*
X108361789Y-120181162D01*
X108361788Y-120181161D01*
X108361785Y-120181161D01*
X108121289Y-120149500D01*
X108121288Y-120149500D01*
X107878712Y-120149500D01*
X107878711Y-120149500D01*
X107638214Y-120181161D01*
X107403895Y-120243947D01*
X107179794Y-120336773D01*
X107179785Y-120336777D01*
X106969706Y-120458067D01*
X106777263Y-120605733D01*
X106777256Y-120605739D01*
X106605739Y-120777256D01*
X106605733Y-120777263D01*
X106458067Y-120969706D01*
X106336777Y-121179785D01*
X106336773Y-121179794D01*
X106243947Y-121403895D01*
X106181161Y-121638214D01*
X106149500Y-121878711D01*
X105500500Y-121878711D01*
X105500500Y-119964108D01*
X112559500Y-119964108D01*
X112559500Y-120095892D01*
X112576554Y-120159539D01*
X112593608Y-120223187D01*
X112607934Y-120247999D01*
X112659500Y-120337314D01*
X112659502Y-120337316D01*
X112664505Y-120342319D01*
X112697990Y-120403642D01*
X112693006Y-120473334D01*
X112664505Y-120517681D01*
X112659502Y-120522683D01*
X112659500Y-120522686D01*
X112593608Y-120636812D01*
X112580544Y-120685569D01*
X112559500Y-120764108D01*
X112559500Y-120895892D01*
X112575472Y-120955500D01*
X112593608Y-121023187D01*
X112626554Y-121080250D01*
X112659500Y-121137314D01*
X112659503Y-121137317D01*
X112664447Y-121143760D01*
X112661843Y-121145757D01*
X112687990Y-121193642D01*
X112683006Y-121263334D01*
X112662713Y-121294909D01*
X112664447Y-121296240D01*
X112659500Y-121302686D01*
X112593608Y-121416812D01*
X112559500Y-121544108D01*
X112559500Y-121675891D01*
X112593608Y-121803187D01*
X112626554Y-121860250D01*
X112659500Y-121917314D01*
X112752686Y-122010500D01*
X112866814Y-122076392D01*
X112994108Y-122110500D01*
X112994110Y-122110500D01*
X113125890Y-122110500D01*
X113125892Y-122110500D01*
X113253186Y-122076392D01*
X113367314Y-122010500D01*
X113377319Y-122000495D01*
X113438642Y-121967010D01*
X113508334Y-121971994D01*
X113552681Y-122000495D01*
X113562686Y-122010500D01*
X113676814Y-122076392D01*
X113804108Y-122110500D01*
X113804110Y-122110500D01*
X113935890Y-122110500D01*
X113935892Y-122110500D01*
X114063186Y-122076392D01*
X114177314Y-122010500D01*
X114270500Y-121917314D01*
X114336392Y-121803186D01*
X114370500Y-121675892D01*
X114370500Y-121544108D01*
X114336392Y-121416814D01*
X114270500Y-121302686D01*
X114265495Y-121297681D01*
X114232010Y-121236358D01*
X114236994Y-121166666D01*
X114265495Y-121122319D01*
X114270500Y-121117314D01*
X114336392Y-121003186D01*
X114370500Y-120875892D01*
X114370500Y-120744108D01*
X114336392Y-120616814D01*
X114335859Y-120615890D01*
X114295958Y-120546779D01*
X114295952Y-120546770D01*
X114270500Y-120502686D01*
X114257094Y-120489280D01*
X114256978Y-120489108D01*
X145294500Y-120489108D01*
X145294500Y-120620891D01*
X145328608Y-120748187D01*
X145361554Y-120805250D01*
X145394500Y-120862314D01*
X145487686Y-120955500D01*
X145601814Y-121021392D01*
X145729108Y-121055500D01*
X145729110Y-121055500D01*
X145860890Y-121055500D01*
X145860892Y-121055500D01*
X145988186Y-121021392D01*
X146102314Y-120955500D01*
X146195500Y-120862314D01*
X146195504Y-120862306D01*
X146196625Y-120860847D01*
X146197892Y-120859921D01*
X146201247Y-120856567D01*
X146201770Y-120857090D01*
X146253053Y-120819645D01*
X146322799Y-120815491D01*
X146383719Y-120849704D01*
X146393375Y-120860847D01*
X146394498Y-120862311D01*
X146394500Y-120862314D01*
X146487686Y-120955500D01*
X146601814Y-121021392D01*
X146729108Y-121055500D01*
X146729110Y-121055500D01*
X146860890Y-121055500D01*
X146860892Y-121055500D01*
X146988186Y-121021392D01*
X147102314Y-120955500D01*
X147192319Y-120865495D01*
X147253642Y-120832010D01*
X147323334Y-120836994D01*
X147367681Y-120865495D01*
X147452686Y-120950500D01*
X147566814Y-121016392D01*
X147694108Y-121050500D01*
X147694110Y-121050500D01*
X147825890Y-121050500D01*
X147825892Y-121050500D01*
X147953186Y-121016392D01*
X148067314Y-120950500D01*
X148160500Y-120857314D01*
X148226392Y-120743186D01*
X148260500Y-120615892D01*
X148260500Y-120484108D01*
X148226392Y-120356814D01*
X148160500Y-120242686D01*
X148067314Y-120149500D01*
X148002672Y-120112179D01*
X147953187Y-120083608D01*
X147844552Y-120054500D01*
X147825892Y-120049500D01*
X147694108Y-120049500D01*
X147566812Y-120083608D01*
X147452686Y-120149500D01*
X147452683Y-120149502D01*
X147362681Y-120239505D01*
X147301358Y-120272990D01*
X147231666Y-120268006D01*
X147187319Y-120239505D01*
X147102316Y-120154502D01*
X147102314Y-120154500D01*
X147045250Y-120121554D01*
X146988187Y-120088608D01*
X146924539Y-120071554D01*
X146860892Y-120054500D01*
X146729108Y-120054500D01*
X146601812Y-120088608D01*
X146487686Y-120154500D01*
X146487683Y-120154502D01*
X146394498Y-120247687D01*
X146393370Y-120249158D01*
X146392102Y-120250083D01*
X146388753Y-120253433D01*
X146388230Y-120252910D01*
X146336940Y-120290356D01*
X146267193Y-120294506D01*
X146206275Y-120260289D01*
X146196630Y-120249158D01*
X146195501Y-120247687D01*
X146102316Y-120154502D01*
X146102314Y-120154500D01*
X146045250Y-120121554D01*
X145988187Y-120088608D01*
X145924539Y-120071554D01*
X145860892Y-120054500D01*
X145729108Y-120054500D01*
X145601812Y-120088608D01*
X145487686Y-120154500D01*
X145487683Y-120154502D01*
X145394502Y-120247683D01*
X145394500Y-120247686D01*
X145328608Y-120361812D01*
X145294500Y-120489108D01*
X114256978Y-120489108D01*
X114250442Y-120479438D01*
X114243289Y-120457014D01*
X114232010Y-120436358D01*
X114232868Y-120424346D01*
X114229209Y-120412873D01*
X114235315Y-120390141D01*
X114236994Y-120366666D01*
X114244944Y-120354295D01*
X114247335Y-120345395D01*
X114255328Y-120338137D01*
X114265495Y-120322319D01*
X114270500Y-120317314D01*
X114336392Y-120203186D01*
X114370500Y-120075892D01*
X114370500Y-119944108D01*
X114336392Y-119816814D01*
X114316066Y-119781608D01*
X124119500Y-119781608D01*
X124119500Y-119913392D01*
X124120417Y-119916814D01*
X124153608Y-120040687D01*
X124180969Y-120088076D01*
X124219500Y-120154814D01*
X124312686Y-120248000D01*
X124426814Y-120313892D01*
X124554108Y-120348000D01*
X124554110Y-120348000D01*
X124685890Y-120348000D01*
X124685892Y-120348000D01*
X124813186Y-120313892D01*
X124927314Y-120248000D01*
X125020500Y-120154814D01*
X125086392Y-120040686D01*
X125120500Y-119913392D01*
X125120500Y-119781608D01*
X138619500Y-119781608D01*
X138619500Y-119913392D01*
X138620417Y-119916814D01*
X138653608Y-120040687D01*
X138680969Y-120088076D01*
X138719500Y-120154814D01*
X138812686Y-120248000D01*
X138926814Y-120313892D01*
X139054108Y-120348000D01*
X139054110Y-120348000D01*
X139185890Y-120348000D01*
X139185892Y-120348000D01*
X139313186Y-120313892D01*
X139427314Y-120248000D01*
X139520500Y-120154814D01*
X139586392Y-120040686D01*
X139620500Y-119913392D01*
X139620500Y-119781608D01*
X139602617Y-119714868D01*
X143449500Y-119714868D01*
X143449500Y-119846651D01*
X143483608Y-119973947D01*
X143516554Y-120031010D01*
X143549500Y-120088074D01*
X143642686Y-120181260D01*
X143756814Y-120247152D01*
X143884108Y-120281260D01*
X143884110Y-120281260D01*
X144015890Y-120281260D01*
X144015892Y-120281260D01*
X144143186Y-120247152D01*
X144257314Y-120181260D01*
X144350500Y-120088074D01*
X144375884Y-120044108D01*
X150809500Y-120044108D01*
X150809500Y-120175892D01*
X150816813Y-120203186D01*
X150843608Y-120303187D01*
X150867977Y-120345395D01*
X150909500Y-120417314D01*
X150909502Y-120417316D01*
X150927005Y-120434819D01*
X150960490Y-120496142D01*
X150955506Y-120565834D01*
X150927005Y-120610181D01*
X150914502Y-120622683D01*
X150914500Y-120622686D01*
X150848608Y-120736812D01*
X150816521Y-120856567D01*
X150814500Y-120864108D01*
X150814500Y-120995892D01*
X150830472Y-121055500D01*
X150848608Y-121123187D01*
X150860486Y-121143760D01*
X150914500Y-121237314D01*
X151007686Y-121330500D01*
X151121814Y-121396392D01*
X151249108Y-121430500D01*
X151249110Y-121430500D01*
X151380890Y-121430500D01*
X151380892Y-121430500D01*
X151508186Y-121396392D01*
X151622314Y-121330500D01*
X151715500Y-121237314D01*
X151781392Y-121123186D01*
X151815500Y-120995892D01*
X151815500Y-120864108D01*
X151781392Y-120736814D01*
X151715500Y-120622686D01*
X151708704Y-120615890D01*
X151697993Y-120605178D01*
X151664509Y-120543854D01*
X151669495Y-120474163D01*
X151697993Y-120429820D01*
X151710500Y-120417314D01*
X151776392Y-120303186D01*
X151810500Y-120175892D01*
X151810500Y-120044108D01*
X151776392Y-119916814D01*
X151710500Y-119802686D01*
X151617314Y-119709500D01*
X151528119Y-119658003D01*
X151503187Y-119643608D01*
X151439539Y-119626554D01*
X151375892Y-119609500D01*
X151244108Y-119609500D01*
X151116812Y-119643608D01*
X151002686Y-119709500D01*
X151002683Y-119709502D01*
X150909502Y-119802683D01*
X150909500Y-119802686D01*
X150843608Y-119916812D01*
X150828299Y-119973947D01*
X150809500Y-120044108D01*
X144375884Y-120044108D01*
X144416392Y-119973946D01*
X144450500Y-119846652D01*
X144450500Y-119714868D01*
X144416392Y-119587574D01*
X144350500Y-119473446D01*
X144257314Y-119380260D01*
X144199706Y-119347000D01*
X144143187Y-119314368D01*
X144079539Y-119297314D01*
X144015892Y-119280260D01*
X143884108Y-119280260D01*
X143756812Y-119314368D01*
X143642686Y-119380260D01*
X143642683Y-119380262D01*
X143549502Y-119473443D01*
X143549500Y-119473446D01*
X143483608Y-119587572D01*
X143449500Y-119714868D01*
X139602617Y-119714868D01*
X139586392Y-119654314D01*
X139520500Y-119540186D01*
X139427314Y-119447000D01*
X139370250Y-119414054D01*
X139313187Y-119381108D01*
X139249539Y-119364054D01*
X139185892Y-119347000D01*
X139054108Y-119347000D01*
X138926812Y-119381108D01*
X138812686Y-119447000D01*
X138812683Y-119447002D01*
X138719502Y-119540183D01*
X138719500Y-119540186D01*
X138653608Y-119654312D01*
X138635289Y-119722683D01*
X138619500Y-119781608D01*
X125120500Y-119781608D01*
X125086392Y-119654314D01*
X125020500Y-119540186D01*
X124927314Y-119447000D01*
X124870250Y-119414054D01*
X124813187Y-119381108D01*
X124749539Y-119364054D01*
X124685892Y-119347000D01*
X124554108Y-119347000D01*
X124426812Y-119381108D01*
X124312686Y-119447000D01*
X124312683Y-119447002D01*
X124219502Y-119540183D01*
X124219500Y-119540186D01*
X124153608Y-119654312D01*
X124135289Y-119722683D01*
X124119500Y-119781608D01*
X114316066Y-119781608D01*
X114270500Y-119702686D01*
X114177314Y-119609500D01*
X114097827Y-119563608D01*
X114063187Y-119543608D01*
X113999539Y-119526554D01*
X113935892Y-119509500D01*
X113804108Y-119509500D01*
X113676812Y-119543608D01*
X113562686Y-119609500D01*
X113562685Y-119609500D01*
X113542677Y-119629508D01*
X113481352Y-119662990D01*
X113411661Y-119658003D01*
X113374172Y-119633909D01*
X113373760Y-119634447D01*
X113367316Y-119629502D01*
X113367314Y-119629500D01*
X113294693Y-119587572D01*
X113253187Y-119563608D01*
X113165762Y-119540183D01*
X113125892Y-119529500D01*
X112994108Y-119529500D01*
X112866812Y-119563608D01*
X112752686Y-119629500D01*
X112752683Y-119629502D01*
X112659502Y-119722683D01*
X112659500Y-119722686D01*
X112593608Y-119836812D01*
X112573090Y-119913390D01*
X112559500Y-119964108D01*
X105500500Y-119964108D01*
X105500500Y-118511608D01*
X124119500Y-118511608D01*
X124119500Y-118643391D01*
X124153608Y-118770687D01*
X124186554Y-118827750D01*
X124219500Y-118884814D01*
X124312686Y-118978000D01*
X124426814Y-119043892D01*
X124554108Y-119078000D01*
X124554110Y-119078000D01*
X124685890Y-119078000D01*
X124685892Y-119078000D01*
X124813186Y-119043892D01*
X124927314Y-118978000D01*
X125020500Y-118884814D01*
X125086392Y-118770686D01*
X125120500Y-118643392D01*
X125120500Y-118511608D01*
X138619500Y-118511608D01*
X138619500Y-118643391D01*
X138653608Y-118770687D01*
X138686554Y-118827750D01*
X138719500Y-118884814D01*
X138812686Y-118978000D01*
X138926814Y-119043892D01*
X139054108Y-119078000D01*
X139054110Y-119078000D01*
X139185890Y-119078000D01*
X139185892Y-119078000D01*
X139313186Y-119043892D01*
X139427314Y-118978000D01*
X139520500Y-118884814D01*
X139586392Y-118770686D01*
X139620500Y-118643392D01*
X139620500Y-118511608D01*
X139586392Y-118384314D01*
X139520500Y-118270186D01*
X139427314Y-118177000D01*
X139370250Y-118144054D01*
X139313187Y-118111108D01*
X139249539Y-118094054D01*
X139185892Y-118077000D01*
X139054108Y-118077000D01*
X138926812Y-118111108D01*
X138812686Y-118177000D01*
X138812683Y-118177002D01*
X138719502Y-118270183D01*
X138719500Y-118270186D01*
X138653608Y-118384312D01*
X138619500Y-118511608D01*
X125120500Y-118511608D01*
X125086392Y-118384314D01*
X125020500Y-118270186D01*
X124927314Y-118177000D01*
X124870250Y-118144054D01*
X124813187Y-118111108D01*
X124749539Y-118094054D01*
X124685892Y-118077000D01*
X124554108Y-118077000D01*
X124426812Y-118111108D01*
X124312686Y-118177000D01*
X124312683Y-118177002D01*
X124219502Y-118270183D01*
X124219500Y-118270186D01*
X124153608Y-118384312D01*
X124119500Y-118511608D01*
X105500500Y-118511608D01*
X105500500Y-117241608D01*
X138619500Y-117241608D01*
X138619500Y-117373391D01*
X138653608Y-117500687D01*
X138686554Y-117557750D01*
X138719500Y-117614814D01*
X138812686Y-117708000D01*
X138926814Y-117773892D01*
X139054108Y-117808000D01*
X139054110Y-117808000D01*
X139185890Y-117808000D01*
X139185892Y-117808000D01*
X139313186Y-117773892D01*
X139427314Y-117708000D01*
X139520500Y-117614814D01*
X139586392Y-117500686D01*
X139620500Y-117373392D01*
X139620500Y-117241608D01*
X139586392Y-117114314D01*
X139520500Y-117000186D01*
X139427314Y-116907000D01*
X139370250Y-116874054D01*
X139313187Y-116841108D01*
X139249539Y-116824054D01*
X139185892Y-116807000D01*
X139054108Y-116807000D01*
X138926812Y-116841108D01*
X138812686Y-116907000D01*
X138812683Y-116907002D01*
X138719502Y-117000183D01*
X138719500Y-117000186D01*
X138653608Y-117114312D01*
X138619500Y-117241608D01*
X105500500Y-117241608D01*
X105500500Y-115971608D01*
X138619500Y-115971608D01*
X138619500Y-116103391D01*
X138653608Y-116230687D01*
X138686554Y-116287750D01*
X138719500Y-116344814D01*
X138812686Y-116438000D01*
X138926814Y-116503892D01*
X139054108Y-116538000D01*
X139054110Y-116538000D01*
X139185890Y-116538000D01*
X139185892Y-116538000D01*
X139313186Y-116503892D01*
X139427314Y-116438000D01*
X139520500Y-116344814D01*
X139586392Y-116230686D01*
X139620500Y-116103392D01*
X139620500Y-115971608D01*
X139586392Y-115844314D01*
X139520500Y-115730186D01*
X139427314Y-115637000D01*
X139370250Y-115604054D01*
X139313187Y-115571108D01*
X139249539Y-115554054D01*
X139185892Y-115537000D01*
X139054108Y-115537000D01*
X138926812Y-115571108D01*
X138812686Y-115637000D01*
X138812683Y-115637002D01*
X138719502Y-115730183D01*
X138719500Y-115730186D01*
X138653608Y-115844312D01*
X138619500Y-115971608D01*
X105500500Y-115971608D01*
X105500500Y-114714108D01*
X138619500Y-114714108D01*
X138619500Y-114845891D01*
X138653608Y-114973187D01*
X138686554Y-115030250D01*
X138719500Y-115087314D01*
X138812686Y-115180500D01*
X138926814Y-115246392D01*
X139054108Y-115280500D01*
X139054110Y-115280500D01*
X139185890Y-115280500D01*
X139185892Y-115280500D01*
X139313186Y-115246392D01*
X139427314Y-115180500D01*
X139520500Y-115087314D01*
X139586392Y-114973186D01*
X139620500Y-114845892D01*
X139620500Y-114714108D01*
X139586392Y-114586814D01*
X139520500Y-114472686D01*
X139427314Y-114379500D01*
X139370250Y-114346554D01*
X139313187Y-114313608D01*
X139249539Y-114296554D01*
X139185892Y-114279500D01*
X139054108Y-114279500D01*
X138926812Y-114313608D01*
X138812686Y-114379500D01*
X138812683Y-114379502D01*
X138719502Y-114472683D01*
X138719500Y-114472686D01*
X138653608Y-114586812D01*
X138619500Y-114714108D01*
X105500500Y-114714108D01*
X105500500Y-114114108D01*
X117906851Y-114114108D01*
X117906851Y-114245891D01*
X117940959Y-114373187D01*
X117973905Y-114430250D01*
X118006851Y-114487314D01*
X118100037Y-114580500D01*
X118198872Y-114637563D01*
X118214161Y-114646390D01*
X118214165Y-114646392D01*
X118341459Y-114680500D01*
X118341461Y-114680500D01*
X118473241Y-114680500D01*
X118473243Y-114680500D01*
X118600537Y-114646392D01*
X118714665Y-114580500D01*
X118807851Y-114487314D01*
X118873743Y-114373186D01*
X118907851Y-114245892D01*
X118907851Y-114114108D01*
X120439500Y-114114108D01*
X120439500Y-114245891D01*
X120473608Y-114373187D01*
X120506554Y-114430250D01*
X120539500Y-114487314D01*
X120632686Y-114580500D01*
X120731521Y-114637563D01*
X120746810Y-114646390D01*
X120746814Y-114646392D01*
X120874108Y-114680500D01*
X120874110Y-114680500D01*
X121005890Y-114680500D01*
X121005892Y-114680500D01*
X121133186Y-114646392D01*
X121247314Y-114580500D01*
X121340500Y-114487314D01*
X121406392Y-114373186D01*
X121440500Y-114245892D01*
X121440500Y-114114108D01*
X121406392Y-113986814D01*
X121340500Y-113872686D01*
X121247314Y-113779500D01*
X121190250Y-113746554D01*
X121133187Y-113713608D01*
X121069539Y-113696554D01*
X121005892Y-113679500D01*
X120874108Y-113679500D01*
X120746812Y-113713608D01*
X120632686Y-113779500D01*
X120632683Y-113779502D01*
X120539502Y-113872683D01*
X120539500Y-113872686D01*
X120473608Y-113986812D01*
X120439500Y-114114108D01*
X118907851Y-114114108D01*
X118873743Y-113986814D01*
X118807851Y-113872686D01*
X118714665Y-113779500D01*
X118657601Y-113746554D01*
X118600538Y-113713608D01*
X118536890Y-113696554D01*
X118473243Y-113679500D01*
X118341459Y-113679500D01*
X118214163Y-113713608D01*
X118100037Y-113779500D01*
X118100034Y-113779502D01*
X118006853Y-113872683D01*
X118006851Y-113872686D01*
X117940959Y-113986812D01*
X117906851Y-114114108D01*
X105500500Y-114114108D01*
X105500500Y-113439108D01*
X138619500Y-113439108D01*
X138619500Y-113570892D01*
X138620735Y-113575500D01*
X138653608Y-113698187D01*
X138686554Y-113755250D01*
X138719500Y-113812314D01*
X138812686Y-113905500D01*
X138926814Y-113971392D01*
X139054108Y-114005500D01*
X139054110Y-114005500D01*
X139185890Y-114005500D01*
X139185892Y-114005500D01*
X139313186Y-113971392D01*
X139427314Y-113905500D01*
X139520500Y-113812314D01*
X139586392Y-113698186D01*
X139620500Y-113570892D01*
X139620500Y-113439108D01*
X139586392Y-113311814D01*
X139520500Y-113197686D01*
X139427314Y-113104500D01*
X139370250Y-113071554D01*
X139313187Y-113038608D01*
X139249539Y-113021554D01*
X139185892Y-113004500D01*
X139054108Y-113004500D01*
X138926812Y-113038608D01*
X138812686Y-113104500D01*
X138812683Y-113104502D01*
X138719502Y-113197683D01*
X138719500Y-113197686D01*
X138653608Y-113311812D01*
X138634718Y-113382313D01*
X138619500Y-113439108D01*
X105500500Y-113439108D01*
X105500500Y-112164108D01*
X138619500Y-112164108D01*
X138619500Y-112295891D01*
X138653608Y-112423187D01*
X138686554Y-112480250D01*
X138719500Y-112537314D01*
X138812686Y-112630500D01*
X138926814Y-112696392D01*
X139054108Y-112730500D01*
X139054110Y-112730500D01*
X139185890Y-112730500D01*
X139185892Y-112730500D01*
X139313186Y-112696392D01*
X139427314Y-112630500D01*
X139520500Y-112537314D01*
X139586392Y-112423186D01*
X139620500Y-112295892D01*
X139620500Y-112164108D01*
X139586392Y-112036814D01*
X139520500Y-111922686D01*
X139427314Y-111829500D01*
X139370250Y-111796554D01*
X139313187Y-111763608D01*
X139230270Y-111741391D01*
X139185892Y-111729500D01*
X139054108Y-111729500D01*
X138926812Y-111763608D01*
X138812686Y-111829500D01*
X138812683Y-111829502D01*
X138719502Y-111922683D01*
X138719500Y-111922686D01*
X138653608Y-112036812D01*
X138619500Y-112164108D01*
X105500500Y-112164108D01*
X105500500Y-110364796D01*
X111229500Y-110364796D01*
X111229500Y-110545899D01*
X111257829Y-110724758D01*
X111313787Y-110896984D01*
X111313788Y-110896987D01*
X111349812Y-110967686D01*
X111393497Y-111053422D01*
X111396006Y-111058345D01*
X111502441Y-111204842D01*
X111502445Y-111204847D01*
X111630500Y-111332902D01*
X111630505Y-111332906D01*
X111752296Y-111421391D01*
X111777006Y-111439344D01*
X111882484Y-111493088D01*
X111938360Y-111521559D01*
X111938363Y-111521560D01*
X111994742Y-111539878D01*
X112110591Y-111577519D01*
X112193429Y-111590639D01*
X112289449Y-111605848D01*
X112289454Y-111605848D01*
X112470551Y-111605848D01*
X112558017Y-111591994D01*
X112649409Y-111577519D01*
X112821639Y-111521559D01*
X112982994Y-111439344D01*
X113129501Y-111332901D01*
X113257553Y-111204849D01*
X113363996Y-111058342D01*
X113446211Y-110896987D01*
X113448771Y-110889108D01*
X135994500Y-110889108D01*
X135994500Y-111020892D01*
X136010823Y-111081812D01*
X136028608Y-111148187D01*
X136061318Y-111204842D01*
X136094500Y-111262314D01*
X136187686Y-111355500D01*
X136301814Y-111421392D01*
X136429108Y-111455500D01*
X136429110Y-111455500D01*
X136560890Y-111455500D01*
X136560892Y-111455500D01*
X136688186Y-111421392D01*
X136802314Y-111355500D01*
X136895500Y-111262314D01*
X136926219Y-111209108D01*
X160599500Y-111209108D01*
X160599500Y-111340892D01*
X160603414Y-111355499D01*
X160633608Y-111468187D01*
X160664423Y-111521559D01*
X160699500Y-111582314D01*
X160699502Y-111582316D01*
X160754505Y-111637319D01*
X160787990Y-111698642D01*
X160783006Y-111768334D01*
X160754505Y-111812681D01*
X160699502Y-111867683D01*
X160699500Y-111867686D01*
X160633608Y-111981812D01*
X160599500Y-112109108D01*
X160599500Y-112240891D01*
X160633608Y-112368187D01*
X160665362Y-112423186D01*
X160699500Y-112482314D01*
X160699502Y-112482316D01*
X160754505Y-112537319D01*
X160787990Y-112598642D01*
X160783006Y-112668334D01*
X160754505Y-112712681D01*
X160699502Y-112767683D01*
X160699500Y-112767686D01*
X160633608Y-112881812D01*
X160599500Y-113009108D01*
X160599500Y-113140891D01*
X160633608Y-113268187D01*
X160658797Y-113311814D01*
X160699500Y-113382314D01*
X160792686Y-113475500D01*
X160906814Y-113541392D01*
X161034108Y-113575500D01*
X161034110Y-113575500D01*
X161165890Y-113575500D01*
X161165892Y-113575500D01*
X161293186Y-113541392D01*
X161407314Y-113475500D01*
X161500500Y-113382314D01*
X161566392Y-113268186D01*
X161600500Y-113140892D01*
X161600500Y-113009108D01*
X161566392Y-112881814D01*
X161500500Y-112767686D01*
X161445495Y-112712681D01*
X161412010Y-112651358D01*
X161416994Y-112581666D01*
X161445495Y-112537319D01*
X161445501Y-112537313D01*
X161500500Y-112482314D01*
X161566392Y-112368186D01*
X161600500Y-112240892D01*
X161600500Y-112109108D01*
X161566392Y-111981814D01*
X161500500Y-111867686D01*
X161445495Y-111812681D01*
X161441156Y-111804735D01*
X161433909Y-111799310D01*
X161424674Y-111774550D01*
X161412010Y-111751358D01*
X161412655Y-111742328D01*
X161409492Y-111733846D01*
X161415108Y-111708025D01*
X161416994Y-111681666D01*
X161422812Y-111672612D01*
X161424344Y-111665573D01*
X161445495Y-111637319D01*
X161462319Y-111620495D01*
X161523642Y-111587010D01*
X161593334Y-111591994D01*
X161637681Y-111620495D01*
X161692686Y-111675500D01*
X161806814Y-111741392D01*
X161934108Y-111775500D01*
X161934110Y-111775500D01*
X162065890Y-111775500D01*
X162065892Y-111775500D01*
X162193186Y-111741392D01*
X162307314Y-111675500D01*
X162337319Y-111645495D01*
X162398642Y-111612010D01*
X162468334Y-111616994D01*
X162512681Y-111645495D01*
X162542686Y-111675500D01*
X162656814Y-111741392D01*
X162784108Y-111775500D01*
X162784110Y-111775500D01*
X162915890Y-111775500D01*
X162915892Y-111775500D01*
X163043186Y-111741392D01*
X163157314Y-111675500D01*
X163250500Y-111582314D01*
X163316392Y-111468186D01*
X163350500Y-111340892D01*
X163350500Y-111209108D01*
X163316392Y-111081814D01*
X163250500Y-110967686D01*
X163157314Y-110874500D01*
X163098423Y-110840499D01*
X163043187Y-110808608D01*
X162979539Y-110791554D01*
X162915892Y-110774500D01*
X162784108Y-110774500D01*
X162656812Y-110808608D01*
X162542686Y-110874500D01*
X162542683Y-110874502D01*
X162512681Y-110904505D01*
X162451358Y-110937990D01*
X162381666Y-110933006D01*
X162337319Y-110904505D01*
X162307316Y-110874502D01*
X162307314Y-110874500D01*
X162248423Y-110840499D01*
X162193187Y-110808608D01*
X162129539Y-110791554D01*
X162065892Y-110774500D01*
X161934108Y-110774500D01*
X161806812Y-110808608D01*
X161692686Y-110874500D01*
X161692683Y-110874502D01*
X161637681Y-110929505D01*
X161576358Y-110962990D01*
X161506666Y-110958006D01*
X161462319Y-110929505D01*
X161407316Y-110874502D01*
X161407314Y-110874500D01*
X161348423Y-110840499D01*
X161293187Y-110808608D01*
X161229539Y-110791554D01*
X161165892Y-110774500D01*
X161034108Y-110774500D01*
X160906812Y-110808608D01*
X160792686Y-110874500D01*
X160792683Y-110874502D01*
X160699502Y-110967683D01*
X160699500Y-110967686D01*
X160633608Y-111081812D01*
X160600643Y-111204842D01*
X160599500Y-111209108D01*
X136926219Y-111209108D01*
X136961392Y-111148186D01*
X136995500Y-111020892D01*
X136995500Y-110889108D01*
X136961392Y-110761814D01*
X136895500Y-110647686D01*
X136802314Y-110554500D01*
X136745250Y-110521554D01*
X136688187Y-110488608D01*
X136624539Y-110471554D01*
X136560892Y-110454500D01*
X136429108Y-110454500D01*
X136301812Y-110488608D01*
X136187686Y-110554500D01*
X136187683Y-110554502D01*
X136094502Y-110647683D01*
X136094500Y-110647686D01*
X136028608Y-110761812D01*
X136007524Y-110840500D01*
X135994500Y-110889108D01*
X113448771Y-110889108D01*
X113453517Y-110874502D01*
X113463862Y-110842663D01*
X113486009Y-110774500D01*
X113502171Y-110724757D01*
X113529137Y-110554502D01*
X113530500Y-110545899D01*
X113530500Y-110364796D01*
X113516136Y-110274108D01*
X152039500Y-110274108D01*
X152039500Y-110405891D01*
X152073608Y-110533187D01*
X152106554Y-110590250D01*
X152139500Y-110647314D01*
X152232686Y-110740500D01*
X152346814Y-110806392D01*
X152474108Y-110840500D01*
X152474110Y-110840500D01*
X152605890Y-110840500D01*
X152605892Y-110840500D01*
X152733186Y-110806392D01*
X152847314Y-110740500D01*
X152940500Y-110647314D01*
X153006392Y-110533186D01*
X153040500Y-110405892D01*
X153040500Y-110274108D01*
X153006392Y-110146814D01*
X153006148Y-110146392D01*
X152968105Y-110080500D01*
X152940500Y-110032686D01*
X152847314Y-109939500D01*
X152787557Y-109904999D01*
X152733187Y-109873608D01*
X152653849Y-109852350D01*
X152605892Y-109839500D01*
X152474108Y-109839500D01*
X152346812Y-109873608D01*
X152232686Y-109939500D01*
X152232683Y-109939502D01*
X152139502Y-110032683D01*
X152139500Y-110032686D01*
X152073608Y-110146812D01*
X152039500Y-110274108D01*
X113516136Y-110274108D01*
X113514019Y-110260745D01*
X113502171Y-110185939D01*
X113446211Y-110013709D01*
X113446211Y-110013708D01*
X113408399Y-109939500D01*
X113363996Y-109852354D01*
X113350396Y-109833635D01*
X113257558Y-109705853D01*
X113257554Y-109705848D01*
X113165814Y-109614108D01*
X134619500Y-109614108D01*
X134619500Y-109745891D01*
X134653608Y-109873187D01*
X134671975Y-109904999D01*
X134719500Y-109987314D01*
X134812686Y-110080500D01*
X134926814Y-110146392D01*
X135054108Y-110180500D01*
X135054110Y-110180500D01*
X135185890Y-110180500D01*
X135185892Y-110180500D01*
X135313186Y-110146392D01*
X135427314Y-110080500D01*
X135520500Y-109987314D01*
X135586392Y-109873186D01*
X135620500Y-109745892D01*
X135620500Y-109614108D01*
X135586392Y-109486814D01*
X135520500Y-109372686D01*
X135427314Y-109279500D01*
X135370250Y-109246554D01*
X135313187Y-109213608D01*
X135204761Y-109184556D01*
X135185892Y-109179500D01*
X135054108Y-109179500D01*
X134926812Y-109213608D01*
X134812686Y-109279500D01*
X134812683Y-109279502D01*
X134719502Y-109372683D01*
X134719500Y-109372686D01*
X134653608Y-109486812D01*
X134619500Y-109614108D01*
X113165814Y-109614108D01*
X113129499Y-109577793D01*
X113129494Y-109577789D01*
X112982997Y-109471354D01*
X112982996Y-109471353D01*
X112982994Y-109471352D01*
X112931300Y-109445012D01*
X112821639Y-109389136D01*
X112821636Y-109389135D01*
X112649410Y-109333177D01*
X112470551Y-109304848D01*
X112470546Y-109304848D01*
X112289454Y-109304848D01*
X112289449Y-109304848D01*
X112110589Y-109333177D01*
X111938363Y-109389135D01*
X111938360Y-109389136D01*
X111777002Y-109471354D01*
X111630505Y-109577789D01*
X111630500Y-109577793D01*
X111502445Y-109705848D01*
X111502441Y-109705853D01*
X111396006Y-109852350D01*
X111313788Y-110013708D01*
X111313787Y-110013711D01*
X111257829Y-110185937D01*
X111229500Y-110364796D01*
X105500500Y-110364796D01*
X105500500Y-109039108D01*
X158819500Y-109039108D01*
X158819500Y-109170892D01*
X158826413Y-109196692D01*
X158853608Y-109298187D01*
X158857454Y-109304848D01*
X158919500Y-109412314D01*
X159012686Y-109505500D01*
X159126814Y-109571392D01*
X159254108Y-109605500D01*
X159254110Y-109605500D01*
X159385890Y-109605500D01*
X159385892Y-109605500D01*
X159513186Y-109571392D01*
X159627314Y-109505500D01*
X159720500Y-109412314D01*
X159786392Y-109298186D01*
X159820500Y-109170892D01*
X159820500Y-109039108D01*
X159786392Y-108911814D01*
X159720500Y-108797686D01*
X159669995Y-108747181D01*
X159636510Y-108685858D01*
X159638717Y-108655000D01*
X170880138Y-108655000D01*
X171683013Y-108655000D01*
X171665796Y-108664940D01*
X171609941Y-108720795D01*
X171570445Y-108789204D01*
X171550001Y-108865504D01*
X171550001Y-108944496D01*
X171570445Y-109020796D01*
X171609941Y-109089205D01*
X171665796Y-109145060D01*
X171683013Y-109155000D01*
X170880138Y-109155000D01*
X170888430Y-109196690D01*
X170888430Y-109196692D01*
X170963807Y-109378671D01*
X170963814Y-109378684D01*
X171073248Y-109542462D01*
X171073251Y-109542466D01*
X171212533Y-109681748D01*
X171212537Y-109681751D01*
X171376315Y-109791185D01*
X171376328Y-109791192D01*
X171558306Y-109866569D01*
X171558318Y-109866572D01*
X171751504Y-109904999D01*
X171751508Y-109905000D01*
X171950000Y-109905000D01*
X171950000Y-109205000D01*
X172450000Y-109205000D01*
X172450000Y-109905000D01*
X172648492Y-109905000D01*
X172648495Y-109904999D01*
X172841681Y-109866572D01*
X172841693Y-109866569D01*
X173023671Y-109791192D01*
X173023684Y-109791185D01*
X173187462Y-109681751D01*
X173187466Y-109681748D01*
X173326748Y-109542466D01*
X173326751Y-109542462D01*
X173436185Y-109378684D01*
X173436192Y-109378671D01*
X173511569Y-109196692D01*
X173511569Y-109196690D01*
X173519862Y-109155000D01*
X172716987Y-109155000D01*
X172734204Y-109145060D01*
X172790059Y-109089205D01*
X172829555Y-109020796D01*
X172849999Y-108944496D01*
X172849999Y-108865504D01*
X172829555Y-108789204D01*
X172790059Y-108720795D01*
X172734204Y-108664940D01*
X172716987Y-108655000D01*
X173519862Y-108655000D01*
X173511569Y-108613309D01*
X173511569Y-108613307D01*
X173436192Y-108431328D01*
X173436185Y-108431315D01*
X173326751Y-108267537D01*
X173326748Y-108267533D01*
X173187466Y-108128251D01*
X173187462Y-108128248D01*
X173023684Y-108018814D01*
X173023671Y-108018807D01*
X172841693Y-107943430D01*
X172841681Y-107943427D01*
X172648495Y-107905000D01*
X172450000Y-107905000D01*
X172450000Y-108605000D01*
X171950000Y-108605000D01*
X171950000Y-107905000D01*
X171751504Y-107905000D01*
X171558318Y-107943427D01*
X171558306Y-107943430D01*
X171376328Y-108018807D01*
X171376315Y-108018814D01*
X171212537Y-108128248D01*
X171212533Y-108128251D01*
X171073251Y-108267533D01*
X171073248Y-108267537D01*
X170963814Y-108431315D01*
X170963807Y-108431328D01*
X170888430Y-108613307D01*
X170888430Y-108613309D01*
X170880138Y-108655000D01*
X159638717Y-108655000D01*
X159641494Y-108616166D01*
X159683366Y-108560233D01*
X159748830Y-108535816D01*
X159757676Y-108535500D01*
X159765890Y-108535500D01*
X159765892Y-108535500D01*
X159893186Y-108501392D01*
X160007314Y-108435500D01*
X160100500Y-108342314D01*
X160166392Y-108228186D01*
X160200500Y-108100892D01*
X160200500Y-107969108D01*
X160166392Y-107841814D01*
X160158614Y-107828343D01*
X160147158Y-107808500D01*
X160100500Y-107727686D01*
X160007314Y-107634500D01*
X159949613Y-107601186D01*
X159893187Y-107568608D01*
X159826591Y-107550764D01*
X159765892Y-107534500D01*
X159634108Y-107534500D01*
X159506812Y-107568608D01*
X159392686Y-107634500D01*
X159392683Y-107634502D01*
X159299502Y-107727683D01*
X159299500Y-107727686D01*
X159233608Y-107841812D01*
X159199500Y-107969108D01*
X159199500Y-108100891D01*
X159233608Y-108228187D01*
X159256325Y-108267533D01*
X159299500Y-108342314D01*
X159299502Y-108342316D01*
X159350005Y-108392819D01*
X159383490Y-108454142D01*
X159378506Y-108523834D01*
X159336634Y-108579767D01*
X159271170Y-108604184D01*
X159262324Y-108604500D01*
X159254108Y-108604500D01*
X159126812Y-108638608D01*
X159012686Y-108704500D01*
X159012683Y-108704502D01*
X158919502Y-108797683D01*
X158919500Y-108797686D01*
X158853608Y-108911812D01*
X158844851Y-108944496D01*
X158819500Y-109039108D01*
X105500500Y-109039108D01*
X105500500Y-107764108D01*
X121144500Y-107764108D01*
X121144500Y-107895892D01*
X121160472Y-107955500D01*
X121178608Y-108023187D01*
X121211554Y-108080250D01*
X121244500Y-108137314D01*
X121337686Y-108230500D01*
X121451814Y-108296392D01*
X121579108Y-108330500D01*
X121579110Y-108330500D01*
X121710890Y-108330500D01*
X121710892Y-108330500D01*
X121838186Y-108296392D01*
X121952314Y-108230500D01*
X122045500Y-108137314D01*
X122111392Y-108023186D01*
X122145500Y-107895892D01*
X122145500Y-107764108D01*
X122111392Y-107636814D01*
X122045500Y-107522686D01*
X122011922Y-107489108D01*
X135129500Y-107489108D01*
X135129500Y-107620891D01*
X135163608Y-107748187D01*
X135196554Y-107805250D01*
X135229500Y-107862314D01*
X135322686Y-107955500D01*
X135419300Y-108011280D01*
X135432336Y-108018807D01*
X135436814Y-108021392D01*
X135564108Y-108055500D01*
X135564110Y-108055500D01*
X135695890Y-108055500D01*
X135695892Y-108055500D01*
X135823186Y-108021392D01*
X135937314Y-107955500D01*
X136030500Y-107862314D01*
X136050113Y-107828342D01*
X136100680Y-107780128D01*
X136169287Y-107766904D01*
X136234151Y-107792872D01*
X136264886Y-107828342D01*
X136284500Y-107862314D01*
X136377686Y-107955500D01*
X136474300Y-108011280D01*
X136487336Y-108018807D01*
X136491814Y-108021392D01*
X136619108Y-108055500D01*
X136619110Y-108055500D01*
X136750890Y-108055500D01*
X136750892Y-108055500D01*
X136878186Y-108021392D01*
X136992314Y-107955500D01*
X137085500Y-107862314D01*
X137105113Y-107828342D01*
X137155680Y-107780128D01*
X137224287Y-107766904D01*
X137289151Y-107792872D01*
X137319886Y-107828342D01*
X137339500Y-107862314D01*
X137432686Y-107955500D01*
X137529300Y-108011280D01*
X137542336Y-108018807D01*
X137546814Y-108021392D01*
X137674108Y-108055500D01*
X137674110Y-108055500D01*
X137805890Y-108055500D01*
X137805892Y-108055500D01*
X137933186Y-108021392D01*
X138047314Y-107955500D01*
X138140500Y-107862314D01*
X138160113Y-107828342D01*
X138210680Y-107780128D01*
X138279287Y-107766904D01*
X138344151Y-107792872D01*
X138374886Y-107828342D01*
X138394500Y-107862314D01*
X138487686Y-107955500D01*
X138584300Y-108011280D01*
X138597336Y-108018807D01*
X138601814Y-108021392D01*
X138729108Y-108055500D01*
X138729110Y-108055500D01*
X138860890Y-108055500D01*
X138860892Y-108055500D01*
X138988186Y-108021392D01*
X139102314Y-107955500D01*
X139195500Y-107862314D01*
X139261392Y-107748186D01*
X139295500Y-107620892D01*
X139295500Y-107489108D01*
X139261392Y-107361814D01*
X139250015Y-107342108D01*
X164999500Y-107342108D01*
X164999500Y-107473891D01*
X165033608Y-107601187D01*
X165044985Y-107620892D01*
X165099500Y-107715314D01*
X165192686Y-107808500D01*
X165306814Y-107874392D01*
X165434108Y-107908500D01*
X165434110Y-107908500D01*
X165565890Y-107908500D01*
X165565892Y-107908500D01*
X165693186Y-107874392D01*
X165807314Y-107808500D01*
X165900500Y-107715314D01*
X165966392Y-107601186D01*
X166000500Y-107473892D01*
X166000500Y-107399234D01*
X167974500Y-107399234D01*
X167974500Y-107550765D01*
X168013719Y-107697136D01*
X168043193Y-107748186D01*
X168089485Y-107828365D01*
X168196635Y-107935515D01*
X168327865Y-108011281D01*
X168474234Y-108050500D01*
X168474236Y-108050500D01*
X168625764Y-108050500D01*
X168625766Y-108050500D01*
X168772135Y-108011281D01*
X168903365Y-107935515D01*
X169010515Y-107828365D01*
X169086281Y-107697135D01*
X169125500Y-107550766D01*
X169125500Y-107399234D01*
X169086281Y-107252865D01*
X169010515Y-107121635D01*
X168903365Y-107014485D01*
X168837750Y-106976602D01*
X168772136Y-106938719D01*
X168698950Y-106919109D01*
X168625766Y-106899500D01*
X168474234Y-106899500D01*
X168327863Y-106938719D01*
X168196635Y-107014485D01*
X168196632Y-107014487D01*
X168089487Y-107121632D01*
X168089485Y-107121635D01*
X168013719Y-107252863D01*
X167974500Y-107399234D01*
X166000500Y-107399234D01*
X166000500Y-107342108D01*
X165966392Y-107214814D01*
X165900500Y-107100686D01*
X165807314Y-107007500D01*
X165750250Y-106974554D01*
X165693187Y-106941608D01*
X165629539Y-106924554D01*
X165565892Y-106907500D01*
X165434108Y-106907500D01*
X165306812Y-106941608D01*
X165192686Y-107007500D01*
X165192683Y-107007502D01*
X165099502Y-107100683D01*
X165099500Y-107100686D01*
X165033608Y-107214812D01*
X164999500Y-107342108D01*
X139250015Y-107342108D01*
X139195500Y-107247686D01*
X139102314Y-107154500D01*
X139009106Y-107100686D01*
X138988187Y-107088608D01*
X138924539Y-107071554D01*
X138860892Y-107054500D01*
X138729108Y-107054500D01*
X138601812Y-107088608D01*
X138487686Y-107154500D01*
X138487683Y-107154502D01*
X138394502Y-107247683D01*
X138394500Y-107247686D01*
X138374887Y-107281657D01*
X138324319Y-107329872D01*
X138255712Y-107343094D01*
X138190847Y-107317126D01*
X138160113Y-107281657D01*
X138140500Y-107247686D01*
X138047314Y-107154500D01*
X137954106Y-107100686D01*
X137933187Y-107088608D01*
X137869539Y-107071554D01*
X137805892Y-107054500D01*
X137674108Y-107054500D01*
X137546812Y-107088608D01*
X137432686Y-107154500D01*
X137432683Y-107154502D01*
X137339502Y-107247683D01*
X137339500Y-107247686D01*
X137319887Y-107281657D01*
X137269319Y-107329872D01*
X137200712Y-107343094D01*
X137135847Y-107317126D01*
X137105113Y-107281657D01*
X137085500Y-107247686D01*
X136992314Y-107154500D01*
X136899106Y-107100686D01*
X136878187Y-107088608D01*
X136814539Y-107071554D01*
X136750892Y-107054500D01*
X136619108Y-107054500D01*
X136491812Y-107088608D01*
X136377686Y-107154500D01*
X136377683Y-107154502D01*
X136284502Y-107247683D01*
X136284500Y-107247686D01*
X136264887Y-107281657D01*
X136214319Y-107329872D01*
X136145712Y-107343094D01*
X136080847Y-107317126D01*
X136050113Y-107281657D01*
X136030500Y-107247686D01*
X135937314Y-107154500D01*
X135844106Y-107100686D01*
X135823187Y-107088608D01*
X135759539Y-107071554D01*
X135695892Y-107054500D01*
X135564108Y-107054500D01*
X135436812Y-107088608D01*
X135322686Y-107154500D01*
X135322683Y-107154502D01*
X135229502Y-107247683D01*
X135229500Y-107247686D01*
X135163608Y-107361812D01*
X135129500Y-107489108D01*
X122011922Y-107489108D01*
X121952314Y-107429500D01*
X121895250Y-107396554D01*
X121838187Y-107363608D01*
X121761626Y-107343094D01*
X121710892Y-107329500D01*
X121579108Y-107329500D01*
X121451812Y-107363608D01*
X121337686Y-107429500D01*
X121337683Y-107429502D01*
X121244502Y-107522683D01*
X121244500Y-107522686D01*
X121178608Y-107636812D01*
X121154260Y-107727683D01*
X121144500Y-107764108D01*
X105500500Y-107764108D01*
X105500500Y-105369108D01*
X162349500Y-105369108D01*
X162349500Y-105500891D01*
X162383608Y-105628187D01*
X162416554Y-105685250D01*
X162449500Y-105742314D01*
X162542686Y-105835500D01*
X162656814Y-105901392D01*
X162784108Y-105935500D01*
X162784110Y-105935500D01*
X162915890Y-105935500D01*
X162915892Y-105935500D01*
X163043186Y-105901392D01*
X163157314Y-105835500D01*
X163250500Y-105742314D01*
X163316392Y-105628186D01*
X163350500Y-105500892D01*
X163350500Y-105369108D01*
X163316392Y-105241814D01*
X163250500Y-105127686D01*
X163157314Y-105034500D01*
X163100250Y-105001554D01*
X163043187Y-104968608D01*
X162979539Y-104951554D01*
X162915892Y-104934500D01*
X162784108Y-104934500D01*
X162656812Y-104968608D01*
X162542686Y-105034500D01*
X162542683Y-105034502D01*
X162449502Y-105127683D01*
X162449500Y-105127686D01*
X162383608Y-105241812D01*
X162349500Y-105369108D01*
X105500500Y-105369108D01*
X105500500Y-104124343D01*
X111679499Y-104124343D01*
X111706418Y-104259670D01*
X111706421Y-104259680D01*
X111759221Y-104387152D01*
X111759228Y-104387165D01*
X111835885Y-104501889D01*
X111835888Y-104501893D01*
X111933454Y-104599459D01*
X111933458Y-104599462D01*
X112048182Y-104676119D01*
X112048195Y-104676126D01*
X112175667Y-104728926D01*
X112175672Y-104728928D01*
X112175676Y-104728928D01*
X112175677Y-104728929D01*
X112311004Y-104755848D01*
X112311007Y-104755848D01*
X112448995Y-104755848D01*
X112540041Y-104737737D01*
X112584328Y-104728928D01*
X112711811Y-104676123D01*
X112826542Y-104599462D01*
X112924114Y-104501890D01*
X113000775Y-104387159D01*
X113039318Y-104294108D01*
X149144500Y-104294108D01*
X149144500Y-104425891D01*
X149178608Y-104553187D01*
X149211554Y-104610250D01*
X149244500Y-104667314D01*
X149337686Y-104760500D01*
X149451814Y-104826392D01*
X149579108Y-104860500D01*
X149579110Y-104860500D01*
X149710890Y-104860500D01*
X149710892Y-104860500D01*
X149838186Y-104826392D01*
X149952314Y-104760500D01*
X150045500Y-104667314D01*
X150111392Y-104553186D01*
X150145500Y-104425892D01*
X150145500Y-104294108D01*
X150111392Y-104166814D01*
X150045500Y-104052686D01*
X149952314Y-103959500D01*
X149895250Y-103926554D01*
X149838187Y-103893608D01*
X149774539Y-103876554D01*
X149710892Y-103859500D01*
X149579108Y-103859500D01*
X149451812Y-103893608D01*
X149337686Y-103959500D01*
X149337683Y-103959502D01*
X149244502Y-104052683D01*
X149244500Y-104052686D01*
X149178608Y-104166812D01*
X149144500Y-104294108D01*
X113039318Y-104294108D01*
X113053580Y-104259676D01*
X113063362Y-104210499D01*
X113080500Y-104124343D01*
X113080500Y-103986352D01*
X113053581Y-103851025D01*
X113053580Y-103851024D01*
X113053580Y-103851020D01*
X113027554Y-103788187D01*
X113000778Y-103723543D01*
X113000771Y-103723530D01*
X112924114Y-103608806D01*
X112924111Y-103608802D01*
X112844417Y-103529108D01*
X144454500Y-103529108D01*
X144454500Y-103660891D01*
X144488608Y-103788187D01*
X144521554Y-103845250D01*
X144554500Y-103902314D01*
X144647686Y-103995500D01*
X144761814Y-104061392D01*
X144889108Y-104095500D01*
X144889110Y-104095500D01*
X145020890Y-104095500D01*
X145020892Y-104095500D01*
X145148186Y-104061392D01*
X145262314Y-103995500D01*
X145355500Y-103902314D01*
X145421392Y-103788186D01*
X145455500Y-103660892D01*
X145455500Y-103644108D01*
X154294500Y-103644108D01*
X154294500Y-103775892D01*
X154311554Y-103839539D01*
X154328608Y-103903187D01*
X154361121Y-103959500D01*
X154394500Y-104017314D01*
X154487686Y-104110500D01*
X154601814Y-104176392D01*
X154729108Y-104210500D01*
X154729110Y-104210500D01*
X154860890Y-104210500D01*
X154860892Y-104210500D01*
X154988186Y-104176392D01*
X155102314Y-104110500D01*
X155195500Y-104017314D01*
X155261392Y-103903186D01*
X155295500Y-103775892D01*
X155295500Y-103644108D01*
X155261392Y-103516814D01*
X155195500Y-103402686D01*
X155102314Y-103309500D01*
X155045250Y-103276554D01*
X154988187Y-103243608D01*
X154924539Y-103226554D01*
X154860892Y-103209500D01*
X154729108Y-103209500D01*
X154601812Y-103243608D01*
X154487686Y-103309500D01*
X154487683Y-103309502D01*
X154394502Y-103402683D01*
X154394500Y-103402686D01*
X154328608Y-103516812D01*
X154325313Y-103529110D01*
X154294500Y-103644108D01*
X145455500Y-103644108D01*
X145455500Y-103529108D01*
X145421392Y-103401814D01*
X145355500Y-103287686D01*
X145262314Y-103194500D01*
X145205250Y-103161554D01*
X145148187Y-103128608D01*
X145084539Y-103111554D01*
X145020892Y-103094500D01*
X144889108Y-103094500D01*
X144761812Y-103128608D01*
X144647686Y-103194500D01*
X144647683Y-103194502D01*
X144554502Y-103287683D01*
X144554500Y-103287686D01*
X144488608Y-103401812D01*
X144454500Y-103529108D01*
X112844417Y-103529108D01*
X112826545Y-103511236D01*
X112826541Y-103511233D01*
X112711817Y-103434576D01*
X112711804Y-103434569D01*
X112584332Y-103381769D01*
X112584322Y-103381766D01*
X112448995Y-103354848D01*
X112448993Y-103354848D01*
X112311007Y-103354848D01*
X112311005Y-103354848D01*
X112175677Y-103381766D01*
X112175667Y-103381769D01*
X112048195Y-103434569D01*
X112048182Y-103434576D01*
X111933458Y-103511233D01*
X111933454Y-103511236D01*
X111835888Y-103608802D01*
X111835885Y-103608806D01*
X111759228Y-103723530D01*
X111759221Y-103723543D01*
X111706421Y-103851015D01*
X111706418Y-103851025D01*
X111679500Y-103986352D01*
X111679500Y-103986355D01*
X111679500Y-104124341D01*
X111679500Y-104124343D01*
X111679499Y-104124343D01*
X105500500Y-104124343D01*
X105500500Y-102874108D01*
X135839500Y-102874108D01*
X135839500Y-103005891D01*
X135873608Y-103133187D01*
X135899589Y-103178186D01*
X135939500Y-103247314D01*
X136032686Y-103340500D01*
X136146814Y-103406392D01*
X136274108Y-103440500D01*
X136274110Y-103440500D01*
X136405890Y-103440500D01*
X136405892Y-103440500D01*
X136533186Y-103406392D01*
X136647314Y-103340500D01*
X136740500Y-103247314D01*
X136806392Y-103133186D01*
X136840500Y-103005892D01*
X136840500Y-102874108D01*
X136806392Y-102746814D01*
X136740500Y-102632686D01*
X136647314Y-102539500D01*
X136588423Y-102505499D01*
X136533187Y-102473608D01*
X136509349Y-102467221D01*
X136405892Y-102439500D01*
X136274108Y-102439500D01*
X136146812Y-102473608D01*
X136032686Y-102539500D01*
X136032683Y-102539502D01*
X135939502Y-102632683D01*
X135939500Y-102632686D01*
X135873608Y-102746812D01*
X135839500Y-102874108D01*
X105500500Y-102874108D01*
X105500500Y-102344108D01*
X150319500Y-102344108D01*
X150319500Y-102475892D01*
X150335472Y-102535500D01*
X150353608Y-102603187D01*
X150381135Y-102650864D01*
X150419500Y-102717314D01*
X150512686Y-102810500D01*
X150626814Y-102876392D01*
X150754108Y-102910500D01*
X150754110Y-102910500D01*
X150885890Y-102910500D01*
X150885892Y-102910500D01*
X151013186Y-102876392D01*
X151127314Y-102810500D01*
X151220500Y-102717314D01*
X151286392Y-102603186D01*
X151320500Y-102475892D01*
X151320500Y-102344108D01*
X151286392Y-102216814D01*
X151286148Y-102216392D01*
X151277198Y-102200890D01*
X151220500Y-102102686D01*
X151127314Y-102009500D01*
X151070250Y-101976554D01*
X151013187Y-101943608D01*
X150914386Y-101917135D01*
X150885892Y-101909500D01*
X150754108Y-101909500D01*
X150626812Y-101943608D01*
X150512686Y-102009500D01*
X150512683Y-102009502D01*
X150419502Y-102102683D01*
X150419500Y-102102686D01*
X150353608Y-102216812D01*
X150341416Y-102262314D01*
X150319500Y-102344108D01*
X105500500Y-102344108D01*
X105500500Y-101684108D01*
X153619500Y-101684108D01*
X153619500Y-101815892D01*
X153622660Y-101827686D01*
X153653608Y-101943187D01*
X153686554Y-102000250D01*
X153719500Y-102057314D01*
X153812686Y-102150500D01*
X153926814Y-102216392D01*
X154054108Y-102250500D01*
X154054110Y-102250500D01*
X154185890Y-102250500D01*
X154185892Y-102250500D01*
X154313186Y-102216392D01*
X154427314Y-102150500D01*
X154520500Y-102057314D01*
X154586392Y-101943186D01*
X154600882Y-101889108D01*
X160879500Y-101889108D01*
X160879500Y-102020891D01*
X160913608Y-102148187D01*
X160917839Y-102155515D01*
X160979500Y-102262314D01*
X161072686Y-102355500D01*
X161186814Y-102421392D01*
X161314108Y-102455500D01*
X161314110Y-102455500D01*
X161445890Y-102455500D01*
X161445892Y-102455500D01*
X161573186Y-102421392D01*
X161687314Y-102355500D01*
X161780500Y-102262314D01*
X161846392Y-102148186D01*
X161867581Y-102069108D01*
X164399500Y-102069108D01*
X164399500Y-102200892D01*
X164407643Y-102231281D01*
X164433608Y-102328187D01*
X164466554Y-102385250D01*
X164499500Y-102442314D01*
X164592686Y-102535500D01*
X164706814Y-102601392D01*
X164755737Y-102614500D01*
X164815397Y-102650864D01*
X164845927Y-102713711D01*
X164837633Y-102783087D01*
X164835251Y-102787845D01*
X164833609Y-102791811D01*
X164833609Y-102791812D01*
X164833608Y-102791814D01*
X164828601Y-102810500D01*
X164799500Y-102919108D01*
X164799500Y-103050891D01*
X164833608Y-103178187D01*
X164843027Y-103194500D01*
X164899500Y-103292314D01*
X164992686Y-103385500D01*
X165106814Y-103451392D01*
X165234108Y-103485500D01*
X165234110Y-103485500D01*
X165365890Y-103485500D01*
X165365892Y-103485500D01*
X165493186Y-103451392D01*
X165607314Y-103385500D01*
X165700500Y-103292314D01*
X165766392Y-103178186D01*
X165800500Y-103050892D01*
X165800500Y-102919108D01*
X165766392Y-102791814D01*
X165764100Y-102787845D01*
X165723379Y-102717314D01*
X165700500Y-102677686D01*
X165607314Y-102584500D01*
X165493186Y-102518608D01*
X165444260Y-102505498D01*
X165384601Y-102469134D01*
X165354072Y-102406287D01*
X165362367Y-102336911D01*
X165364748Y-102332155D01*
X165366387Y-102328193D01*
X165366392Y-102328186D01*
X165400500Y-102200892D01*
X165400500Y-102069108D01*
X165366392Y-101941814D01*
X165300500Y-101827686D01*
X165207314Y-101734500D01*
X165139499Y-101695347D01*
X165093187Y-101668608D01*
X165015092Y-101647683D01*
X164965892Y-101634500D01*
X164834108Y-101634500D01*
X164706812Y-101668608D01*
X164592686Y-101734500D01*
X164592683Y-101734502D01*
X164499502Y-101827683D01*
X164499500Y-101827686D01*
X164433608Y-101941812D01*
X164412419Y-102020892D01*
X164399500Y-102069108D01*
X161867581Y-102069108D01*
X161880500Y-102020892D01*
X161880500Y-101889108D01*
X161846392Y-101761814D01*
X161780500Y-101647686D01*
X161752048Y-101619234D01*
X167974500Y-101619234D01*
X167974500Y-101770766D01*
X167994109Y-101843950D01*
X168013719Y-101917136D01*
X168028760Y-101943187D01*
X168089485Y-102048365D01*
X168196635Y-102155515D01*
X168327865Y-102231281D01*
X168474234Y-102270500D01*
X168474236Y-102270500D01*
X168625764Y-102270500D01*
X168625766Y-102270500D01*
X168772135Y-102231281D01*
X168903365Y-102155515D01*
X169010515Y-102048365D01*
X169086281Y-101917135D01*
X169125500Y-101770766D01*
X169125500Y-101619234D01*
X169086281Y-101472865D01*
X169010515Y-101341635D01*
X168903365Y-101234485D01*
X168837750Y-101196602D01*
X168772136Y-101158719D01*
X168698950Y-101139109D01*
X168625766Y-101119500D01*
X168474234Y-101119500D01*
X168327863Y-101158719D01*
X168196635Y-101234485D01*
X168196632Y-101234487D01*
X168089487Y-101341632D01*
X168089485Y-101341635D01*
X168013719Y-101472863D01*
X167991226Y-101556812D01*
X167974500Y-101619234D01*
X161752048Y-101619234D01*
X161687314Y-101554500D01*
X161630250Y-101521554D01*
X161573187Y-101488608D01*
X161509539Y-101471554D01*
X161445892Y-101454500D01*
X161314108Y-101454500D01*
X161186812Y-101488608D01*
X161072686Y-101554500D01*
X161072683Y-101554502D01*
X160979502Y-101647683D01*
X160979500Y-101647686D01*
X160913608Y-101761812D01*
X160879500Y-101889108D01*
X154600882Y-101889108D01*
X154620500Y-101815892D01*
X154620500Y-101684108D01*
X154586392Y-101556814D01*
X154520500Y-101442686D01*
X154427314Y-101349500D01*
X154370250Y-101316554D01*
X154313187Y-101283608D01*
X154243736Y-101264999D01*
X154185892Y-101249500D01*
X154054108Y-101249500D01*
X153926812Y-101283608D01*
X153812686Y-101349500D01*
X153812683Y-101349502D01*
X153719502Y-101442683D01*
X153719500Y-101442686D01*
X153653608Y-101556812D01*
X153636882Y-101619236D01*
X153619500Y-101684108D01*
X105500500Y-101684108D01*
X105500500Y-101034108D01*
X150149500Y-101034108D01*
X150149500Y-101165891D01*
X150183608Y-101293187D01*
X150211578Y-101341632D01*
X150249500Y-101407314D01*
X150342686Y-101500500D01*
X150436217Y-101554500D01*
X150456810Y-101566390D01*
X150456814Y-101566392D01*
X150584108Y-101600500D01*
X150584110Y-101600500D01*
X150715890Y-101600500D01*
X150715892Y-101600500D01*
X150843186Y-101566392D01*
X150957314Y-101500500D01*
X151050500Y-101407314D01*
X151116392Y-101293186D01*
X151150500Y-101165892D01*
X151150500Y-101034108D01*
X151116392Y-100906814D01*
X151050500Y-100792686D01*
X150957314Y-100699500D01*
X150900250Y-100666554D01*
X150843187Y-100633608D01*
X150766969Y-100613186D01*
X150715892Y-100599500D01*
X150584108Y-100599500D01*
X150456812Y-100633608D01*
X150342686Y-100699500D01*
X150342683Y-100699502D01*
X150249502Y-100792683D01*
X150249500Y-100792686D01*
X150183608Y-100906812D01*
X150149500Y-101034108D01*
X105500500Y-101034108D01*
X105500500Y-100354108D01*
X125539500Y-100354108D01*
X125539500Y-100485892D01*
X125555219Y-100544556D01*
X125573608Y-100613187D01*
X125606554Y-100670250D01*
X125639500Y-100727314D01*
X125732686Y-100820500D01*
X125846814Y-100886392D01*
X125974108Y-100920500D01*
X125974110Y-100920500D01*
X126105890Y-100920500D01*
X126105892Y-100920500D01*
X126233186Y-100886392D01*
X126347314Y-100820500D01*
X126440500Y-100727314D01*
X126506392Y-100613186D01*
X126540500Y-100485892D01*
X126540500Y-100354108D01*
X126506392Y-100226814D01*
X126440500Y-100112686D01*
X126347314Y-100019500D01*
X126267306Y-99973307D01*
X126233187Y-99953608D01*
X126169539Y-99936554D01*
X126105892Y-99919500D01*
X125974108Y-99919500D01*
X125846812Y-99953608D01*
X125732686Y-100019500D01*
X125732683Y-100019502D01*
X125639502Y-100112683D01*
X125639500Y-100112686D01*
X125573608Y-100226812D01*
X125552524Y-100305500D01*
X125539500Y-100354108D01*
X105500500Y-100354108D01*
X105500500Y-99739108D01*
X141794500Y-99739108D01*
X141794500Y-99870891D01*
X141828608Y-99998187D01*
X141844054Y-100024940D01*
X141894500Y-100112314D01*
X141987686Y-100205500D01*
X142101814Y-100271392D01*
X142229108Y-100305500D01*
X142229110Y-100305500D01*
X142360890Y-100305500D01*
X142360892Y-100305500D01*
X142488186Y-100271392D01*
X142602314Y-100205500D01*
X142695500Y-100112314D01*
X142751684Y-100015000D01*
X170880138Y-100015000D01*
X171683013Y-100015000D01*
X171665796Y-100024940D01*
X171609941Y-100080795D01*
X171570445Y-100149204D01*
X171550001Y-100225504D01*
X171550001Y-100304496D01*
X171570445Y-100380796D01*
X171609941Y-100449205D01*
X171665796Y-100505060D01*
X171683013Y-100515000D01*
X170880138Y-100515000D01*
X170888430Y-100556690D01*
X170888430Y-100556692D01*
X170963807Y-100738671D01*
X170963814Y-100738684D01*
X171073248Y-100902462D01*
X171073251Y-100902466D01*
X171212533Y-101041748D01*
X171212537Y-101041751D01*
X171376315Y-101151185D01*
X171376328Y-101151192D01*
X171558306Y-101226569D01*
X171558318Y-101226572D01*
X171751504Y-101264999D01*
X171751508Y-101265000D01*
X171950000Y-101265000D01*
X171950000Y-100565000D01*
X172450000Y-100565000D01*
X172450000Y-101265000D01*
X172648492Y-101265000D01*
X172648495Y-101264999D01*
X172841681Y-101226572D01*
X172841693Y-101226569D01*
X173023671Y-101151192D01*
X173023684Y-101151185D01*
X173187462Y-101041751D01*
X173187466Y-101041748D01*
X173326748Y-100902466D01*
X173326751Y-100902462D01*
X173436185Y-100738684D01*
X173436192Y-100738671D01*
X173511569Y-100556692D01*
X173511569Y-100556690D01*
X173519862Y-100515000D01*
X172716987Y-100515000D01*
X172734204Y-100505060D01*
X172790059Y-100449205D01*
X172829555Y-100380796D01*
X172849999Y-100304496D01*
X172849999Y-100225504D01*
X172829555Y-100149204D01*
X172790059Y-100080795D01*
X172734204Y-100024940D01*
X172716987Y-100015000D01*
X173519862Y-100015000D01*
X173511569Y-99973309D01*
X173511569Y-99973307D01*
X173436192Y-99791328D01*
X173436185Y-99791315D01*
X173326751Y-99627537D01*
X173326748Y-99627533D01*
X173187466Y-99488251D01*
X173187462Y-99488248D01*
X173023684Y-99378814D01*
X173023671Y-99378807D01*
X172841693Y-99303430D01*
X172841681Y-99303427D01*
X172648495Y-99265000D01*
X172450000Y-99265000D01*
X172450000Y-99965000D01*
X171950000Y-99965000D01*
X171950000Y-99265000D01*
X171751504Y-99265000D01*
X171558318Y-99303427D01*
X171558306Y-99303430D01*
X171376328Y-99378807D01*
X171376315Y-99378814D01*
X171212537Y-99488248D01*
X171212533Y-99488251D01*
X171073251Y-99627533D01*
X171073248Y-99627537D01*
X170963814Y-99791315D01*
X170963807Y-99791328D01*
X170888430Y-99973307D01*
X170888430Y-99973309D01*
X170880138Y-100015000D01*
X142751684Y-100015000D01*
X142761392Y-99998186D01*
X142795500Y-99870892D01*
X142795500Y-99739108D01*
X142761392Y-99611814D01*
X142695500Y-99497686D01*
X142602314Y-99404500D01*
X142545250Y-99371554D01*
X142488187Y-99338608D01*
X142424539Y-99321554D01*
X142360892Y-99304500D01*
X142229108Y-99304500D01*
X142101812Y-99338608D01*
X141987686Y-99404500D01*
X141987683Y-99404502D01*
X141894502Y-99497683D01*
X141894500Y-99497686D01*
X141828608Y-99611812D01*
X141794500Y-99739108D01*
X105500500Y-99739108D01*
X105500500Y-99066260D01*
X114499500Y-99066260D01*
X114499500Y-99198043D01*
X114533608Y-99325339D01*
X114541269Y-99338608D01*
X114599500Y-99439466D01*
X114692686Y-99532652D01*
X114806814Y-99598544D01*
X114934108Y-99632652D01*
X114934110Y-99632652D01*
X115065890Y-99632652D01*
X115065892Y-99632652D01*
X115193186Y-99598544D01*
X115307314Y-99532652D01*
X115400500Y-99439466D01*
X115466392Y-99325338D01*
X115500500Y-99198044D01*
X115500500Y-99066260D01*
X115466392Y-98938966D01*
X115400500Y-98824838D01*
X115307314Y-98731652D01*
X115250250Y-98698706D01*
X115193187Y-98665760D01*
X115129539Y-98648706D01*
X115065892Y-98631652D01*
X114934108Y-98631652D01*
X114806812Y-98665760D01*
X114692686Y-98731652D01*
X114692683Y-98731654D01*
X114599502Y-98824835D01*
X114599500Y-98824838D01*
X114533608Y-98938964D01*
X114499500Y-99066260D01*
X105500500Y-99066260D01*
X105500500Y-97566260D01*
X120524500Y-97566260D01*
X120524500Y-97698044D01*
X120531199Y-97723044D01*
X120558608Y-97825339D01*
X120573042Y-97850339D01*
X120624500Y-97939466D01*
X120717686Y-98032652D01*
X120788513Y-98073544D01*
X120823756Y-98093892D01*
X120831814Y-98098544D01*
X120959108Y-98132652D01*
X120959110Y-98132652D01*
X121090890Y-98132652D01*
X121090892Y-98132652D01*
X121218186Y-98098544D01*
X121332314Y-98032652D01*
X121425500Y-97939466D01*
X121491392Y-97825338D01*
X121525500Y-97698044D01*
X121525500Y-97566260D01*
X121518801Y-97541260D01*
X127799500Y-97541260D01*
X127799500Y-97673044D01*
X127806199Y-97698044D01*
X127833608Y-97800339D01*
X127848042Y-97825339D01*
X127899500Y-97914466D01*
X127992686Y-98007652D01*
X128106814Y-98073544D01*
X128234108Y-98107652D01*
X128234110Y-98107652D01*
X128365890Y-98107652D01*
X128365892Y-98107652D01*
X128493186Y-98073544D01*
X128607314Y-98007652D01*
X128700500Y-97914466D01*
X128766392Y-97800338D01*
X128800500Y-97673044D01*
X128800500Y-97559108D01*
X134899500Y-97559108D01*
X134899500Y-97690892D01*
X134908115Y-97723043D01*
X134933608Y-97818187D01*
X134966554Y-97875250D01*
X134999500Y-97932314D01*
X135092686Y-98025500D01*
X135206814Y-98091392D01*
X135334108Y-98125500D01*
X135334110Y-98125500D01*
X135465890Y-98125500D01*
X135465892Y-98125500D01*
X135593186Y-98091392D01*
X135707314Y-98025500D01*
X135800500Y-97932314D01*
X135866392Y-97818186D01*
X135900500Y-97690892D01*
X135900500Y-97566260D01*
X141974500Y-97566260D01*
X141974500Y-97698044D01*
X141981199Y-97723044D01*
X142008608Y-97825339D01*
X142023042Y-97850339D01*
X142074500Y-97939466D01*
X142167686Y-98032652D01*
X142238513Y-98073544D01*
X142273756Y-98093892D01*
X142281814Y-98098544D01*
X142409108Y-98132652D01*
X142409110Y-98132652D01*
X142540890Y-98132652D01*
X142540892Y-98132652D01*
X142668186Y-98098544D01*
X142782314Y-98032652D01*
X142875500Y-97939466D01*
X142941392Y-97825338D01*
X142975500Y-97698044D01*
X142975500Y-97591260D01*
X148474500Y-97591260D01*
X148474500Y-97723043D01*
X148508608Y-97850339D01*
X148541554Y-97907402D01*
X148574500Y-97964466D01*
X148667686Y-98057652D01*
X148781814Y-98123544D01*
X148909108Y-98157652D01*
X148909110Y-98157652D01*
X149040890Y-98157652D01*
X149040892Y-98157652D01*
X149168186Y-98123544D01*
X149282314Y-98057652D01*
X149375500Y-97964466D01*
X149441392Y-97850338D01*
X149475500Y-97723044D01*
X149475500Y-97591260D01*
X149467555Y-97561608D01*
X155949500Y-97561608D01*
X155949500Y-97693392D01*
X155957445Y-97723042D01*
X155983608Y-97820687D01*
X156000728Y-97850339D01*
X156049500Y-97934814D01*
X156142686Y-98028000D01*
X156256814Y-98093892D01*
X156384108Y-98128000D01*
X156384110Y-98128000D01*
X156515890Y-98128000D01*
X156515892Y-98128000D01*
X156643186Y-98093892D01*
X156757314Y-98028000D01*
X156850500Y-97934814D01*
X156916392Y-97820686D01*
X156950500Y-97693392D01*
X156950500Y-97566260D01*
X163299500Y-97566260D01*
X163299500Y-97698044D01*
X163306199Y-97723044D01*
X163333608Y-97825339D01*
X163348042Y-97850339D01*
X163399500Y-97939466D01*
X163492686Y-98032652D01*
X163563513Y-98073544D01*
X163598756Y-98093892D01*
X163606814Y-98098544D01*
X163734108Y-98132652D01*
X163734110Y-98132652D01*
X163865890Y-98132652D01*
X163865892Y-98132652D01*
X163993186Y-98098544D01*
X164107314Y-98032652D01*
X164200500Y-97939466D01*
X164266392Y-97825338D01*
X164300500Y-97698044D01*
X164300500Y-97566260D01*
X164266392Y-97438966D01*
X164200500Y-97324838D01*
X164107314Y-97231652D01*
X164036487Y-97190760D01*
X163993187Y-97165760D01*
X163929539Y-97148706D01*
X163865892Y-97131652D01*
X163734108Y-97131652D01*
X163606812Y-97165760D01*
X163492686Y-97231652D01*
X163492683Y-97231654D01*
X163399502Y-97324835D01*
X163399500Y-97324838D01*
X163333608Y-97438964D01*
X163326909Y-97463966D01*
X163299500Y-97566260D01*
X156950500Y-97566260D01*
X156950500Y-97561608D01*
X156916392Y-97434314D01*
X156914947Y-97431812D01*
X156904643Y-97413964D01*
X156850500Y-97320186D01*
X156757314Y-97227000D01*
X156694545Y-97190760D01*
X156643187Y-97161108D01*
X156579539Y-97144054D01*
X156515892Y-97127000D01*
X156384108Y-97127000D01*
X156256812Y-97161108D01*
X156142686Y-97227000D01*
X156142683Y-97227002D01*
X156049502Y-97320183D01*
X156049500Y-97320186D01*
X155983608Y-97434312D01*
X155954952Y-97541260D01*
X155949500Y-97561608D01*
X149467555Y-97561608D01*
X149441392Y-97463966D01*
X149375500Y-97349838D01*
X149282314Y-97256652D01*
X149225250Y-97223706D01*
X149168187Y-97190760D01*
X149104539Y-97173706D01*
X149040892Y-97156652D01*
X148909108Y-97156652D01*
X148781812Y-97190760D01*
X148667686Y-97256652D01*
X148667683Y-97256654D01*
X148574502Y-97349835D01*
X148574500Y-97349838D01*
X148508608Y-97463964D01*
X148474500Y-97591260D01*
X142975500Y-97591260D01*
X142975500Y-97566260D01*
X142941392Y-97438966D01*
X142875500Y-97324838D01*
X142782314Y-97231652D01*
X142711487Y-97190760D01*
X142668187Y-97165760D01*
X142604539Y-97148706D01*
X142540892Y-97131652D01*
X142409108Y-97131652D01*
X142281812Y-97165760D01*
X142167686Y-97231652D01*
X142167683Y-97231654D01*
X142074502Y-97324835D01*
X142074500Y-97324838D01*
X142008608Y-97438964D01*
X142001909Y-97463966D01*
X141974500Y-97566260D01*
X135900500Y-97566260D01*
X135900500Y-97559108D01*
X135866392Y-97431814D01*
X135800500Y-97317686D01*
X135707314Y-97224500D01*
X135605574Y-97165760D01*
X135593187Y-97158608D01*
X135526576Y-97140760D01*
X135465892Y-97124500D01*
X135334108Y-97124500D01*
X135206812Y-97158608D01*
X135092686Y-97224500D01*
X135092683Y-97224502D01*
X134999502Y-97317683D01*
X134999500Y-97317686D01*
X134933608Y-97431812D01*
X134924993Y-97463966D01*
X134899500Y-97559108D01*
X128800500Y-97559108D01*
X128800500Y-97541260D01*
X128766392Y-97413966D01*
X128700500Y-97299838D01*
X128607314Y-97206652D01*
X128520712Y-97156652D01*
X128493187Y-97140760D01*
X128429539Y-97123706D01*
X128365892Y-97106652D01*
X128234108Y-97106652D01*
X128106812Y-97140760D01*
X127992686Y-97206652D01*
X127992683Y-97206654D01*
X127899502Y-97299835D01*
X127899500Y-97299838D01*
X127833608Y-97413964D01*
X127799500Y-97541260D01*
X121518801Y-97541260D01*
X121491392Y-97438966D01*
X121425500Y-97324838D01*
X121332314Y-97231652D01*
X121261487Y-97190760D01*
X121218187Y-97165760D01*
X121154539Y-97148706D01*
X121090892Y-97131652D01*
X120959108Y-97131652D01*
X120831812Y-97165760D01*
X120717686Y-97231652D01*
X120717683Y-97231654D01*
X120624502Y-97324835D01*
X120624500Y-97324838D01*
X120558608Y-97438964D01*
X120551909Y-97463966D01*
X120524500Y-97566260D01*
X105500500Y-97566260D01*
X105500500Y-92878711D01*
X106149500Y-92878711D01*
X106149500Y-93121288D01*
X106181161Y-93361785D01*
X106243947Y-93596104D01*
X106335590Y-93817348D01*
X106336776Y-93820212D01*
X106458064Y-94030289D01*
X106458066Y-94030292D01*
X106458067Y-94030293D01*
X106605733Y-94222736D01*
X106605739Y-94222743D01*
X106777256Y-94394260D01*
X106777263Y-94394266D01*
X106890321Y-94481018D01*
X106969711Y-94541936D01*
X107179788Y-94663224D01*
X107403900Y-94756054D01*
X107638211Y-94818838D01*
X107790539Y-94838892D01*
X107878711Y-94850500D01*
X107878712Y-94850500D01*
X108121289Y-94850500D01*
X108169388Y-94844167D01*
X108361789Y-94818838D01*
X108596100Y-94756054D01*
X108820212Y-94663224D01*
X109030289Y-94541936D01*
X109222738Y-94394265D01*
X109365047Y-94251956D01*
X115495214Y-94251956D01*
X115495214Y-94383740D01*
X115509857Y-94438390D01*
X115529322Y-94511035D01*
X115542519Y-94533892D01*
X115595214Y-94625162D01*
X115688400Y-94718348D01*
X115802528Y-94784240D01*
X115929822Y-94818348D01*
X115929824Y-94818348D01*
X116061604Y-94818348D01*
X116061606Y-94818348D01*
X116188900Y-94784240D01*
X116303028Y-94718348D01*
X116396214Y-94625162D01*
X116462106Y-94511034D01*
X116496214Y-94383740D01*
X116496214Y-94251956D01*
X116493535Y-94241956D01*
X122625214Y-94241956D01*
X122625214Y-94373740D01*
X122634018Y-94406596D01*
X122659322Y-94501035D01*
X122682937Y-94541936D01*
X122725214Y-94615162D01*
X122818400Y-94708348D01*
X122901026Y-94756052D01*
X122930378Y-94772999D01*
X122932528Y-94774240D01*
X123059822Y-94808348D01*
X123059824Y-94808348D01*
X123191604Y-94808348D01*
X123191606Y-94808348D01*
X123318900Y-94774240D01*
X123433028Y-94708348D01*
X123526214Y-94615162D01*
X123592106Y-94501034D01*
X123626214Y-94373740D01*
X123626214Y-94241956D01*
X123623535Y-94231956D01*
X129785214Y-94231956D01*
X129785214Y-94363740D01*
X129790573Y-94383739D01*
X129819322Y-94491035D01*
X129844066Y-94533892D01*
X129885214Y-94605162D01*
X129978400Y-94698348D01*
X130092528Y-94764240D01*
X130219822Y-94798348D01*
X130219824Y-94798348D01*
X130351604Y-94798348D01*
X130351606Y-94798348D01*
X130478900Y-94764240D01*
X130593028Y-94698348D01*
X130686214Y-94605162D01*
X130752106Y-94491034D01*
X130786214Y-94363740D01*
X130786214Y-94241956D01*
X136954500Y-94241956D01*
X136954500Y-94373740D01*
X136963304Y-94406596D01*
X136988608Y-94501035D01*
X137012223Y-94541936D01*
X137054500Y-94615162D01*
X137147686Y-94708348D01*
X137230312Y-94756052D01*
X137259664Y-94772999D01*
X137261814Y-94774240D01*
X137389108Y-94808348D01*
X137389110Y-94808348D01*
X137520890Y-94808348D01*
X137520892Y-94808348D01*
X137648186Y-94774240D01*
X137762314Y-94708348D01*
X137855500Y-94615162D01*
X137921392Y-94501034D01*
X137955500Y-94373740D01*
X137955500Y-94241956D01*
X144074500Y-94241956D01*
X144074500Y-94373740D01*
X144083304Y-94406596D01*
X144108608Y-94501035D01*
X144132223Y-94541936D01*
X144174500Y-94615162D01*
X144267686Y-94708348D01*
X144350312Y-94756052D01*
X144379664Y-94772999D01*
X144381814Y-94774240D01*
X144509108Y-94808348D01*
X144509110Y-94808348D01*
X144640890Y-94808348D01*
X144640892Y-94808348D01*
X144768186Y-94774240D01*
X144882314Y-94708348D01*
X144975500Y-94615162D01*
X145041392Y-94501034D01*
X145075500Y-94373740D01*
X145075500Y-94274813D01*
X151213786Y-94274813D01*
X151213786Y-94406596D01*
X151247894Y-94533892D01*
X151266251Y-94565686D01*
X151313786Y-94648019D01*
X151406972Y-94741205D01*
X151521100Y-94807097D01*
X151648394Y-94841205D01*
X151648396Y-94841205D01*
X151780176Y-94841205D01*
X151780178Y-94841205D01*
X151907472Y-94807097D01*
X152021600Y-94741205D01*
X152114786Y-94648019D01*
X152180678Y-94533891D01*
X152214786Y-94406597D01*
X152214786Y-94274813D01*
X152209238Y-94254108D01*
X158359500Y-94254108D01*
X158359500Y-94385891D01*
X158393608Y-94513187D01*
X158426554Y-94570250D01*
X158459500Y-94627314D01*
X158552686Y-94720500D01*
X158645766Y-94774240D01*
X158663086Y-94784240D01*
X158666814Y-94786392D01*
X158794108Y-94820500D01*
X158794110Y-94820500D01*
X158925890Y-94820500D01*
X158925892Y-94820500D01*
X159053186Y-94786392D01*
X159167314Y-94720500D01*
X159260500Y-94627314D01*
X159326392Y-94513186D01*
X159360500Y-94385892D01*
X159360500Y-94306608D01*
X165512357Y-94306608D01*
X165512357Y-94438391D01*
X165546465Y-94565687D01*
X165569258Y-94605164D01*
X165612357Y-94679814D01*
X165705543Y-94773000D01*
X165819671Y-94838892D01*
X165946965Y-94873000D01*
X165946967Y-94873000D01*
X166078747Y-94873000D01*
X166078749Y-94873000D01*
X166206043Y-94838892D01*
X166320171Y-94773000D01*
X166413357Y-94679814D01*
X166479249Y-94565686D01*
X166513357Y-94438392D01*
X166513357Y-94306608D01*
X166479249Y-94179314D01*
X166413357Y-94065186D01*
X166320171Y-93972000D01*
X166263107Y-93939054D01*
X166206044Y-93906108D01*
X166142396Y-93889054D01*
X166078749Y-93872000D01*
X165946965Y-93872000D01*
X165819669Y-93906108D01*
X165705543Y-93972000D01*
X165705540Y-93972002D01*
X165612359Y-94065183D01*
X165612357Y-94065186D01*
X165546465Y-94179312D01*
X165512357Y-94306608D01*
X159360500Y-94306608D01*
X159360500Y-94254108D01*
X159326392Y-94126814D01*
X159325148Y-94124660D01*
X159317563Y-94111521D01*
X159260500Y-94012686D01*
X159167314Y-93919500D01*
X159085042Y-93872000D01*
X159053187Y-93853608D01*
X158970513Y-93831456D01*
X158925892Y-93819500D01*
X158794108Y-93819500D01*
X158666812Y-93853608D01*
X158552686Y-93919500D01*
X158552683Y-93919502D01*
X158459502Y-94012683D01*
X158459500Y-94012686D01*
X158393608Y-94126812D01*
X158359500Y-94254108D01*
X152209238Y-94254108D01*
X152180678Y-94147519D01*
X152114786Y-94033391D01*
X152021600Y-93940205D01*
X151947370Y-93897348D01*
X151907473Y-93874313D01*
X151830199Y-93853608D01*
X151780178Y-93840205D01*
X151648394Y-93840205D01*
X151521098Y-93874313D01*
X151406972Y-93940205D01*
X151406969Y-93940207D01*
X151313788Y-94033388D01*
X151313786Y-94033391D01*
X151247894Y-94147517D01*
X151213786Y-94274813D01*
X145075500Y-94274813D01*
X145075500Y-94241956D01*
X145041392Y-94114662D01*
X145035618Y-94104662D01*
X145012825Y-94065183D01*
X144975500Y-94000534D01*
X144882314Y-93907348D01*
X144789234Y-93853608D01*
X144768187Y-93841456D01*
X144688909Y-93820214D01*
X144640892Y-93807348D01*
X144509108Y-93807348D01*
X144381812Y-93841456D01*
X144267686Y-93907348D01*
X144267683Y-93907350D01*
X144174502Y-94000531D01*
X144174500Y-94000534D01*
X144108608Y-94114660D01*
X144079650Y-94222736D01*
X144074500Y-94241956D01*
X137955500Y-94241956D01*
X137921392Y-94114662D01*
X137915618Y-94104662D01*
X137892825Y-94065183D01*
X137855500Y-94000534D01*
X137762314Y-93907348D01*
X137669234Y-93853608D01*
X137648187Y-93841456D01*
X137568909Y-93820214D01*
X137520892Y-93807348D01*
X137389108Y-93807348D01*
X137261812Y-93841456D01*
X137147686Y-93907348D01*
X137147683Y-93907350D01*
X137054502Y-94000531D01*
X137054500Y-94000534D01*
X136988608Y-94114660D01*
X136959650Y-94222736D01*
X136954500Y-94241956D01*
X130786214Y-94241956D01*
X130786214Y-94231956D01*
X130752106Y-94104662D01*
X130686214Y-93990534D01*
X130593028Y-93897348D01*
X130535964Y-93864402D01*
X130478901Y-93831456D01*
X130415253Y-93814402D01*
X130351606Y-93797348D01*
X130219822Y-93797348D01*
X130092526Y-93831456D01*
X129978400Y-93897348D01*
X129978397Y-93897350D01*
X129885216Y-93990531D01*
X129885214Y-93990534D01*
X129819322Y-94104660D01*
X129802259Y-94168343D01*
X129785214Y-94231956D01*
X123623535Y-94231956D01*
X123592106Y-94114662D01*
X123586332Y-94104662D01*
X123563539Y-94065183D01*
X123526214Y-94000534D01*
X123433028Y-93907348D01*
X123339948Y-93853608D01*
X123318901Y-93841456D01*
X123239623Y-93820214D01*
X123191606Y-93807348D01*
X123059822Y-93807348D01*
X122932526Y-93841456D01*
X122818400Y-93907348D01*
X122818397Y-93907350D01*
X122725216Y-94000531D01*
X122725214Y-94000534D01*
X122659322Y-94114660D01*
X122630364Y-94222736D01*
X122625214Y-94241956D01*
X116493535Y-94241956D01*
X116462106Y-94124662D01*
X116456332Y-94114662D01*
X116427767Y-94065186D01*
X116396214Y-94010534D01*
X116303028Y-93917348D01*
X116245964Y-93884402D01*
X116188901Y-93851456D01*
X116114258Y-93831456D01*
X116061606Y-93817348D01*
X115929822Y-93817348D01*
X115802526Y-93851456D01*
X115688400Y-93917348D01*
X115688397Y-93917350D01*
X115595216Y-94010531D01*
X115595214Y-94010534D01*
X115529322Y-94124660D01*
X115500573Y-94231956D01*
X115495214Y-94251956D01*
X109365047Y-94251956D01*
X109394265Y-94222738D01*
X109451983Y-94147519D01*
X109477196Y-94114660D01*
X109541936Y-94030289D01*
X109663224Y-93820212D01*
X109756054Y-93596100D01*
X109818838Y-93361789D01*
X109850500Y-93121288D01*
X109850500Y-92878712D01*
X109850500Y-92878711D01*
X170149500Y-92878711D01*
X170149500Y-93121288D01*
X170181161Y-93361785D01*
X170243947Y-93596104D01*
X170335590Y-93817348D01*
X170336776Y-93820212D01*
X170458064Y-94030289D01*
X170458066Y-94030292D01*
X170458067Y-94030293D01*
X170605733Y-94222736D01*
X170605739Y-94222743D01*
X170777256Y-94394260D01*
X170777263Y-94394266D01*
X170890321Y-94481018D01*
X170969711Y-94541936D01*
X171179788Y-94663224D01*
X171403900Y-94756054D01*
X171638211Y-94818838D01*
X171790539Y-94838892D01*
X171878711Y-94850500D01*
X171878712Y-94850500D01*
X172121289Y-94850500D01*
X172169388Y-94844167D01*
X172361789Y-94818838D01*
X172596100Y-94756054D01*
X172820212Y-94663224D01*
X173030289Y-94541936D01*
X173222738Y-94394265D01*
X173394265Y-94222738D01*
X173541936Y-94030289D01*
X173663224Y-93820212D01*
X173756054Y-93596100D01*
X173818838Y-93361789D01*
X173850500Y-93121288D01*
X173850500Y-92878712D01*
X173818838Y-92638211D01*
X173756054Y-92403900D01*
X173663224Y-92179788D01*
X173541936Y-91969711D01*
X173401430Y-91786599D01*
X173394266Y-91777263D01*
X173394260Y-91777256D01*
X173222743Y-91605739D01*
X173222736Y-91605733D01*
X173030293Y-91458067D01*
X173030292Y-91458066D01*
X173030289Y-91458064D01*
X172820212Y-91336776D01*
X172820205Y-91336773D01*
X172596104Y-91243947D01*
X172361785Y-91181161D01*
X172121289Y-91149500D01*
X172121288Y-91149500D01*
X171878712Y-91149500D01*
X171878711Y-91149500D01*
X171638214Y-91181161D01*
X171403895Y-91243947D01*
X171179794Y-91336773D01*
X171179785Y-91336777D01*
X170969706Y-91458067D01*
X170777263Y-91605733D01*
X170777256Y-91605739D01*
X170605739Y-91777256D01*
X170605733Y-91777263D01*
X170458067Y-91969706D01*
X170336777Y-92179785D01*
X170336773Y-92179794D01*
X170243947Y-92403895D01*
X170181161Y-92638214D01*
X170149500Y-92878711D01*
X109850500Y-92878711D01*
X109818838Y-92638211D01*
X109756054Y-92403900D01*
X109663224Y-92179788D01*
X109541936Y-91969711D01*
X109401430Y-91786599D01*
X109394266Y-91777263D01*
X109394260Y-91777256D01*
X109222743Y-91605739D01*
X109222736Y-91605733D01*
X109030293Y-91458067D01*
X109030292Y-91458066D01*
X109030289Y-91458064D01*
X108820212Y-91336776D01*
X108820205Y-91336773D01*
X108596104Y-91243947D01*
X108361785Y-91181161D01*
X108121289Y-91149500D01*
X108121288Y-91149500D01*
X107878712Y-91149500D01*
X107878711Y-91149500D01*
X107638214Y-91181161D01*
X107403895Y-91243947D01*
X107179794Y-91336773D01*
X107179785Y-91336777D01*
X106969706Y-91458067D01*
X106777263Y-91605733D01*
X106777256Y-91605739D01*
X106605739Y-91777256D01*
X106605733Y-91777263D01*
X106458067Y-91969706D01*
X106336777Y-92179785D01*
X106336773Y-92179794D01*
X106243947Y-92403895D01*
X106181161Y-92638214D01*
X106149500Y-92878711D01*
X105500500Y-92878711D01*
X105500500Y-92004427D01*
X105500816Y-91995581D01*
X105515130Y-91795443D01*
X105515131Y-91795434D01*
X105517646Y-91777938D01*
X105559356Y-91586199D01*
X105564333Y-91569248D01*
X105632911Y-91385385D01*
X105640259Y-91369298D01*
X105702815Y-91254734D01*
X105734291Y-91197089D01*
X105743845Y-91182221D01*
X105861448Y-91025123D01*
X105873020Y-91011769D01*
X106011769Y-90873020D01*
X106025123Y-90861448D01*
X106182221Y-90743845D01*
X106197089Y-90734291D01*
X106369298Y-90640258D01*
X106385385Y-90632911D01*
X106569248Y-90564333D01*
X106586199Y-90559356D01*
X106777938Y-90517646D01*
X106795436Y-90515130D01*
X106995582Y-90500816D01*
X107004428Y-90500500D01*
X107065892Y-90500500D01*
X172934108Y-90500500D01*
X172995572Y-90500500D01*
X173004418Y-90500816D01*
G37*
%TD.AperFunction*%
%TD*%
M02*
