%TF.GenerationSoftware,KiCad,Pcbnew,9.0.6*%
%TF.CreationDate,2026-01-13T17:11:52+01:00*%
%TF.ProjectId,TempWatchtV1,54656d70-5761-4746-9368-7456312e6b69,rev?*%
%TF.SameCoordinates,Original*%
%TF.FileFunction,Copper,L4,Bot*%
%TF.FilePolarity,Positive*%
%FSLAX46Y46*%
G04 Gerber Fmt 4.6, Leading zero omitted, Abs format (unit mm)*
G04 Created by KiCad (PCBNEW 9.0.6) date 2026-01-13 17:11:52*
%MOMM*%
%LPD*%
G01*
G04 APERTURE LIST*
%TA.AperFunction,ComponentPad*%
%ADD10C,1.800000*%
%TD*%
%TA.AperFunction,ComponentPad*%
%ADD11C,0.900000*%
%TD*%
%TA.AperFunction,ComponentPad*%
%ADD12R,1.800000X1.800000*%
%TD*%
%TA.AperFunction,ComponentPad*%
%ADD13C,0.650000*%
%TD*%
%TA.AperFunction,ComponentPad*%
%ADD14O,1.700000X1.000000*%
%TD*%
%TA.AperFunction,ViaPad*%
%ADD15C,0.600000*%
%TD*%
%TA.AperFunction,Conductor*%
%ADD16C,0.300000*%
%TD*%
%TA.AperFunction,Conductor*%
%ADD17C,0.600000*%
%TD*%
%TA.AperFunction,Conductor*%
%ADD18C,0.400000*%
%TD*%
%TA.AperFunction,Conductor*%
%ADD19C,0.200000*%
%TD*%
G04 APERTURE END LIST*
D10*
%TO.P,CN11,*%
%TO.N,*%
X112380000Y-110455348D03*
D11*
X112380000Y-104055348D03*
%TD*%
D12*
%TO.P,H1,1,GND*%
%TO.N,GND*%
X167460000Y-123010000D03*
D10*
%TO.P,H1,2,CTS#*%
%TO.N,unconnected-(H1-CTS#-Pad2)*%
X164920000Y-123010000D03*
%TO.P,H1,3,VCC*%
%TO.N,VBUS*%
X162380000Y-123010000D03*
%TO.P,H1,4,TXD*%
%TO.N,/esp32S3/RX*%
X159840000Y-123010000D03*
%TO.P,H1,5,RXD*%
%TO.N,/esp32S3/TX*%
X157300000Y-123010000D03*
%TO.P,H1,6,RTS#*%
%TO.N,unconnected-(H1-RTS#-Pad6)*%
X154760000Y-123010000D03*
%TD*%
D13*
%TO.P,U5,*%
%TO.N,*%
X168550000Y-107475000D03*
X168550000Y-101695000D03*
D14*
%TO.P,U5,14,14*%
%TO.N,GND*%
X172200000Y-108905000D03*
%TO.P,U5,15,15*%
X172200000Y-100265000D03*
%TD*%
D15*
%TO.N,/Connector/Temp1*%
X139120000Y-116037500D03*
X115000000Y-99132152D03*
%TO.N,/Connector/Temp2*%
X121025000Y-97632152D03*
X139120000Y-114780000D03*
%TO.N,/Connector/Temp3*%
X128300000Y-97607152D03*
X139120000Y-113505000D03*
%TO.N,/Connector/Temp4*%
X139120000Y-112230000D03*
X135400000Y-97625000D03*
%TO.N,/Connector/Temp5*%
X142475000Y-97632152D03*
X135630000Y-107555000D03*
%TO.N,/Connector/Temp6*%
X136685000Y-107555000D03*
X148975000Y-97657152D03*
%TO.N,/Connector/Temp7*%
X156450000Y-97627500D03*
X137740000Y-107555000D03*
%TO.N,/Connector/Temp8*%
X138795000Y-107555000D03*
X163800000Y-97632152D03*
%TO.N,GND*%
X132575000Y-115245000D03*
X114440000Y-118000000D03*
X132565000Y-113875000D03*
X133975000Y-117985000D03*
X133965000Y-113875000D03*
X114060000Y-105080000D03*
X110950000Y-101500000D03*
X115110000Y-105090000D03*
X112190000Y-101500000D03*
X135325000Y-116645000D03*
X135345000Y-115235000D03*
X112940000Y-118000000D03*
X131215000Y-116635000D03*
X111940000Y-118000000D03*
X132565000Y-116635000D03*
X133965000Y-115235000D03*
X114440000Y-119000000D03*
X112990000Y-105050000D03*
X131215000Y-115245000D03*
X133975000Y-116635000D03*
X132565000Y-117995000D03*
%TO.N,+3.3V*%
X144955000Y-103595000D03*
X144575000Y-94307848D03*
X162000000Y-111275000D03*
X161100000Y-111275000D03*
X166012857Y-94372500D03*
X161100000Y-112175000D03*
X151310000Y-120110000D03*
X126040000Y-100420000D03*
X151315000Y-120930000D03*
X113060000Y-120030000D03*
X158860000Y-94320000D03*
X115995714Y-94317848D03*
X130285714Y-94297848D03*
X113870000Y-121610000D03*
X113870000Y-120810000D03*
X123125714Y-94307848D03*
X152540000Y-110340000D03*
X161100000Y-113075000D03*
X146795000Y-120555000D03*
X151714286Y-94340705D03*
X137455000Y-94307848D03*
X162850000Y-111275000D03*
X113060000Y-120830000D03*
X113870000Y-120010000D03*
X113060000Y-121610000D03*
X147760000Y-120550000D03*
X145795000Y-120555000D03*
%TO.N,VBUS*%
X161380000Y-101955000D03*
X165500000Y-107408000D03*
X164900000Y-102135000D03*
%TO.N,/esp32S3/TX*%
X159320000Y-109105000D03*
X124620000Y-119847500D03*
%TO.N,/esp32S3/RX*%
X124620000Y-118577500D03*
X159700000Y-108035000D03*
%TO.N,/esp32S3/BOOT*%
X121645000Y-107830000D03*
X143950000Y-119780760D03*
%TO.N,Net-(U5-SBU1)*%
X165300000Y-102985000D03*
X162850000Y-105435000D03*
%TO.N,Net-(U7-PG)*%
X120940000Y-114180000D03*
X118407351Y-114180000D03*
%TO.N,/CAN/MISO*%
X154120000Y-101750000D03*
X139120000Y-118577500D03*
%TO.N,/CAN/MOSI*%
X139120000Y-117307500D03*
X150820000Y-102410000D03*
%TO.N,/CAN/SCK*%
X154795000Y-103710000D03*
X139120000Y-119847500D03*
%TO.N,/CAN/CAN_CS*%
X150650000Y-101100000D03*
X135120000Y-109680000D03*
%TO.N,/CAN/TXCAN*%
X136340000Y-102940000D03*
X142295000Y-99805000D03*
%TO.N,/CAN/CAN_IN*%
X149645000Y-104360000D03*
X136495000Y-110955000D03*
%TD*%
D16*
%TO.N,/esp32S3/TX*%
X157300000Y-115360000D02*
X157300000Y-123010000D01*
X159700000Y-112960000D02*
X157300000Y-115360000D01*
X159320000Y-109105000D02*
X159700000Y-109485000D01*
X159700000Y-109485000D02*
X159700000Y-112960000D01*
%TO.N,/esp32S3/RX*%
X159840000Y-113528520D02*
X159840000Y-123010000D01*
X160201000Y-113167520D02*
X159840000Y-113528520D01*
X160200000Y-109276479D02*
X160201000Y-109277480D01*
X160200000Y-108535000D02*
X160200000Y-109276479D01*
X160201000Y-109277480D02*
X160201000Y-113167520D01*
X159700000Y-108035000D02*
X160200000Y-108535000D01*
D17*
%TO.N,VBUS*%
X165500000Y-119890000D02*
X162380000Y-123010000D01*
X165500000Y-107408000D02*
X165500000Y-119890000D01*
D18*
%TO.N,/Connector/Temp1*%
X134566000Y-112751000D02*
X129976000Y-112751000D01*
X129976000Y-112751000D02*
X116357152Y-99132152D01*
X139120000Y-116037500D02*
X137852500Y-116037500D01*
X137852500Y-116037500D02*
X134566000Y-112751000D01*
X116357152Y-99132152D02*
X115000000Y-99132152D01*
%TO.N,/Connector/Temp2*%
X134814942Y-112150000D02*
X137444942Y-114780000D01*
X137444942Y-114780000D02*
X139120000Y-114780000D01*
X119550000Y-99107152D02*
X119550000Y-101475058D01*
X119550000Y-101475058D02*
X130224942Y-112150000D01*
X130224942Y-112150000D02*
X134814942Y-112150000D01*
X121025000Y-97632152D02*
X119550000Y-99107152D01*
%TO.N,/Connector/Temp3*%
X128300000Y-97607152D02*
X131595000Y-100902152D01*
X137019884Y-113505000D02*
X139120000Y-113505000D01*
X131595000Y-100902152D02*
X131595000Y-108080116D01*
X131595000Y-108080116D02*
X137019884Y-113505000D01*
%TO.N,/Connector/Temp4*%
X133645000Y-99385000D02*
X133645000Y-109280174D01*
X136594826Y-112230000D02*
X139120000Y-112230000D01*
X135400000Y-97625000D02*
X135400000Y-97630000D01*
X133645000Y-109280174D02*
X136594826Y-112230000D01*
X135400000Y-97630000D02*
X133645000Y-99385000D01*
%TO.N,/Connector/Temp5*%
X140467848Y-97632152D02*
X142475000Y-97632152D01*
X135630000Y-102470000D02*
X140467848Y-97632152D01*
X135630000Y-107555000D02*
X135630000Y-102470000D01*
%TO.N,/Connector/Temp6*%
X136685000Y-106895000D02*
X145147848Y-98432152D01*
X136685000Y-107555000D02*
X136685000Y-106895000D01*
X145147848Y-98432152D02*
X148200000Y-98432152D01*
X148200000Y-98432152D02*
X148975000Y-97657152D01*
%TO.N,/Connector/Temp7*%
X137740000Y-107555000D02*
X137740000Y-106689942D01*
X137740000Y-106689942D02*
X145396790Y-99033152D01*
X155044348Y-99033152D02*
X156450000Y-97627500D01*
X145396790Y-99033152D02*
X155044348Y-99033152D01*
%TO.N,/Connector/Temp8*%
X138795000Y-106484884D02*
X138795000Y-107555000D01*
X163792848Y-97632152D02*
X161790848Y-99634152D01*
X161790848Y-99634152D02*
X145645732Y-99634152D01*
X163800000Y-97632152D02*
X163792848Y-97632152D01*
X145645732Y-99634152D02*
X138795000Y-106484884D01*
D17*
%TO.N,VBUS*%
X166400000Y-102735000D02*
X165800000Y-102135000D01*
X164900000Y-102135000D02*
X161560000Y-102135000D01*
%TO.N,/esp32S3/RX*%
X159970000Y-123020000D02*
X159970000Y-123040000D01*
%TO.N,VBUS*%
X165500000Y-107408000D02*
X165500000Y-106185000D01*
X166400000Y-105285000D02*
X166400000Y-102735000D01*
X165500000Y-106185000D02*
X166400000Y-105285000D01*
X161560000Y-102135000D02*
X161380000Y-101955000D01*
X165800000Y-102135000D02*
X164900000Y-102135000D01*
D16*
%TO.N,/esp32S3/TX*%
X155885000Y-109485000D02*
X143405000Y-121965000D01*
X159320000Y-109105000D02*
X158940000Y-109485000D01*
X158940000Y-109485000D02*
X155885000Y-109485000D01*
X143405000Y-121965000D02*
X143040000Y-122330000D01*
X127102500Y-122330000D02*
X124620000Y-119847500D01*
X143040000Y-122330000D02*
X127102500Y-122330000D01*
%TO.N,/esp32S3/RX*%
X156615000Y-108035000D02*
X143026000Y-121624000D01*
X142821000Y-121829000D02*
X127871500Y-121829000D01*
X124642500Y-118577500D02*
X124620000Y-118555000D01*
X159700000Y-108035000D02*
X156615000Y-108035000D01*
X127871500Y-121829000D02*
X124620000Y-118577500D01*
X143026000Y-121624000D02*
X142821000Y-121829000D01*
D18*
%TO.N,/esp32S3/BOOT*%
X143950000Y-119780760D02*
X142452760Y-121278000D01*
X121645000Y-114205000D02*
X121645000Y-107830000D01*
X128718000Y-121278000D02*
X121645000Y-114205000D01*
X142452760Y-121278000D02*
X128718000Y-121278000D01*
D16*
%TO.N,Net-(U5-SBU1)*%
X162850000Y-105435000D02*
X165300000Y-102985000D01*
%TO.N,Net-(U7-PG)*%
X118407351Y-114180000D02*
X120940000Y-114180000D01*
%TO.N,/CAN/MISO*%
X139120000Y-118577500D02*
X140838980Y-118577500D01*
X140838980Y-118577500D02*
X154120000Y-105296480D01*
X154120000Y-105296480D02*
X154120000Y-101750000D01*
%TO.N,/CAN/MOSI*%
X141400460Y-117307500D02*
X150820000Y-107887960D01*
X150820000Y-107887960D02*
X150820000Y-102410000D01*
X139120000Y-117307500D02*
X141400460Y-117307500D01*
%TO.N,/CAN/SCK*%
X140277500Y-119847500D02*
X154795000Y-105330000D01*
X139120000Y-119847500D02*
X140277500Y-119847500D01*
X154795000Y-105330000D02*
X154795000Y-103710000D01*
D18*
%TO.N,/CAN/CAN_CS*%
X135120000Y-109680000D02*
X142095000Y-109680000D01*
X150650000Y-101125000D02*
X150650000Y-101100000D01*
X142095000Y-109680000D02*
X150650000Y-101125000D01*
D19*
%TO.N,/CAN/TXCAN*%
X139160000Y-102940000D02*
X142295000Y-99805000D01*
X136340000Y-102940000D02*
X139160000Y-102940000D01*
D18*
%TO.N,/CAN/CAN_IN*%
X143045000Y-110955000D02*
X149640000Y-104360000D01*
X136495000Y-110955000D02*
X143045000Y-110955000D01*
X149640000Y-104360000D02*
X149645000Y-104360000D01*
%TD*%
%TA.AperFunction,Conductor*%
%TO.N,+3.3V*%
G36*
X173004418Y-90500816D02*
G01*
X173204561Y-90515130D01*
X173222063Y-90517647D01*
X173413797Y-90559355D01*
X173430755Y-90564334D01*
X173614609Y-90632909D01*
X173630701Y-90640259D01*
X173802904Y-90734288D01*
X173817784Y-90743849D01*
X173974867Y-90861441D01*
X173988237Y-90873027D01*
X174126972Y-91011762D01*
X174138558Y-91025132D01*
X174255360Y-91181161D01*
X174256146Y-91182210D01*
X174265711Y-91197095D01*
X174359740Y-91369298D01*
X174367090Y-91385390D01*
X174435662Y-91569236D01*
X174440646Y-91586212D01*
X174482351Y-91777931D01*
X174484869Y-91795442D01*
X174499184Y-91995580D01*
X174499500Y-92004427D01*
X174499500Y-122995572D01*
X174499184Y-123004418D01*
X174499184Y-123004419D01*
X174484869Y-123204557D01*
X174482351Y-123222068D01*
X174440646Y-123413787D01*
X174435662Y-123430763D01*
X174367090Y-123614609D01*
X174359740Y-123630701D01*
X174265711Y-123802904D01*
X174256146Y-123817789D01*
X174138558Y-123974867D01*
X174126972Y-123988237D01*
X173988237Y-124126972D01*
X173974867Y-124138558D01*
X173817789Y-124256146D01*
X173802904Y-124265711D01*
X173630701Y-124359740D01*
X173614609Y-124367090D01*
X173430763Y-124435662D01*
X173413787Y-124440646D01*
X173222068Y-124482351D01*
X173204557Y-124484869D01*
X173023779Y-124497799D01*
X173004417Y-124499184D01*
X172995572Y-124499500D01*
X107004428Y-124499500D01*
X106995582Y-124499184D01*
X106973622Y-124497613D01*
X106795442Y-124484869D01*
X106777931Y-124482351D01*
X106586212Y-124440646D01*
X106569236Y-124435662D01*
X106385390Y-124367090D01*
X106369298Y-124359740D01*
X106197095Y-124265711D01*
X106182210Y-124256146D01*
X106025132Y-124138558D01*
X106011762Y-124126972D01*
X105873027Y-123988237D01*
X105861441Y-123974867D01*
X105827665Y-123929748D01*
X105743849Y-123817784D01*
X105734288Y-123802904D01*
X105640259Y-123630701D01*
X105632909Y-123614609D01*
X105605803Y-123541936D01*
X105564334Y-123430755D01*
X105559355Y-123413797D01*
X105517647Y-123222063D01*
X105515130Y-123204556D01*
X105500816Y-123004418D01*
X105500500Y-122995572D01*
X105500500Y-121878711D01*
X106149500Y-121878711D01*
X106149500Y-122121288D01*
X106181161Y-122361785D01*
X106243947Y-122596104D01*
X106308647Y-122752302D01*
X106336776Y-122820212D01*
X106458064Y-123030289D01*
X106458066Y-123030292D01*
X106458067Y-123030293D01*
X106605733Y-123222736D01*
X106605739Y-123222743D01*
X106777256Y-123394260D01*
X106777263Y-123394266D01*
X106814004Y-123422458D01*
X106969711Y-123541936D01*
X107179788Y-123663224D01*
X107403900Y-123756054D01*
X107638211Y-123818838D01*
X107818586Y-123842584D01*
X107878711Y-123850500D01*
X107878712Y-123850500D01*
X108121289Y-123850500D01*
X108169388Y-123844167D01*
X108361789Y-123818838D01*
X108596100Y-123756054D01*
X108820212Y-123663224D01*
X109030289Y-123541936D01*
X109222738Y-123394265D01*
X109394265Y-123222738D01*
X109541936Y-123030289D01*
X109603655Y-122923389D01*
X153659500Y-122923389D01*
X153659500Y-123096610D01*
X153679476Y-123222738D01*
X153686598Y-123267701D01*
X153740127Y-123432445D01*
X153818768Y-123586788D01*
X153920586Y-123726928D01*
X154043072Y-123849414D01*
X154183212Y-123951232D01*
X154337555Y-124029873D01*
X154502299Y-124083402D01*
X154673389Y-124110500D01*
X154673390Y-124110500D01*
X154846610Y-124110500D01*
X154846611Y-124110500D01*
X155017701Y-124083402D01*
X155182445Y-124029873D01*
X155336788Y-123951232D01*
X155476928Y-123849414D01*
X155599414Y-123726928D01*
X155701232Y-123586788D01*
X155779873Y-123432445D01*
X155833402Y-123267701D01*
X155860500Y-123096611D01*
X155860500Y-122923389D01*
X155833402Y-122752299D01*
X155779873Y-122587555D01*
X155701232Y-122433212D01*
X155599414Y-122293072D01*
X155476928Y-122170586D01*
X155336788Y-122068768D01*
X155182445Y-121990127D01*
X155017701Y-121936598D01*
X155017699Y-121936597D01*
X155017698Y-121936597D01*
X154886271Y-121915781D01*
X154846611Y-121909500D01*
X154673389Y-121909500D01*
X154633728Y-121915781D01*
X154502302Y-121936597D01*
X154337552Y-121990128D01*
X154183211Y-122068768D01*
X154110925Y-122121288D01*
X154043072Y-122170586D01*
X154043070Y-122170588D01*
X154043069Y-122170588D01*
X153920588Y-122293069D01*
X153920588Y-122293070D01*
X153920586Y-122293072D01*
X153881936Y-122346269D01*
X153818768Y-122433211D01*
X153740128Y-122587552D01*
X153686597Y-122752302D01*
X153659500Y-122923389D01*
X109603655Y-122923389D01*
X109663224Y-122820212D01*
X109756054Y-122596100D01*
X109818838Y-122361789D01*
X109850500Y-122121288D01*
X109850500Y-121878712D01*
X109818838Y-121638211D01*
X109756054Y-121403900D01*
X109663224Y-121179788D01*
X109541936Y-120969711D01*
X109394265Y-120777262D01*
X109394260Y-120777256D01*
X109222743Y-120605739D01*
X109222736Y-120605733D01*
X109030293Y-120458067D01*
X109030292Y-120458066D01*
X109030289Y-120458064D01*
X108820212Y-120336776D01*
X108820205Y-120336773D01*
X108596104Y-120243947D01*
X108422076Y-120197316D01*
X108361789Y-120181162D01*
X108361788Y-120181161D01*
X108361785Y-120181161D01*
X108121289Y-120149500D01*
X108121288Y-120149500D01*
X107878712Y-120149500D01*
X107878711Y-120149500D01*
X107638214Y-120181161D01*
X107403895Y-120243947D01*
X107179794Y-120336773D01*
X107179785Y-120336777D01*
X106969706Y-120458067D01*
X106777263Y-120605733D01*
X106777256Y-120605739D01*
X106605739Y-120777256D01*
X106605733Y-120777263D01*
X106458067Y-120969706D01*
X106336777Y-121179785D01*
X106336773Y-121179794D01*
X106243947Y-121403895D01*
X106181161Y-121638214D01*
X106149500Y-121878711D01*
X105500500Y-121878711D01*
X105500500Y-117934108D01*
X111439500Y-117934108D01*
X111439500Y-118065892D01*
X111456554Y-118129539D01*
X111473608Y-118193187D01*
X111506554Y-118250250D01*
X111539500Y-118307314D01*
X111632686Y-118400500D01*
X111746814Y-118466392D01*
X111874108Y-118500500D01*
X111874110Y-118500500D01*
X112005890Y-118500500D01*
X112005892Y-118500500D01*
X112133186Y-118466392D01*
X112247314Y-118400500D01*
X112340500Y-118307314D01*
X112340504Y-118307306D01*
X112341625Y-118305847D01*
X112342892Y-118304921D01*
X112346247Y-118301567D01*
X112346770Y-118302090D01*
X112398053Y-118264645D01*
X112467799Y-118260491D01*
X112528719Y-118294704D01*
X112538375Y-118305847D01*
X112539498Y-118307311D01*
X112539500Y-118307314D01*
X112632686Y-118400500D01*
X112746814Y-118466392D01*
X112874108Y-118500500D01*
X112874110Y-118500500D01*
X113005890Y-118500500D01*
X113005892Y-118500500D01*
X113133186Y-118466392D01*
X113247314Y-118400500D01*
X113340500Y-118307314D01*
X113406392Y-118193186D01*
X113440500Y-118065892D01*
X113440500Y-117934108D01*
X113939500Y-117934108D01*
X113939500Y-118065892D01*
X113956554Y-118129539D01*
X113973608Y-118193187D01*
X114006554Y-118250250D01*
X114039500Y-118307314D01*
X114039502Y-118307316D01*
X114132687Y-118400501D01*
X114134158Y-118401630D01*
X114135083Y-118402897D01*
X114138433Y-118406247D01*
X114137910Y-118406769D01*
X114175356Y-118458060D01*
X114179506Y-118527807D01*
X114145289Y-118588725D01*
X114134158Y-118598370D01*
X114132687Y-118599498D01*
X114039502Y-118692683D01*
X114039500Y-118692686D01*
X113973608Y-118806812D01*
X113941137Y-118928000D01*
X113939500Y-118934108D01*
X113939500Y-119065892D01*
X113948019Y-119097685D01*
X113973608Y-119193187D01*
X113975603Y-119196642D01*
X114039500Y-119307314D01*
X114132686Y-119400500D01*
X114246814Y-119466392D01*
X114374108Y-119500500D01*
X114374110Y-119500500D01*
X114505890Y-119500500D01*
X114505892Y-119500500D01*
X114633186Y-119466392D01*
X114747314Y-119400500D01*
X114840500Y-119307314D01*
X114906392Y-119193186D01*
X114940500Y-119065892D01*
X114940500Y-118934108D01*
X114906392Y-118806814D01*
X114840500Y-118692686D01*
X114747314Y-118599500D01*
X114747311Y-118599498D01*
X114745847Y-118598375D01*
X114744921Y-118597107D01*
X114741567Y-118593753D01*
X114742090Y-118593229D01*
X114704645Y-118541947D01*
X114700491Y-118472201D01*
X114734704Y-118411281D01*
X114745847Y-118401625D01*
X114747306Y-118400504D01*
X114747314Y-118400500D01*
X114840500Y-118307314D01*
X114906392Y-118193186D01*
X114940500Y-118065892D01*
X114940500Y-117934108D01*
X114906392Y-117806814D01*
X114840500Y-117692686D01*
X114747314Y-117599500D01*
X114690250Y-117566554D01*
X114633187Y-117533608D01*
X114569539Y-117516554D01*
X114505892Y-117499500D01*
X114374108Y-117499500D01*
X114246812Y-117533608D01*
X114132686Y-117599500D01*
X114132683Y-117599502D01*
X114039502Y-117692683D01*
X114039500Y-117692686D01*
X113973608Y-117806812D01*
X113956763Y-117869681D01*
X113939500Y-117934108D01*
X113440500Y-117934108D01*
X113406392Y-117806814D01*
X113340500Y-117692686D01*
X113247314Y-117599500D01*
X113190250Y-117566554D01*
X113133187Y-117533608D01*
X113069539Y-117516554D01*
X113005892Y-117499500D01*
X112874108Y-117499500D01*
X112746812Y-117533608D01*
X112632686Y-117599500D01*
X112632683Y-117599502D01*
X112539498Y-117692687D01*
X112538370Y-117694158D01*
X112537102Y-117695083D01*
X112533753Y-117698433D01*
X112533230Y-117697910D01*
X112481940Y-117735356D01*
X112412193Y-117739506D01*
X112351275Y-117705289D01*
X112341630Y-117694158D01*
X112340501Y-117692687D01*
X112247316Y-117599502D01*
X112247314Y-117599500D01*
X112190250Y-117566554D01*
X112133187Y-117533608D01*
X112069539Y-117516554D01*
X112005892Y-117499500D01*
X111874108Y-117499500D01*
X111746812Y-117533608D01*
X111632686Y-117599500D01*
X111632683Y-117599502D01*
X111539502Y-117692683D01*
X111539500Y-117692686D01*
X111473608Y-117806812D01*
X111456763Y-117869681D01*
X111439500Y-117934108D01*
X105500500Y-117934108D01*
X105500500Y-114114108D01*
X117906851Y-114114108D01*
X117906851Y-114245892D01*
X117915856Y-114279500D01*
X117940959Y-114373187D01*
X117973905Y-114430250D01*
X118006851Y-114487314D01*
X118100037Y-114580500D01*
X118214165Y-114646392D01*
X118341459Y-114680500D01*
X118341461Y-114680500D01*
X118473241Y-114680500D01*
X118473243Y-114680500D01*
X118600537Y-114646392D01*
X118714665Y-114580500D01*
X118728346Y-114566819D01*
X118789669Y-114533334D01*
X118816027Y-114530500D01*
X120531324Y-114530500D01*
X120598363Y-114550185D01*
X120619005Y-114566819D01*
X120632686Y-114580500D01*
X120746814Y-114646392D01*
X120874108Y-114680500D01*
X120874110Y-114680500D01*
X121005890Y-114680500D01*
X121005892Y-114680500D01*
X121133186Y-114646392D01*
X121247314Y-114580500D01*
X121263029Y-114564784D01*
X121324349Y-114531299D01*
X121394041Y-114536282D01*
X121438391Y-114564784D01*
X124738926Y-117865319D01*
X124772411Y-117926642D01*
X124767427Y-117996334D01*
X124725555Y-118052267D01*
X124660091Y-118076684D01*
X124651245Y-118077000D01*
X124554108Y-118077000D01*
X124426812Y-118111108D01*
X124312686Y-118177000D01*
X124312683Y-118177002D01*
X124219502Y-118270183D01*
X124219500Y-118270186D01*
X124153608Y-118384312D01*
X124119500Y-118511608D01*
X124119500Y-118643391D01*
X124153608Y-118770687D01*
X124186554Y-118827750D01*
X124219500Y-118884814D01*
X124312686Y-118978000D01*
X124426814Y-119043892D01*
X124554108Y-119078000D01*
X124573456Y-119078000D01*
X124602896Y-119086644D01*
X124632883Y-119093168D01*
X124637898Y-119096922D01*
X124640495Y-119097685D01*
X124661137Y-119114319D01*
X124682137Y-119135319D01*
X124715622Y-119196642D01*
X124710638Y-119266334D01*
X124668766Y-119322267D01*
X124603302Y-119346684D01*
X124594456Y-119347000D01*
X124554108Y-119347000D01*
X124426812Y-119381108D01*
X124312686Y-119447000D01*
X124312683Y-119447002D01*
X124219502Y-119540183D01*
X124219500Y-119540186D01*
X124153608Y-119654312D01*
X124145982Y-119682774D01*
X124119500Y-119781608D01*
X124119500Y-119913392D01*
X124130889Y-119955894D01*
X124153608Y-120040685D01*
X124153607Y-120040685D01*
X124153608Y-120040686D01*
X124219500Y-120154814D01*
X124312686Y-120248000D01*
X124426814Y-120313892D01*
X124554108Y-120348000D01*
X124573456Y-120348000D01*
X124640495Y-120367685D01*
X124661137Y-120384319D01*
X126887288Y-122610470D01*
X126887289Y-122610471D01*
X126887291Y-122610472D01*
X126927250Y-122633542D01*
X126967212Y-122656614D01*
X127056356Y-122680500D01*
X127056358Y-122680500D01*
X143086142Y-122680500D01*
X143086144Y-122680500D01*
X143175288Y-122656614D01*
X143255212Y-122610470D01*
X143685470Y-122180212D01*
X143685470Y-122180211D01*
X155993862Y-109871819D01*
X156055185Y-109838334D01*
X156081543Y-109835500D01*
X158986142Y-109835500D01*
X158986144Y-109835500D01*
X159075288Y-109811614D01*
X159155212Y-109765470D01*
X159155211Y-109765470D01*
X159162250Y-109761407D01*
X159163821Y-109764128D01*
X159215130Y-109744268D01*
X159283581Y-109758278D01*
X159333592Y-109807070D01*
X159349500Y-109867834D01*
X159349500Y-112763456D01*
X159329815Y-112830495D01*
X159313181Y-112851137D01*
X157019531Y-115144786D01*
X157019527Y-115144791D01*
X156992115Y-115192272D01*
X156992115Y-115192273D01*
X156973386Y-115224711D01*
X156949500Y-115313856D01*
X156949500Y-121877481D01*
X156929815Y-121944520D01*
X156881795Y-121987966D01*
X156723211Y-122068768D01*
X156650925Y-122121288D01*
X156583072Y-122170586D01*
X156583070Y-122170588D01*
X156583069Y-122170588D01*
X156460588Y-122293069D01*
X156460588Y-122293070D01*
X156460586Y-122293072D01*
X156421936Y-122346269D01*
X156358768Y-122433211D01*
X156280128Y-122587552D01*
X156226597Y-122752302D01*
X156199500Y-122923389D01*
X156199500Y-123096610D01*
X156219476Y-123222738D01*
X156226598Y-123267701D01*
X156280127Y-123432445D01*
X156358768Y-123586788D01*
X156460586Y-123726928D01*
X156583072Y-123849414D01*
X156723212Y-123951232D01*
X156877555Y-124029873D01*
X157042299Y-124083402D01*
X157213389Y-124110500D01*
X157213390Y-124110500D01*
X157386610Y-124110500D01*
X157386611Y-124110500D01*
X157557701Y-124083402D01*
X157722445Y-124029873D01*
X157876788Y-123951232D01*
X158016928Y-123849414D01*
X158139414Y-123726928D01*
X158241232Y-123586788D01*
X158319873Y-123432445D01*
X158373402Y-123267701D01*
X158400500Y-123096611D01*
X158400500Y-122923389D01*
X158373402Y-122752299D01*
X158319873Y-122587555D01*
X158241232Y-122433212D01*
X158139414Y-122293072D01*
X158016928Y-122170586D01*
X157876788Y-122068768D01*
X157804173Y-122031769D01*
X157718205Y-121987966D01*
X157667409Y-121939991D01*
X157650500Y-121877481D01*
X157650500Y-115556544D01*
X157670185Y-115489505D01*
X157686819Y-115468863D01*
X159277819Y-113877863D01*
X159339142Y-113844378D01*
X159408834Y-113849362D01*
X159464767Y-113891234D01*
X159489184Y-113956698D01*
X159489500Y-113965544D01*
X159489500Y-121877481D01*
X159469815Y-121944520D01*
X159421795Y-121987966D01*
X159263211Y-122068768D01*
X159190925Y-122121288D01*
X159123072Y-122170586D01*
X159123070Y-122170588D01*
X159123069Y-122170588D01*
X159000588Y-122293069D01*
X159000588Y-122293070D01*
X159000586Y-122293072D01*
X158961936Y-122346269D01*
X158898768Y-122433211D01*
X158820128Y-122587552D01*
X158766597Y-122752302D01*
X158739500Y-122923389D01*
X158739500Y-123096610D01*
X158759476Y-123222738D01*
X158766598Y-123267701D01*
X158820127Y-123432445D01*
X158898768Y-123586788D01*
X159000586Y-123726928D01*
X159123072Y-123849414D01*
X159263212Y-123951232D01*
X159417555Y-124029873D01*
X159582299Y-124083402D01*
X159753389Y-124110500D01*
X159753390Y-124110500D01*
X159926610Y-124110500D01*
X159926611Y-124110500D01*
X160097701Y-124083402D01*
X160262445Y-124029873D01*
X160416788Y-123951232D01*
X160556928Y-123849414D01*
X160679414Y-123726928D01*
X160781232Y-123586788D01*
X160859873Y-123432445D01*
X160913402Y-123267701D01*
X160940500Y-123096611D01*
X160940500Y-122923389D01*
X160913402Y-122752299D01*
X160859873Y-122587555D01*
X160781232Y-122433212D01*
X160679414Y-122293072D01*
X160556928Y-122170586D01*
X160416788Y-122068768D01*
X160344173Y-122031769D01*
X160258205Y-121987966D01*
X160207409Y-121939991D01*
X160190500Y-121877481D01*
X160190500Y-113725064D01*
X160210185Y-113658025D01*
X160226819Y-113637383D01*
X160296519Y-113567683D01*
X160481470Y-113382732D01*
X160527614Y-113302808D01*
X160531953Y-113286614D01*
X160551500Y-113213664D01*
X160551500Y-109275649D01*
X160551522Y-109231512D01*
X160551500Y-109231429D01*
X160551500Y-109231336D01*
X160551500Y-109230880D01*
X160550500Y-109215614D01*
X160550500Y-108488858D01*
X160550500Y-108488856D01*
X160526614Y-108399712D01*
X160504618Y-108361614D01*
X160480470Y-108319788D01*
X160236819Y-108076137D01*
X160203334Y-108014814D01*
X160200500Y-107988456D01*
X160200500Y-107969110D01*
X160200500Y-107969108D01*
X160166392Y-107841814D01*
X160158614Y-107828343D01*
X160130182Y-107779097D01*
X160100500Y-107727686D01*
X160007314Y-107634500D01*
X159950250Y-107601554D01*
X159893187Y-107568608D01*
X159826591Y-107550764D01*
X159765892Y-107534500D01*
X159634108Y-107534500D01*
X159506812Y-107568608D01*
X159392686Y-107634500D01*
X159392683Y-107634502D01*
X159379005Y-107648181D01*
X159317682Y-107681666D01*
X159291324Y-107684500D01*
X156568856Y-107684500D01*
X156485226Y-107706907D01*
X156485227Y-107706908D01*
X156479712Y-107708385D01*
X156479708Y-107708387D01*
X156399791Y-107754527D01*
X156399786Y-107754531D01*
X144585692Y-119568624D01*
X144524369Y-119602109D01*
X144454677Y-119597125D01*
X144398744Y-119555253D01*
X144390624Y-119542943D01*
X144389032Y-119540186D01*
X144350500Y-119473446D01*
X144257314Y-119380260D01*
X144199159Y-119346684D01*
X144143187Y-119314368D01*
X144079539Y-119297314D01*
X144015892Y-119280260D01*
X143884108Y-119280260D01*
X143756812Y-119314368D01*
X143642686Y-119380260D01*
X143642683Y-119380262D01*
X143549502Y-119473443D01*
X143549500Y-119473446D01*
X143483607Y-119587574D01*
X143483607Y-119587575D01*
X143458098Y-119682774D01*
X143426005Y-119738360D01*
X142323186Y-120841181D01*
X142261863Y-120874666D01*
X142235505Y-120877500D01*
X128935254Y-120877500D01*
X128868215Y-120857815D01*
X128847573Y-120841181D01*
X126015055Y-118008662D01*
X125935501Y-117929108D01*
X132064500Y-117929108D01*
X132064500Y-118060892D01*
X132068816Y-118077000D01*
X132098608Y-118188187D01*
X132101495Y-118193187D01*
X132164500Y-118302314D01*
X132257686Y-118395500D01*
X132371814Y-118461392D01*
X132499108Y-118495500D01*
X132499110Y-118495500D01*
X132630890Y-118495500D01*
X132630892Y-118495500D01*
X132758186Y-118461392D01*
X132872314Y-118395500D01*
X132965500Y-118302314D01*
X133031392Y-118188186D01*
X133065500Y-118060892D01*
X133065500Y-117929108D01*
X133062821Y-117919108D01*
X133474500Y-117919108D01*
X133474500Y-118050892D01*
X133478519Y-118065890D01*
X133508608Y-118178187D01*
X133535155Y-118224166D01*
X133574500Y-118292314D01*
X133667686Y-118385500D01*
X133781814Y-118451392D01*
X133909108Y-118485500D01*
X133909110Y-118485500D01*
X134040890Y-118485500D01*
X134040892Y-118485500D01*
X134168186Y-118451392D01*
X134282314Y-118385500D01*
X134375500Y-118292314D01*
X134441392Y-118178186D01*
X134475500Y-118050892D01*
X134475500Y-117919108D01*
X134441392Y-117791814D01*
X134375500Y-117677686D01*
X134282314Y-117584500D01*
X134194167Y-117533608D01*
X134168187Y-117518608D01*
X134101303Y-117500687D01*
X134040892Y-117484500D01*
X133909108Y-117484500D01*
X133781812Y-117518608D01*
X133667686Y-117584500D01*
X133667683Y-117584502D01*
X133574502Y-117677683D01*
X133574501Y-117677685D01*
X133574500Y-117677686D01*
X133565840Y-117692686D01*
X133508608Y-117791812D01*
X133487744Y-117869681D01*
X133474500Y-117919108D01*
X133062821Y-117919108D01*
X133031392Y-117801814D01*
X133025618Y-117791814D01*
X133015271Y-117773892D01*
X132965500Y-117687686D01*
X132872314Y-117594500D01*
X132815250Y-117561554D01*
X132758187Y-117528608D01*
X132653982Y-117500687D01*
X132630892Y-117494500D01*
X132499108Y-117494500D01*
X132371812Y-117528608D01*
X132257686Y-117594500D01*
X132257683Y-117594502D01*
X132164502Y-117687683D01*
X132164500Y-117687686D01*
X132098608Y-117801812D01*
X132096950Y-117808000D01*
X132064500Y-117929108D01*
X125935501Y-117929108D01*
X124575501Y-116569108D01*
X130714500Y-116569108D01*
X130714500Y-116700892D01*
X130731554Y-116764539D01*
X130748608Y-116828187D01*
X130781554Y-116885250D01*
X130814500Y-116942314D01*
X130907686Y-117035500D01*
X131021814Y-117101392D01*
X131149108Y-117135500D01*
X131149110Y-117135500D01*
X131280890Y-117135500D01*
X131280892Y-117135500D01*
X131408186Y-117101392D01*
X131522314Y-117035500D01*
X131615500Y-116942314D01*
X131681392Y-116828186D01*
X131715500Y-116700892D01*
X131715500Y-116569108D01*
X132064500Y-116569108D01*
X132064500Y-116700892D01*
X132081554Y-116764539D01*
X132098608Y-116828187D01*
X132131554Y-116885250D01*
X132164500Y-116942314D01*
X132257686Y-117035500D01*
X132371814Y-117101392D01*
X132499108Y-117135500D01*
X132499110Y-117135500D01*
X132630890Y-117135500D01*
X132630892Y-117135500D01*
X132758186Y-117101392D01*
X132872314Y-117035500D01*
X132965500Y-116942314D01*
X133031392Y-116828186D01*
X133065500Y-116700892D01*
X133065500Y-116569108D01*
X133474500Y-116569108D01*
X133474500Y-116700892D01*
X133491554Y-116764539D01*
X133508608Y-116828187D01*
X133541554Y-116885250D01*
X133574500Y-116942314D01*
X133667686Y-117035500D01*
X133781814Y-117101392D01*
X133909108Y-117135500D01*
X133909110Y-117135500D01*
X134040890Y-117135500D01*
X134040892Y-117135500D01*
X134168186Y-117101392D01*
X134282314Y-117035500D01*
X134375500Y-116942314D01*
X134441392Y-116828186D01*
X134475500Y-116700892D01*
X134475500Y-116579108D01*
X134824500Y-116579108D01*
X134824500Y-116710891D01*
X134858608Y-116838187D01*
X134891554Y-116895250D01*
X134924500Y-116952314D01*
X135017686Y-117045500D01*
X135131814Y-117111392D01*
X135259108Y-117145500D01*
X135259110Y-117145500D01*
X135390890Y-117145500D01*
X135390892Y-117145500D01*
X135518186Y-117111392D01*
X135632314Y-117045500D01*
X135725500Y-116952314D01*
X135791392Y-116838186D01*
X135825500Y-116710892D01*
X135825500Y-116579108D01*
X135791392Y-116451814D01*
X135785618Y-116441814D01*
X135767658Y-116410706D01*
X135725500Y-116337686D01*
X135632314Y-116244500D01*
X135575250Y-116211554D01*
X135518187Y-116178608D01*
X135454539Y-116161554D01*
X135390892Y-116144500D01*
X135259108Y-116144500D01*
X135131812Y-116178608D01*
X135017686Y-116244500D01*
X135017683Y-116244502D01*
X134924502Y-116337683D01*
X134924500Y-116337686D01*
X134858608Y-116451812D01*
X134824500Y-116579108D01*
X134475500Y-116579108D01*
X134475500Y-116569108D01*
X134441392Y-116441814D01*
X134439189Y-116437999D01*
X134392990Y-116357980D01*
X134375500Y-116327686D01*
X134282314Y-116234500D01*
X134225250Y-116201554D01*
X134168187Y-116168608D01*
X134104539Y-116151554D01*
X134040892Y-116134500D01*
X133909108Y-116134500D01*
X133781812Y-116168608D01*
X133667686Y-116234500D01*
X133667683Y-116234502D01*
X133574502Y-116327683D01*
X133574500Y-116327686D01*
X133508608Y-116441812D01*
X133482835Y-116538000D01*
X133474500Y-116569108D01*
X133065500Y-116569108D01*
X133031392Y-116441814D01*
X133029189Y-116437999D01*
X132982990Y-116357980D01*
X132965500Y-116327686D01*
X132872314Y-116234500D01*
X132815250Y-116201554D01*
X132758187Y-116168608D01*
X132694539Y-116151554D01*
X132630892Y-116134500D01*
X132499108Y-116134500D01*
X132371812Y-116168608D01*
X132257686Y-116234500D01*
X132257683Y-116234502D01*
X132164502Y-116327683D01*
X132164500Y-116327686D01*
X132098608Y-116441812D01*
X132072835Y-116538000D01*
X132064500Y-116569108D01*
X131715500Y-116569108D01*
X131681392Y-116441814D01*
X131679189Y-116437999D01*
X131632990Y-116357980D01*
X131615500Y-116327686D01*
X131522314Y-116234500D01*
X131465250Y-116201554D01*
X131408187Y-116168608D01*
X131344539Y-116151554D01*
X131280892Y-116134500D01*
X131149108Y-116134500D01*
X131021812Y-116168608D01*
X130907686Y-116234500D01*
X130907683Y-116234502D01*
X130814502Y-116327683D01*
X130814500Y-116327686D01*
X130748608Y-116441812D01*
X130722835Y-116538000D01*
X130714500Y-116569108D01*
X124575501Y-116569108D01*
X123185501Y-115179108D01*
X130714500Y-115179108D01*
X130714500Y-115310891D01*
X130748608Y-115438187D01*
X130766319Y-115468863D01*
X130814500Y-115552314D01*
X130907686Y-115645500D01*
X131021814Y-115711392D01*
X131149108Y-115745500D01*
X131149110Y-115745500D01*
X131280890Y-115745500D01*
X131280892Y-115745500D01*
X131408186Y-115711392D01*
X131522314Y-115645500D01*
X131615500Y-115552314D01*
X131681392Y-115438186D01*
X131715500Y-115310892D01*
X131715500Y-115179108D01*
X132074500Y-115179108D01*
X132074500Y-115310891D01*
X132108608Y-115438187D01*
X132126319Y-115468863D01*
X132174500Y-115552314D01*
X132267686Y-115645500D01*
X132381814Y-115711392D01*
X132509108Y-115745500D01*
X132509110Y-115745500D01*
X132640890Y-115745500D01*
X132640892Y-115745500D01*
X132768186Y-115711392D01*
X132882314Y-115645500D01*
X132975500Y-115552314D01*
X133041392Y-115438186D01*
X133075500Y-115310892D01*
X133075500Y-115179108D01*
X133072821Y-115169108D01*
X133464500Y-115169108D01*
X133464500Y-115300892D01*
X133467974Y-115313856D01*
X133498608Y-115428187D01*
X133504382Y-115438187D01*
X133564500Y-115542314D01*
X133657686Y-115635500D01*
X133771814Y-115701392D01*
X133899108Y-115735500D01*
X133899110Y-115735500D01*
X134030890Y-115735500D01*
X134030892Y-115735500D01*
X134158186Y-115701392D01*
X134272314Y-115635500D01*
X134365500Y-115542314D01*
X134431392Y-115428186D01*
X134465500Y-115300892D01*
X134465500Y-115169108D01*
X134844500Y-115169108D01*
X134844500Y-115300892D01*
X134847974Y-115313856D01*
X134878608Y-115428187D01*
X134884382Y-115438187D01*
X134944500Y-115542314D01*
X135037686Y-115635500D01*
X135151814Y-115701392D01*
X135279108Y-115735500D01*
X135279110Y-115735500D01*
X135410890Y-115735500D01*
X135410892Y-115735500D01*
X135538186Y-115701392D01*
X135652314Y-115635500D01*
X135745500Y-115542314D01*
X135811392Y-115428186D01*
X135845500Y-115300892D01*
X135845500Y-115169108D01*
X135811392Y-115041814D01*
X135745500Y-114927686D01*
X135652314Y-114834500D01*
X135595250Y-114801554D01*
X135538187Y-114768608D01*
X135474539Y-114751554D01*
X135410892Y-114734500D01*
X135279108Y-114734500D01*
X135151812Y-114768608D01*
X135037686Y-114834500D01*
X135037683Y-114834502D01*
X134944502Y-114927683D01*
X134944500Y-114927686D01*
X134878608Y-115041812D01*
X134866416Y-115087314D01*
X134844500Y-115169108D01*
X134465500Y-115169108D01*
X134431392Y-115041814D01*
X134365500Y-114927686D01*
X134272314Y-114834500D01*
X134215250Y-114801554D01*
X134158187Y-114768608D01*
X134094539Y-114751554D01*
X134030892Y-114734500D01*
X133899108Y-114734500D01*
X133771812Y-114768608D01*
X133657686Y-114834500D01*
X133657683Y-114834502D01*
X133564502Y-114927683D01*
X133564500Y-114927686D01*
X133498608Y-115041812D01*
X133486416Y-115087314D01*
X133464500Y-115169108D01*
X133072821Y-115169108D01*
X133041392Y-115051814D01*
X133035618Y-115041814D01*
X133032563Y-115036521D01*
X132975500Y-114937686D01*
X132882314Y-114844500D01*
X132825250Y-114811554D01*
X132768187Y-114778608D01*
X132704539Y-114761554D01*
X132640892Y-114744500D01*
X132509108Y-114744500D01*
X132381812Y-114778608D01*
X132267686Y-114844500D01*
X132267683Y-114844502D01*
X132174502Y-114937683D01*
X132174500Y-114937686D01*
X132108608Y-115051812D01*
X132074500Y-115179108D01*
X131715500Y-115179108D01*
X131681392Y-115051814D01*
X131675618Y-115041814D01*
X131672563Y-115036521D01*
X131615500Y-114937686D01*
X131522314Y-114844500D01*
X131465250Y-114811554D01*
X131408187Y-114778608D01*
X131344539Y-114761554D01*
X131280892Y-114744500D01*
X131149108Y-114744500D01*
X131021812Y-114778608D01*
X130907686Y-114844500D01*
X130907683Y-114844502D01*
X130814502Y-114937683D01*
X130814500Y-114937686D01*
X130748608Y-115051812D01*
X130714500Y-115179108D01*
X123185501Y-115179108D01*
X122081819Y-114075426D01*
X122048334Y-114014103D01*
X122045500Y-113987745D01*
X122045500Y-108170539D01*
X122062112Y-108108540D01*
X122111392Y-108023186D01*
X122145500Y-107895892D01*
X122145500Y-107764108D01*
X122111392Y-107636814D01*
X122045500Y-107522686D01*
X121952314Y-107429500D01*
X121895250Y-107396554D01*
X121838187Y-107363608D01*
X121757946Y-107342108D01*
X121710892Y-107329500D01*
X121579108Y-107329500D01*
X121451812Y-107363608D01*
X121337686Y-107429500D01*
X121337683Y-107429502D01*
X121244502Y-107522683D01*
X121244500Y-107522686D01*
X121178608Y-107636812D01*
X121159430Y-107708387D01*
X121144500Y-107764108D01*
X121144500Y-107895892D01*
X121178608Y-108023186D01*
X121227887Y-108108540D01*
X121244500Y-108170539D01*
X121244500Y-113581834D01*
X121224815Y-113648873D01*
X121172011Y-113694628D01*
X121102853Y-113704572D01*
X121088408Y-113701609D01*
X121005893Y-113679500D01*
X121005892Y-113679500D01*
X120874108Y-113679500D01*
X120746812Y-113713608D01*
X120632686Y-113779500D01*
X120632683Y-113779502D01*
X120619005Y-113793181D01*
X120557682Y-113826666D01*
X120531324Y-113829500D01*
X118816027Y-113829500D01*
X118748988Y-113809815D01*
X118728346Y-113793181D01*
X118714667Y-113779502D01*
X118714665Y-113779500D01*
X118657601Y-113746554D01*
X118600538Y-113713608D01*
X118529702Y-113694628D01*
X118473243Y-113679500D01*
X118341459Y-113679500D01*
X118214163Y-113713608D01*
X118100037Y-113779500D01*
X118100034Y-113779502D01*
X118006853Y-113872683D01*
X118006851Y-113872686D01*
X117940959Y-113986812D01*
X117919155Y-114068187D01*
X117906851Y-114114108D01*
X105500500Y-114114108D01*
X105500500Y-110364796D01*
X111229500Y-110364796D01*
X111229500Y-110545899D01*
X111257829Y-110724758D01*
X111313787Y-110896984D01*
X111313788Y-110896987D01*
X111396006Y-111058345D01*
X111502441Y-111204842D01*
X111502445Y-111204847D01*
X111630500Y-111332902D01*
X111630505Y-111332906D01*
X111752294Y-111421390D01*
X111777006Y-111439344D01*
X111882484Y-111493088D01*
X111938360Y-111521559D01*
X111938363Y-111521560D01*
X111988405Y-111537819D01*
X112110591Y-111577519D01*
X112193429Y-111590639D01*
X112289449Y-111605848D01*
X112289454Y-111605848D01*
X112470551Y-111605848D01*
X112557259Y-111592113D01*
X112649409Y-111577519D01*
X112821639Y-111521559D01*
X112982994Y-111439344D01*
X113129501Y-111332901D01*
X113257553Y-111204849D01*
X113363996Y-111058342D01*
X113446211Y-110896987D01*
X113502171Y-110724757D01*
X113529137Y-110554502D01*
X113530500Y-110545899D01*
X113530500Y-110364796D01*
X113513925Y-110260152D01*
X113502171Y-110185939D01*
X113467912Y-110080499D01*
X113446212Y-110013711D01*
X113446211Y-110013708D01*
X113417740Y-109957832D01*
X113363996Y-109852354D01*
X113334395Y-109811612D01*
X113257558Y-109705853D01*
X113257554Y-109705848D01*
X113129499Y-109577793D01*
X113129494Y-109577789D01*
X112982997Y-109471354D01*
X112982996Y-109471353D01*
X112982994Y-109471352D01*
X112931300Y-109445012D01*
X112821639Y-109389136D01*
X112821636Y-109389135D01*
X112649410Y-109333177D01*
X112470551Y-109304848D01*
X112470546Y-109304848D01*
X112289454Y-109304848D01*
X112289449Y-109304848D01*
X112110589Y-109333177D01*
X111938363Y-109389135D01*
X111938360Y-109389136D01*
X111777002Y-109471354D01*
X111630505Y-109577789D01*
X111630500Y-109577793D01*
X111502445Y-109705848D01*
X111502441Y-109705853D01*
X111396006Y-109852350D01*
X111313788Y-110013708D01*
X111313787Y-110013711D01*
X111257829Y-110185937D01*
X111229500Y-110364796D01*
X105500500Y-110364796D01*
X105500500Y-104124343D01*
X111679499Y-104124343D01*
X111706418Y-104259670D01*
X111706421Y-104259680D01*
X111759221Y-104387152D01*
X111759228Y-104387165D01*
X111835885Y-104501889D01*
X111835888Y-104501893D01*
X111933454Y-104599459D01*
X111933458Y-104599462D01*
X112048182Y-104676119D01*
X112048195Y-104676126D01*
X112143355Y-104715542D01*
X112175672Y-104728928D01*
X112175676Y-104728928D01*
X112175677Y-104728929D01*
X112311004Y-104755848D01*
X112389062Y-104755848D01*
X112456101Y-104775533D01*
X112501856Y-104828337D01*
X112511800Y-104897495D01*
X112508837Y-104911939D01*
X112489500Y-104984108D01*
X112489500Y-105115892D01*
X112498987Y-105151298D01*
X112523608Y-105243187D01*
X112550567Y-105289881D01*
X112589500Y-105357314D01*
X112682686Y-105450500D01*
X112796814Y-105516392D01*
X112924108Y-105550500D01*
X112924110Y-105550500D01*
X113055890Y-105550500D01*
X113055892Y-105550500D01*
X113183186Y-105516392D01*
X113297314Y-105450500D01*
X113390500Y-105357314D01*
X113408953Y-105325351D01*
X113459518Y-105277138D01*
X113528124Y-105263914D01*
X113592989Y-105289881D01*
X113623726Y-105325352D01*
X113659500Y-105387314D01*
X113752686Y-105480500D01*
X113814853Y-105516392D01*
X113864773Y-105545214D01*
X113866814Y-105546392D01*
X113994108Y-105580500D01*
X113994110Y-105580500D01*
X114125890Y-105580500D01*
X114125892Y-105580500D01*
X114253186Y-105546392D01*
X114367314Y-105480500D01*
X114460500Y-105387314D01*
X114474727Y-105362671D01*
X114525292Y-105314458D01*
X114593899Y-105301234D01*
X114658764Y-105327202D01*
X114689499Y-105362672D01*
X114709500Y-105397314D01*
X114802686Y-105490500D01*
X114916814Y-105556392D01*
X115044108Y-105590500D01*
X115044110Y-105590500D01*
X115175890Y-105590500D01*
X115175892Y-105590500D01*
X115303186Y-105556392D01*
X115417314Y-105490500D01*
X115510500Y-105397314D01*
X115576392Y-105283186D01*
X115610500Y-105155892D01*
X115610500Y-105024108D01*
X115576392Y-104896814D01*
X115570618Y-104886814D01*
X115545204Y-104842795D01*
X115510500Y-104782686D01*
X115417314Y-104689500D01*
X115348032Y-104649500D01*
X115303187Y-104623608D01*
X115213071Y-104599462D01*
X115175892Y-104589500D01*
X115044108Y-104589500D01*
X114916812Y-104623608D01*
X114802686Y-104689500D01*
X114802683Y-104689502D01*
X114709502Y-104782683D01*
X114709500Y-104782686D01*
X114695272Y-104807329D01*
X114644703Y-104855543D01*
X114576096Y-104868764D01*
X114511232Y-104842795D01*
X114480500Y-104807328D01*
X114460500Y-104772686D01*
X114367314Y-104679500D01*
X114310250Y-104646554D01*
X114253187Y-104613608D01*
X114189539Y-104596554D01*
X114125892Y-104579500D01*
X113994108Y-104579500D01*
X113866812Y-104613608D01*
X113752686Y-104679500D01*
X113752683Y-104679502D01*
X113659502Y-104772683D01*
X113659498Y-104772689D01*
X113641046Y-104804648D01*
X113590478Y-104852863D01*
X113521871Y-104866084D01*
X113457007Y-104840115D01*
X113426273Y-104804646D01*
X113390502Y-104742689D01*
X113390497Y-104742683D01*
X113297316Y-104649502D01*
X113297314Y-104649500D01*
X113210641Y-104599459D01*
X113183187Y-104583608D01*
X113147568Y-104574064D01*
X113082330Y-104556584D01*
X113022671Y-104520220D01*
X112992142Y-104457373D01*
X112999864Y-104389357D01*
X113000773Y-104387161D01*
X113000775Y-104387159D01*
X113053580Y-104259676D01*
X113062389Y-104215389D01*
X113080500Y-104124343D01*
X113080500Y-103986352D01*
X113053581Y-103851025D01*
X113053580Y-103851024D01*
X113053580Y-103851020D01*
X113022461Y-103775891D01*
X113000778Y-103723543D01*
X113000771Y-103723530D01*
X112924114Y-103608806D01*
X112924111Y-103608802D01*
X112826545Y-103511236D01*
X112826541Y-103511233D01*
X112711817Y-103434576D01*
X112711804Y-103434569D01*
X112584332Y-103381769D01*
X112584322Y-103381766D01*
X112448995Y-103354848D01*
X112448993Y-103354848D01*
X112311007Y-103354848D01*
X112311005Y-103354848D01*
X112175677Y-103381766D01*
X112175667Y-103381769D01*
X112048195Y-103434569D01*
X112048182Y-103434576D01*
X111933458Y-103511233D01*
X111933454Y-103511236D01*
X111835888Y-103608802D01*
X111835885Y-103608806D01*
X111759228Y-103723530D01*
X111759221Y-103723543D01*
X111706421Y-103851015D01*
X111706418Y-103851025D01*
X111679500Y-103986352D01*
X111679500Y-103986355D01*
X111679500Y-104124341D01*
X111679500Y-104124343D01*
X111679499Y-104124343D01*
X105500500Y-104124343D01*
X105500500Y-101434108D01*
X110449500Y-101434108D01*
X110449500Y-101565892D01*
X110454017Y-101582749D01*
X110483608Y-101693187D01*
X110507461Y-101734500D01*
X110549500Y-101807314D01*
X110642686Y-101900500D01*
X110756814Y-101966392D01*
X110884108Y-102000500D01*
X110884110Y-102000500D01*
X111015890Y-102000500D01*
X111015892Y-102000500D01*
X111143186Y-101966392D01*
X111257314Y-101900500D01*
X111350500Y-101807314D01*
X111416392Y-101693186D01*
X111450500Y-101565892D01*
X111450500Y-101434108D01*
X111689500Y-101434108D01*
X111689500Y-101565892D01*
X111714869Y-101660574D01*
X111723608Y-101693187D01*
X111747461Y-101734500D01*
X111789500Y-101807314D01*
X111882686Y-101900500D01*
X111996814Y-101966392D01*
X112124108Y-102000500D01*
X112124110Y-102000500D01*
X112255890Y-102000500D01*
X112255892Y-102000500D01*
X112383186Y-101966392D01*
X112497314Y-101900500D01*
X112590500Y-101807314D01*
X112656392Y-101693186D01*
X112690500Y-101565892D01*
X112690500Y-101434108D01*
X112656392Y-101306814D01*
X112590500Y-101192686D01*
X112497314Y-101099500D01*
X112440250Y-101066554D01*
X112383187Y-101033608D01*
X112319539Y-101016554D01*
X112255892Y-100999500D01*
X112124108Y-100999500D01*
X111996812Y-101033608D01*
X111882686Y-101099500D01*
X111882683Y-101099502D01*
X111789502Y-101192683D01*
X111789500Y-101192686D01*
X111723608Y-101306812D01*
X111712170Y-101349500D01*
X111689500Y-101434108D01*
X111450500Y-101434108D01*
X111416392Y-101306814D01*
X111350500Y-101192686D01*
X111257314Y-101099500D01*
X111200250Y-101066554D01*
X111143187Y-101033608D01*
X111079539Y-101016554D01*
X111015892Y-100999500D01*
X110884108Y-100999500D01*
X110756812Y-101033608D01*
X110642686Y-101099500D01*
X110642683Y-101099502D01*
X110549502Y-101192683D01*
X110549500Y-101192686D01*
X110483608Y-101306812D01*
X110472170Y-101349500D01*
X110449500Y-101434108D01*
X105500500Y-101434108D01*
X105500500Y-99066260D01*
X114499500Y-99066260D01*
X114499500Y-99198044D01*
X114515395Y-99257367D01*
X114533608Y-99325339D01*
X114541269Y-99338608D01*
X114599500Y-99439466D01*
X114692686Y-99532652D01*
X114791521Y-99589715D01*
X114806810Y-99598542D01*
X114806814Y-99598544D01*
X114934108Y-99632652D01*
X114934110Y-99632652D01*
X115065890Y-99632652D01*
X115065892Y-99632652D01*
X115193186Y-99598544D01*
X115278540Y-99549265D01*
X115340540Y-99532652D01*
X116139897Y-99532652D01*
X116206936Y-99552337D01*
X116227578Y-99568971D01*
X129655518Y-112996910D01*
X129655520Y-112996913D01*
X129730087Y-113071480D01*
X129816510Y-113121376D01*
X129821413Y-113124207D01*
X129923273Y-113151501D01*
X129923275Y-113151501D01*
X130036323Y-113151501D01*
X130036339Y-113151500D01*
X132389482Y-113151500D01*
X132456521Y-113171185D01*
X132502276Y-113223989D01*
X132512220Y-113293147D01*
X132483195Y-113356703D01*
X132424417Y-113394477D01*
X132421597Y-113395268D01*
X132403988Y-113399987D01*
X132371812Y-113408608D01*
X132257686Y-113474500D01*
X132257683Y-113474502D01*
X132164502Y-113567683D01*
X132164500Y-113567686D01*
X132098608Y-113681812D01*
X132093304Y-113701609D01*
X132064500Y-113809108D01*
X132064500Y-113940892D01*
X132076631Y-113986166D01*
X132098608Y-114068187D01*
X132102788Y-114075426D01*
X132164500Y-114182314D01*
X132257686Y-114275500D01*
X132371814Y-114341392D01*
X132499108Y-114375500D01*
X132499110Y-114375500D01*
X132630890Y-114375500D01*
X132630892Y-114375500D01*
X132758186Y-114341392D01*
X132872314Y-114275500D01*
X132965500Y-114182314D01*
X133031392Y-114068186D01*
X133065500Y-113940892D01*
X133065500Y-113809108D01*
X133031392Y-113681814D01*
X132965500Y-113567686D01*
X132872314Y-113474500D01*
X132811013Y-113439108D01*
X132758187Y-113408608D01*
X132734413Y-113402238D01*
X132708424Y-113395274D01*
X132648764Y-113358910D01*
X132618235Y-113296063D01*
X132626530Y-113226688D01*
X132671015Y-113172810D01*
X132737567Y-113151535D01*
X132740518Y-113151500D01*
X133789482Y-113151500D01*
X133856521Y-113171185D01*
X133902276Y-113223989D01*
X133912220Y-113293147D01*
X133883195Y-113356703D01*
X133824417Y-113394477D01*
X133821597Y-113395268D01*
X133803988Y-113399987D01*
X133771812Y-113408608D01*
X133657686Y-113474500D01*
X133657683Y-113474502D01*
X133564502Y-113567683D01*
X133564500Y-113567686D01*
X133498608Y-113681812D01*
X133493304Y-113701609D01*
X133464500Y-113809108D01*
X133464500Y-113940892D01*
X133476631Y-113986166D01*
X133498608Y-114068187D01*
X133502788Y-114075426D01*
X133564500Y-114182314D01*
X133657686Y-114275500D01*
X133771814Y-114341392D01*
X133899108Y-114375500D01*
X133899110Y-114375500D01*
X134030890Y-114375500D01*
X134030892Y-114375500D01*
X134158186Y-114341392D01*
X134272314Y-114275500D01*
X134365500Y-114182314D01*
X134431392Y-114068186D01*
X134465500Y-113940892D01*
X134465500Y-113809108D01*
X134431392Y-113681814D01*
X134365500Y-113567686D01*
X134272314Y-113474500D01*
X134211013Y-113439108D01*
X134158187Y-113408608D01*
X134134413Y-113402238D01*
X134108424Y-113395274D01*
X134048764Y-113358910D01*
X134018235Y-113296063D01*
X134026530Y-113226688D01*
X134071015Y-113172810D01*
X134137567Y-113151535D01*
X134140518Y-113151500D01*
X134348745Y-113151500D01*
X134415784Y-113171185D01*
X134436426Y-113187819D01*
X137606587Y-116357980D01*
X137697912Y-116410707D01*
X137799773Y-116438000D01*
X137905227Y-116438000D01*
X138779460Y-116438000D01*
X138841460Y-116454613D01*
X138926814Y-116503892D01*
X139054108Y-116538000D01*
X139054110Y-116538000D01*
X139185890Y-116538000D01*
X139185892Y-116538000D01*
X139313186Y-116503892D01*
X139427314Y-116438000D01*
X139520500Y-116344814D01*
X139586392Y-116230686D01*
X139620500Y-116103392D01*
X139620500Y-115971608D01*
X139586392Y-115844314D01*
X139520500Y-115730186D01*
X139427314Y-115637000D01*
X139364408Y-115600681D01*
X139313187Y-115571108D01*
X139243041Y-115552313D01*
X139185892Y-115537000D01*
X139054108Y-115537000D01*
X138926814Y-115571108D01*
X138926813Y-115571108D01*
X138926811Y-115571109D01*
X138926810Y-115571109D01*
X138841460Y-115620387D01*
X138835558Y-115621818D01*
X138830971Y-115625794D01*
X138779460Y-115637000D01*
X138069755Y-115637000D01*
X138002716Y-115617315D01*
X137982074Y-115600681D01*
X137773574Y-115392181D01*
X137740089Y-115330858D01*
X137745073Y-115261166D01*
X137786945Y-115205233D01*
X137852409Y-115180816D01*
X137861255Y-115180500D01*
X138779460Y-115180500D01*
X138788687Y-115182972D01*
X138797107Y-115181762D01*
X138815474Y-115190150D01*
X138841460Y-115197113D01*
X138885141Y-115222332D01*
X138926814Y-115246392D01*
X139054108Y-115280500D01*
X139054110Y-115280500D01*
X139185890Y-115280500D01*
X139185892Y-115280500D01*
X139313186Y-115246392D01*
X139427314Y-115180500D01*
X139520500Y-115087314D01*
X139586392Y-114973186D01*
X139620500Y-114845892D01*
X139620500Y-114714108D01*
X139586392Y-114586814D01*
X139582745Y-114580498D01*
X139553879Y-114530500D01*
X139520500Y-114472686D01*
X139427314Y-114379500D01*
X139361309Y-114341392D01*
X139313187Y-114313608D01*
X139249539Y-114296554D01*
X139185892Y-114279500D01*
X139054108Y-114279500D01*
X138926814Y-114313608D01*
X138926813Y-114313608D01*
X138926811Y-114313609D01*
X138926810Y-114313609D01*
X138841460Y-114362887D01*
X138835558Y-114364318D01*
X138830971Y-114368294D01*
X138779460Y-114379500D01*
X137662196Y-114379500D01*
X137595157Y-114359815D01*
X137574515Y-114343181D01*
X137348515Y-114117181D01*
X137315030Y-114055858D01*
X137320014Y-113986166D01*
X137361886Y-113930233D01*
X137427350Y-113905816D01*
X137436196Y-113905500D01*
X138779460Y-113905500D01*
X138788687Y-113907972D01*
X138797107Y-113906762D01*
X138815474Y-113915150D01*
X138841460Y-113922113D01*
X138885141Y-113947332D01*
X138926814Y-113971392D01*
X139054108Y-114005500D01*
X139054110Y-114005500D01*
X139185890Y-114005500D01*
X139185892Y-114005500D01*
X139313186Y-113971392D01*
X139427314Y-113905500D01*
X139520500Y-113812314D01*
X139586392Y-113698186D01*
X139620500Y-113570892D01*
X139620500Y-113439108D01*
X139586392Y-113311814D01*
X139520500Y-113197686D01*
X139427314Y-113104500D01*
X139364408Y-113068181D01*
X139313187Y-113038608D01*
X139249539Y-113021554D01*
X139185892Y-113004500D01*
X139054108Y-113004500D01*
X138926814Y-113038608D01*
X138926813Y-113038608D01*
X138926811Y-113038609D01*
X138926810Y-113038609D01*
X138841460Y-113087887D01*
X138835558Y-113089318D01*
X138830971Y-113093294D01*
X138779460Y-113104500D01*
X137237138Y-113104500D01*
X137170099Y-113084815D01*
X137149457Y-113068181D01*
X136923457Y-112842181D01*
X136889972Y-112780858D01*
X136894956Y-112711166D01*
X136936828Y-112655233D01*
X137002292Y-112630816D01*
X137011138Y-112630500D01*
X138779460Y-112630500D01*
X138788687Y-112632972D01*
X138797107Y-112631762D01*
X138815474Y-112640150D01*
X138841460Y-112647113D01*
X138885141Y-112672332D01*
X138926814Y-112696392D01*
X139054108Y-112730500D01*
X139054110Y-112730500D01*
X139185890Y-112730500D01*
X139185892Y-112730500D01*
X139313186Y-112696392D01*
X139427314Y-112630500D01*
X139520500Y-112537314D01*
X139586392Y-112423186D01*
X139620500Y-112295892D01*
X139620500Y-112164108D01*
X139586392Y-112036814D01*
X139520500Y-111922686D01*
X139427314Y-111829500D01*
X139364408Y-111793181D01*
X139313187Y-111763608D01*
X139249539Y-111746554D01*
X139185892Y-111729500D01*
X139054108Y-111729500D01*
X138926814Y-111763608D01*
X138926813Y-111763608D01*
X138926811Y-111763609D01*
X138926810Y-111763609D01*
X138841460Y-111812887D01*
X138779460Y-111829500D01*
X136812081Y-111829500D01*
X136782640Y-111820855D01*
X136752654Y-111814332D01*
X136747638Y-111810577D01*
X136745042Y-111809815D01*
X136724400Y-111793181D01*
X136575394Y-111644175D01*
X136541909Y-111582852D01*
X136546893Y-111513160D01*
X136588765Y-111457227D01*
X136630979Y-111436720D01*
X136688186Y-111421392D01*
X136773540Y-111372113D01*
X136835540Y-111355500D01*
X143097725Y-111355500D01*
X143097727Y-111355500D01*
X143199588Y-111328207D01*
X143290913Y-111275480D01*
X149680571Y-104885821D01*
X149736154Y-104853730D01*
X149838186Y-104826392D01*
X149952314Y-104760500D01*
X150045500Y-104667314D01*
X150111392Y-104553186D01*
X150145500Y-104425892D01*
X150145500Y-104294108D01*
X150111392Y-104166814D01*
X150045500Y-104052686D01*
X149952314Y-103959500D01*
X149895250Y-103926554D01*
X149838187Y-103893608D01*
X149774539Y-103876554D01*
X149710892Y-103859500D01*
X149579108Y-103859500D01*
X149451812Y-103893608D01*
X149337686Y-103959500D01*
X149337683Y-103959502D01*
X149244502Y-104052683D01*
X149244500Y-104052686D01*
X149178607Y-104166814D01*
X149178607Y-104166815D01*
X149154928Y-104255184D01*
X149122835Y-104310770D01*
X142915426Y-110518181D01*
X142854103Y-110551666D01*
X142827745Y-110554500D01*
X136835540Y-110554500D01*
X136773540Y-110537887D01*
X136688188Y-110488609D01*
X136688187Y-110488608D01*
X136688186Y-110488608D01*
X136560892Y-110454500D01*
X136429108Y-110454500D01*
X136301812Y-110488608D01*
X136187686Y-110554500D01*
X136187683Y-110554502D01*
X136094502Y-110647683D01*
X136094500Y-110647686D01*
X136028607Y-110761814D01*
X136028607Y-110761815D01*
X136013279Y-110819019D01*
X135976914Y-110878679D01*
X135914066Y-110909207D01*
X135844691Y-110900912D01*
X135805824Y-110874605D01*
X135277833Y-110346614D01*
X135265754Y-110324493D01*
X135250240Y-110304627D01*
X135249293Y-110294348D01*
X135244348Y-110285291D01*
X135246145Y-110260152D01*
X135243835Y-110235052D01*
X135248595Y-110225894D01*
X135249332Y-110215599D01*
X135264437Y-110195421D01*
X135276063Y-110173058D01*
X135286527Y-110165913D01*
X135291204Y-110159666D01*
X135303880Y-110151336D01*
X135311917Y-110146731D01*
X135313186Y-110146392D01*
X135398554Y-110097104D01*
X135398906Y-110096903D01*
X135402773Y-110095978D01*
X135460540Y-110080500D01*
X142147725Y-110080500D01*
X142147727Y-110080500D01*
X142249588Y-110053207D01*
X142340913Y-110000480D01*
X150110211Y-102231180D01*
X150171532Y-102197697D01*
X150241224Y-102202681D01*
X150297157Y-102244553D01*
X150321574Y-102310017D01*
X150319111Y-102335861D01*
X150320561Y-102336052D01*
X150319500Y-102344110D01*
X150319500Y-102475891D01*
X150353608Y-102603187D01*
X150374574Y-102639500D01*
X150419500Y-102717314D01*
X150419502Y-102717316D01*
X150433181Y-102730995D01*
X150466666Y-102792318D01*
X150469500Y-102818676D01*
X150469500Y-107691416D01*
X150449815Y-107758455D01*
X150433181Y-107779097D01*
X141291597Y-116920681D01*
X141230274Y-116954166D01*
X141203916Y-116957000D01*
X139528676Y-116957000D01*
X139461637Y-116937315D01*
X139440995Y-116920681D01*
X139427316Y-116907002D01*
X139427314Y-116907000D01*
X139370250Y-116874054D01*
X139313187Y-116841108D01*
X139249539Y-116824054D01*
X139185892Y-116807000D01*
X139054108Y-116807000D01*
X138926812Y-116841108D01*
X138812686Y-116907000D01*
X138812683Y-116907002D01*
X138719502Y-117000183D01*
X138719500Y-117000186D01*
X138653608Y-117114312D01*
X138619500Y-117241608D01*
X138619500Y-117373391D01*
X138653608Y-117500687D01*
X138686554Y-117557750D01*
X138719500Y-117614814D01*
X138812686Y-117708000D01*
X138926814Y-117773892D01*
X139054108Y-117808000D01*
X139054110Y-117808000D01*
X139185890Y-117808000D01*
X139185892Y-117808000D01*
X139313186Y-117773892D01*
X139427314Y-117708000D01*
X139440995Y-117694319D01*
X139502318Y-117660834D01*
X139528676Y-117658000D01*
X140963436Y-117658000D01*
X141030475Y-117677685D01*
X141076230Y-117730489D01*
X141086174Y-117799647D01*
X141057149Y-117863203D01*
X141051117Y-117869681D01*
X140730117Y-118190681D01*
X140668794Y-118224166D01*
X140642436Y-118227000D01*
X139528676Y-118227000D01*
X139461637Y-118207315D01*
X139440995Y-118190681D01*
X139427316Y-118177002D01*
X139427314Y-118177000D01*
X139370250Y-118144054D01*
X139313187Y-118111108D01*
X139249539Y-118094054D01*
X139185892Y-118077000D01*
X139054108Y-118077000D01*
X138926812Y-118111108D01*
X138812686Y-118177000D01*
X138812683Y-118177002D01*
X138719502Y-118270183D01*
X138719500Y-118270186D01*
X138653608Y-118384312D01*
X138619500Y-118511608D01*
X138619500Y-118643391D01*
X138653608Y-118770687D01*
X138686554Y-118827750D01*
X138719500Y-118884814D01*
X138812686Y-118978000D01*
X138926814Y-119043892D01*
X139054108Y-119078000D01*
X139054110Y-119078000D01*
X139185890Y-119078000D01*
X139185892Y-119078000D01*
X139313186Y-119043892D01*
X139427314Y-118978000D01*
X139440995Y-118964319D01*
X139502318Y-118930834D01*
X139528676Y-118928000D01*
X140401956Y-118928000D01*
X140468995Y-118947685D01*
X140514750Y-119000489D01*
X140524694Y-119069647D01*
X140495669Y-119133203D01*
X140489637Y-119139681D01*
X140168637Y-119460681D01*
X140107314Y-119494166D01*
X140080956Y-119497000D01*
X139528676Y-119497000D01*
X139461637Y-119477315D01*
X139440995Y-119460681D01*
X139427316Y-119447002D01*
X139427314Y-119447000D01*
X139346774Y-119400500D01*
X139313187Y-119381108D01*
X139249539Y-119364054D01*
X139185892Y-119347000D01*
X139054108Y-119347000D01*
X138926812Y-119381108D01*
X138812686Y-119447000D01*
X138812683Y-119447002D01*
X138719502Y-119540183D01*
X138719500Y-119540186D01*
X138653608Y-119654312D01*
X138645982Y-119682774D01*
X138619500Y-119781608D01*
X138619500Y-119913392D01*
X138630889Y-119955894D01*
X138653608Y-120040685D01*
X138653607Y-120040685D01*
X138653608Y-120040686D01*
X138719500Y-120154814D01*
X138812686Y-120248000D01*
X138926814Y-120313892D01*
X139054108Y-120348000D01*
X139054110Y-120348000D01*
X139185890Y-120348000D01*
X139185892Y-120348000D01*
X139313186Y-120313892D01*
X139427314Y-120248000D01*
X139440995Y-120234319D01*
X139502318Y-120200834D01*
X139528676Y-120198000D01*
X140323642Y-120198000D01*
X140323644Y-120198000D01*
X140412788Y-120174114D01*
X140423412Y-120167980D01*
X140492712Y-120127970D01*
X155075469Y-105545212D01*
X155121614Y-105465288D01*
X155121615Y-105465285D01*
X155125576Y-105450502D01*
X155125576Y-105450500D01*
X155130595Y-105431768D01*
X155145500Y-105376144D01*
X155145500Y-104118676D01*
X155165185Y-104051637D01*
X155181819Y-104030995D01*
X155195500Y-104017314D01*
X155261392Y-103903186D01*
X155295500Y-103775892D01*
X155295500Y-103644108D01*
X155261392Y-103516814D01*
X155195500Y-103402686D01*
X155102314Y-103309500D01*
X155036514Y-103271510D01*
X154988187Y-103243608D01*
X154900157Y-103220021D01*
X154860892Y-103209500D01*
X154729108Y-103209500D01*
X154729106Y-103209500D01*
X154626592Y-103236968D01*
X154556742Y-103235305D01*
X154498880Y-103196142D01*
X154471377Y-103131913D01*
X154470500Y-103117193D01*
X154470500Y-102158676D01*
X154490185Y-102091637D01*
X154506819Y-102070995D01*
X154520500Y-102057314D01*
X154586392Y-101943186D01*
X154600882Y-101889108D01*
X160879500Y-101889108D01*
X160879500Y-102020891D01*
X160913608Y-102148187D01*
X160917839Y-102155515D01*
X160979500Y-102262314D01*
X161159500Y-102442314D01*
X161252686Y-102535500D01*
X161303066Y-102564587D01*
X161366814Y-102601392D01*
X161494107Y-102635500D01*
X161494108Y-102635500D01*
X164713893Y-102635500D01*
X164734974Y-102641690D01*
X164756894Y-102643195D01*
X164767840Y-102651341D01*
X164780932Y-102655185D01*
X164795318Y-102671788D01*
X164812947Y-102684906D01*
X164817752Y-102697677D01*
X164826687Y-102707989D01*
X164829813Y-102729735D01*
X164837551Y-102750300D01*
X164835660Y-102770400D01*
X164836631Y-102777147D01*
X164835134Y-102785511D01*
X164833884Y-102791335D01*
X164833608Y-102791814D01*
X164799500Y-102919108D01*
X164799500Y-102951606D01*
X164796741Y-102964467D01*
X164786101Y-102984084D01*
X164779815Y-103005495D01*
X164763532Y-103025701D01*
X164763432Y-103025886D01*
X164763344Y-103025934D01*
X164763181Y-103026137D01*
X162891137Y-104898181D01*
X162829814Y-104931666D01*
X162803456Y-104934500D01*
X162784108Y-104934500D01*
X162656812Y-104968608D01*
X162542686Y-105034500D01*
X162542683Y-105034502D01*
X162449502Y-105127683D01*
X162449500Y-105127686D01*
X162383608Y-105241812D01*
X162349500Y-105369108D01*
X162349500Y-105500891D01*
X162383608Y-105628187D01*
X162416554Y-105685250D01*
X162449500Y-105742314D01*
X162542686Y-105835500D01*
X162656814Y-105901392D01*
X162784108Y-105935500D01*
X162784110Y-105935500D01*
X162915890Y-105935500D01*
X162915892Y-105935500D01*
X163043186Y-105901392D01*
X163157314Y-105835500D01*
X163250500Y-105742314D01*
X163316392Y-105628186D01*
X163350500Y-105500892D01*
X163350500Y-105481544D01*
X163370185Y-105414505D01*
X163386819Y-105393863D01*
X165258863Y-103521819D01*
X165320186Y-103488334D01*
X165346544Y-103485500D01*
X165365890Y-103485500D01*
X165365892Y-103485500D01*
X165493186Y-103451392D01*
X165607314Y-103385500D01*
X165687819Y-103304995D01*
X165749142Y-103271510D01*
X165818834Y-103276494D01*
X165874767Y-103318366D01*
X165899184Y-103383830D01*
X165899500Y-103392676D01*
X165899500Y-105026323D01*
X165879815Y-105093362D01*
X165863181Y-105114004D01*
X165175244Y-105801940D01*
X165175245Y-105801941D01*
X165099500Y-105877686D01*
X165033608Y-105991812D01*
X164999500Y-106119108D01*
X164999500Y-119631324D01*
X164979815Y-119698363D01*
X164963181Y-119719005D01*
X162772861Y-121909324D01*
X162711538Y-121942809D01*
X162646869Y-121939576D01*
X162637704Y-121936599D01*
X162637698Y-121936597D01*
X162506271Y-121915781D01*
X162466611Y-121909500D01*
X162293389Y-121909500D01*
X162253728Y-121915781D01*
X162122302Y-121936597D01*
X161957552Y-121990128D01*
X161803211Y-122068768D01*
X161730925Y-122121288D01*
X161663072Y-122170586D01*
X161663070Y-122170588D01*
X161663069Y-122170588D01*
X161540588Y-122293069D01*
X161540588Y-122293070D01*
X161540586Y-122293072D01*
X161501936Y-122346269D01*
X161438768Y-122433211D01*
X161360128Y-122587552D01*
X161306597Y-122752302D01*
X161279500Y-122923389D01*
X161279500Y-123096610D01*
X161299476Y-123222738D01*
X161306598Y-123267701D01*
X161360127Y-123432445D01*
X161438768Y-123586788D01*
X161540586Y-123726928D01*
X161663072Y-123849414D01*
X161803212Y-123951232D01*
X161957555Y-124029873D01*
X162122299Y-124083402D01*
X162293389Y-124110500D01*
X162293390Y-124110500D01*
X162466610Y-124110500D01*
X162466611Y-124110500D01*
X162637701Y-124083402D01*
X162802445Y-124029873D01*
X162956788Y-123951232D01*
X163096928Y-123849414D01*
X163219414Y-123726928D01*
X163321232Y-123586788D01*
X163399873Y-123432445D01*
X163453402Y-123267701D01*
X163480500Y-123096611D01*
X163480500Y-122923389D01*
X163453402Y-122752299D01*
X163450424Y-122743136D01*
X163448428Y-122673298D01*
X163480672Y-122617139D01*
X163751544Y-122346267D01*
X163812865Y-122312784D01*
X163882557Y-122317768D01*
X163938490Y-122359640D01*
X163962907Y-122425104D01*
X163949708Y-122490244D01*
X163900129Y-122587549D01*
X163846597Y-122752302D01*
X163819500Y-122923389D01*
X163819500Y-123096610D01*
X163839476Y-123222738D01*
X163846598Y-123267701D01*
X163900127Y-123432445D01*
X163978768Y-123586788D01*
X164080586Y-123726928D01*
X164203072Y-123849414D01*
X164343212Y-123951232D01*
X164497555Y-124029873D01*
X164662299Y-124083402D01*
X164833389Y-124110500D01*
X164833390Y-124110500D01*
X165006610Y-124110500D01*
X165006611Y-124110500D01*
X165177701Y-124083402D01*
X165342445Y-124029873D01*
X165496788Y-123951232D01*
X165636928Y-123849414D01*
X165759414Y-123726928D01*
X165861232Y-123586788D01*
X165939873Y-123432445D01*
X165993402Y-123267701D01*
X166020500Y-123096611D01*
X166020500Y-122923389D01*
X165993402Y-122752299D01*
X165939873Y-122587555D01*
X165861232Y-122433212D01*
X165759414Y-122293072D01*
X165636928Y-122170586D01*
X165526351Y-122090247D01*
X166359500Y-122090247D01*
X166359500Y-123929752D01*
X166371131Y-123988229D01*
X166371132Y-123988230D01*
X166415447Y-124054552D01*
X166481769Y-124098867D01*
X166481770Y-124098868D01*
X166540247Y-124110499D01*
X166540250Y-124110500D01*
X166540252Y-124110500D01*
X168379750Y-124110500D01*
X168379751Y-124110499D01*
X168394568Y-124107552D01*
X168438229Y-124098868D01*
X168438229Y-124098867D01*
X168438231Y-124098867D01*
X168504552Y-124054552D01*
X168548867Y-123988231D01*
X168548867Y-123988229D01*
X168548868Y-123988229D01*
X168560499Y-123929752D01*
X168560500Y-123929750D01*
X168560500Y-122090249D01*
X168560499Y-122090247D01*
X168548868Y-122031770D01*
X168548867Y-122031769D01*
X168504552Y-121965447D01*
X168438230Y-121921132D01*
X168438229Y-121921131D01*
X168379752Y-121909500D01*
X168379748Y-121909500D01*
X166540252Y-121909500D01*
X166540247Y-121909500D01*
X166481770Y-121921131D01*
X166481769Y-121921132D01*
X166415447Y-121965447D01*
X166371132Y-122031769D01*
X166371131Y-122031770D01*
X166359500Y-122090247D01*
X165526351Y-122090247D01*
X165496788Y-122068768D01*
X165342445Y-121990127D01*
X165177701Y-121936598D01*
X165177699Y-121936597D01*
X165177698Y-121936597D01*
X165046271Y-121915781D01*
X165006611Y-121909500D01*
X164833389Y-121909500D01*
X164793728Y-121915781D01*
X164662302Y-121936597D01*
X164497549Y-121990129D01*
X164400244Y-122039708D01*
X164331575Y-122052604D01*
X164266835Y-122026327D01*
X164226578Y-121969220D01*
X164223586Y-121899415D01*
X164235278Y-121878711D01*
X170149500Y-121878711D01*
X170149500Y-122121288D01*
X170181161Y-122361785D01*
X170243947Y-122596104D01*
X170308647Y-122752302D01*
X170336776Y-122820212D01*
X170458064Y-123030289D01*
X170458066Y-123030292D01*
X170458067Y-123030293D01*
X170605733Y-123222736D01*
X170605739Y-123222743D01*
X170777256Y-123394260D01*
X170777263Y-123394266D01*
X170814004Y-123422458D01*
X170969711Y-123541936D01*
X171179788Y-123663224D01*
X171403900Y-123756054D01*
X171638211Y-123818838D01*
X171818586Y-123842584D01*
X171878711Y-123850500D01*
X171878712Y-123850500D01*
X172121289Y-123850500D01*
X172169388Y-123844167D01*
X172361789Y-123818838D01*
X172596100Y-123756054D01*
X172820212Y-123663224D01*
X173030289Y-123541936D01*
X173222738Y-123394265D01*
X173394265Y-123222738D01*
X173541936Y-123030289D01*
X173663224Y-122820212D01*
X173756054Y-122596100D01*
X173818838Y-122361789D01*
X173850500Y-122121288D01*
X173850500Y-121878712D01*
X173818838Y-121638211D01*
X173756054Y-121403900D01*
X173663224Y-121179788D01*
X173541936Y-120969711D01*
X173394265Y-120777262D01*
X173394260Y-120777256D01*
X173222743Y-120605739D01*
X173222736Y-120605733D01*
X173030293Y-120458067D01*
X173030292Y-120458066D01*
X173030289Y-120458064D01*
X172820212Y-120336776D01*
X172820205Y-120336773D01*
X172596104Y-120243947D01*
X172422076Y-120197316D01*
X172361789Y-120181162D01*
X172361788Y-120181161D01*
X172361785Y-120181161D01*
X172121289Y-120149500D01*
X172121288Y-120149500D01*
X171878712Y-120149500D01*
X171878711Y-120149500D01*
X171638214Y-120181161D01*
X171403895Y-120243947D01*
X171179794Y-120336773D01*
X171179785Y-120336777D01*
X170969706Y-120458067D01*
X170777263Y-120605733D01*
X170777256Y-120605739D01*
X170605739Y-120777256D01*
X170605733Y-120777263D01*
X170458067Y-120969706D01*
X170336777Y-121179785D01*
X170336773Y-121179794D01*
X170243947Y-121403895D01*
X170181161Y-121638214D01*
X170149500Y-121878711D01*
X164235278Y-121878711D01*
X164256267Y-121841544D01*
X165797104Y-120300708D01*
X165797109Y-120300704D01*
X165807312Y-120290500D01*
X165807314Y-120290500D01*
X165900500Y-120197314D01*
X165966392Y-120083186D01*
X165971205Y-120065221D01*
X165977781Y-120040685D01*
X165989140Y-119998289D01*
X166000500Y-119955893D01*
X166000500Y-119824108D01*
X166000500Y-108973995D01*
X171149499Y-108973995D01*
X171176418Y-109109322D01*
X171176421Y-109109332D01*
X171229221Y-109236804D01*
X171229228Y-109236817D01*
X171305885Y-109351541D01*
X171305888Y-109351545D01*
X171403454Y-109449111D01*
X171403458Y-109449114D01*
X171518182Y-109525771D01*
X171518195Y-109525778D01*
X171643762Y-109577789D01*
X171645672Y-109578580D01*
X171645676Y-109578580D01*
X171645677Y-109578581D01*
X171781004Y-109605500D01*
X171781007Y-109605500D01*
X172618995Y-109605500D01*
X172710041Y-109587389D01*
X172754328Y-109578580D01*
X172881811Y-109525775D01*
X172996542Y-109449114D01*
X173094114Y-109351542D01*
X173170775Y-109236811D01*
X173223580Y-109109328D01*
X173237548Y-109039108D01*
X173250500Y-108973995D01*
X173250500Y-108836004D01*
X173223581Y-108700677D01*
X173223580Y-108700676D01*
X173223580Y-108700672D01*
X173215093Y-108680182D01*
X173170778Y-108573195D01*
X173170771Y-108573182D01*
X173094114Y-108458458D01*
X173094111Y-108458454D01*
X172996545Y-108360888D01*
X172996541Y-108360885D01*
X172881817Y-108284228D01*
X172881804Y-108284221D01*
X172754332Y-108231421D01*
X172754322Y-108231418D01*
X172618995Y-108204500D01*
X172618993Y-108204500D01*
X171781007Y-108204500D01*
X171781005Y-108204500D01*
X171645677Y-108231418D01*
X171645667Y-108231421D01*
X171518195Y-108284221D01*
X171518182Y-108284228D01*
X171403458Y-108360885D01*
X171403454Y-108360888D01*
X171305888Y-108458454D01*
X171305885Y-108458458D01*
X171229228Y-108573182D01*
X171229221Y-108573195D01*
X171176421Y-108700667D01*
X171176418Y-108700677D01*
X171149500Y-108836004D01*
X171149500Y-108836007D01*
X171149500Y-108973993D01*
X171149500Y-108973995D01*
X171149499Y-108973995D01*
X166000500Y-108973995D01*
X166000500Y-107399234D01*
X167974500Y-107399234D01*
X167974500Y-107550766D01*
X167979281Y-107568608D01*
X168013719Y-107697136D01*
X168040071Y-107742778D01*
X168089485Y-107828365D01*
X168196635Y-107935515D01*
X168327865Y-108011281D01*
X168474234Y-108050500D01*
X168474236Y-108050500D01*
X168625764Y-108050500D01*
X168625766Y-108050500D01*
X168772135Y-108011281D01*
X168903365Y-107935515D01*
X169010515Y-107828365D01*
X169086281Y-107697135D01*
X169125500Y-107550766D01*
X169125500Y-107399234D01*
X169086281Y-107252865D01*
X169084127Y-107249135D01*
X169064108Y-107214460D01*
X169010515Y-107121635D01*
X168903365Y-107014485D01*
X168837750Y-106976602D01*
X168772136Y-106938719D01*
X168698950Y-106919109D01*
X168625766Y-106899500D01*
X168474234Y-106899500D01*
X168327863Y-106938719D01*
X168196635Y-107014485D01*
X168196632Y-107014487D01*
X168089487Y-107121632D01*
X168089485Y-107121635D01*
X168013719Y-107252863D01*
X167984046Y-107363608D01*
X167974500Y-107399234D01*
X166000500Y-107399234D01*
X166000500Y-107342108D01*
X166000500Y-106443674D01*
X166020185Y-106376635D01*
X166036815Y-106355997D01*
X166697104Y-105695707D01*
X166697109Y-105695704D01*
X166707312Y-105685500D01*
X166707314Y-105685500D01*
X166800500Y-105592314D01*
X166866392Y-105478186D01*
X166869849Y-105465285D01*
X166878831Y-105431767D01*
X166893734Y-105376144D01*
X166900500Y-105350893D01*
X166900500Y-105219108D01*
X166900500Y-102669108D01*
X166896964Y-102655913D01*
X166866392Y-102541814D01*
X166800500Y-102427686D01*
X166107314Y-101734500D01*
X166035756Y-101693186D01*
X165993187Y-101668608D01*
X165915092Y-101647683D01*
X165865892Y-101634500D01*
X165865891Y-101634500D01*
X161818676Y-101634500D01*
X161766686Y-101619234D01*
X167974500Y-101619234D01*
X167974500Y-101770766D01*
X167986590Y-101815888D01*
X168013719Y-101917136D01*
X168028760Y-101943187D01*
X168089485Y-102048365D01*
X168196635Y-102155515D01*
X168278329Y-102202681D01*
X168327693Y-102231182D01*
X168327865Y-102231281D01*
X168474234Y-102270500D01*
X168474236Y-102270500D01*
X168625764Y-102270500D01*
X168625766Y-102270500D01*
X168772135Y-102231281D01*
X168903365Y-102155515D01*
X169010515Y-102048365D01*
X169086281Y-101917135D01*
X169125500Y-101770766D01*
X169125500Y-101619234D01*
X169086281Y-101472865D01*
X169010515Y-101341635D01*
X168903365Y-101234485D01*
X168830962Y-101192683D01*
X168772136Y-101158719D01*
X168649218Y-101125784D01*
X168625766Y-101119500D01*
X168474234Y-101119500D01*
X168327863Y-101158719D01*
X168196635Y-101234485D01*
X168196632Y-101234487D01*
X168089487Y-101341632D01*
X168089485Y-101341635D01*
X168013719Y-101472863D01*
X167991226Y-101556812D01*
X167974500Y-101619234D01*
X161766686Y-101619234D01*
X161751637Y-101614815D01*
X161730995Y-101598181D01*
X161687316Y-101554502D01*
X161687314Y-101554500D01*
X161630250Y-101521554D01*
X161573187Y-101488608D01*
X161509539Y-101471554D01*
X161445892Y-101454500D01*
X161314108Y-101454500D01*
X161186812Y-101488608D01*
X161072686Y-101554500D01*
X161072683Y-101554502D01*
X160979502Y-101647683D01*
X160979500Y-101647686D01*
X160913608Y-101761812D01*
X160879500Y-101889108D01*
X154600882Y-101889108D01*
X154620500Y-101815892D01*
X154620500Y-101684108D01*
X154586392Y-101556814D01*
X154520500Y-101442686D01*
X154427314Y-101349500D01*
X154353380Y-101306814D01*
X154313187Y-101283608D01*
X154249539Y-101266554D01*
X154185892Y-101249500D01*
X154054108Y-101249500D01*
X153926812Y-101283608D01*
X153812686Y-101349500D01*
X153812683Y-101349502D01*
X153719502Y-101442683D01*
X153719500Y-101442686D01*
X153653608Y-101556812D01*
X153619500Y-101684108D01*
X153619500Y-101815891D01*
X153653608Y-101943187D01*
X153667005Y-101966391D01*
X153719500Y-102057314D01*
X153719502Y-102057316D01*
X153733181Y-102070995D01*
X153766666Y-102132318D01*
X153769500Y-102158676D01*
X153769500Y-105099936D01*
X153749815Y-105166975D01*
X153733181Y-105187617D01*
X151382181Y-107538617D01*
X151320858Y-107572102D01*
X151251166Y-107567118D01*
X151195233Y-107525246D01*
X151170816Y-107459782D01*
X151170500Y-107450936D01*
X151170500Y-102818676D01*
X151190185Y-102751637D01*
X151206819Y-102730995D01*
X151208079Y-102729735D01*
X151220500Y-102717314D01*
X151286392Y-102603186D01*
X151320500Y-102475892D01*
X151320500Y-102344108D01*
X151286392Y-102216814D01*
X151220500Y-102102686D01*
X151127314Y-102009500D01*
X151052649Y-101966392D01*
X151013187Y-101943608D01*
X150914386Y-101917135D01*
X150885892Y-101909500D01*
X150754108Y-101909500D01*
X150754106Y-101909500D01*
X150746052Y-101910561D01*
X150745764Y-101908379D01*
X150723170Y-101906763D01*
X150691053Y-101905985D01*
X150688547Y-101904287D01*
X150685529Y-101904072D01*
X150659808Y-101884817D01*
X150633208Y-101866796D01*
X150632017Y-101864012D01*
X150629596Y-101862200D01*
X150618372Y-101832107D01*
X150605733Y-101802556D01*
X150606236Y-101799570D01*
X150605179Y-101796736D01*
X150612007Y-101765345D01*
X150617351Y-101733658D01*
X150619582Y-101730526D01*
X150620031Y-101728463D01*
X150641178Y-101700213D01*
X150726550Y-101614841D01*
X150782134Y-101582750D01*
X150843186Y-101566392D01*
X150957314Y-101500500D01*
X151050500Y-101407314D01*
X151116392Y-101293186D01*
X151150500Y-101165892D01*
X151150500Y-101034108D01*
X151116392Y-100906814D01*
X151050500Y-100792686D01*
X150957314Y-100699500D01*
X150882384Y-100656239D01*
X150843187Y-100633608D01*
X150779539Y-100616554D01*
X150715892Y-100599500D01*
X150584108Y-100599500D01*
X150456812Y-100633608D01*
X150342686Y-100699500D01*
X150342683Y-100699502D01*
X150249502Y-100792683D01*
X150249500Y-100792686D01*
X150183608Y-100906814D01*
X150168053Y-100964868D01*
X150148949Y-101036164D01*
X150116855Y-101091751D01*
X141965426Y-109243181D01*
X141904103Y-109276666D01*
X141877745Y-109279500D01*
X135460540Y-109279500D01*
X135398540Y-109262887D01*
X135313188Y-109213609D01*
X135313187Y-109213608D01*
X135313186Y-109213608D01*
X135185892Y-109179500D01*
X135054108Y-109179500D01*
X134926812Y-109213608D01*
X134812686Y-109279500D01*
X134812683Y-109279502D01*
X134719502Y-109372683D01*
X134719500Y-109372686D01*
X134649544Y-109493853D01*
X134647144Y-109492467D01*
X134611774Y-109536350D01*
X134545477Y-109558407D01*
X134477780Y-109541119D01*
X134453385Y-109522166D01*
X134081819Y-109150600D01*
X134048334Y-109089277D01*
X134045500Y-109062919D01*
X134045500Y-107489108D01*
X135129500Y-107489108D01*
X135129500Y-107620891D01*
X135163608Y-107748187D01*
X135196554Y-107805250D01*
X135229500Y-107862314D01*
X135322686Y-107955500D01*
X135436814Y-108021392D01*
X135564108Y-108055500D01*
X135564110Y-108055500D01*
X135695890Y-108055500D01*
X135695892Y-108055500D01*
X135823186Y-108021392D01*
X135937314Y-107955500D01*
X136030500Y-107862314D01*
X136050113Y-107828342D01*
X136100680Y-107780128D01*
X136169287Y-107766904D01*
X136234151Y-107792872D01*
X136264886Y-107828342D01*
X136284500Y-107862314D01*
X136377686Y-107955500D01*
X136491814Y-108021392D01*
X136619108Y-108055500D01*
X136619110Y-108055500D01*
X136750890Y-108055500D01*
X136750892Y-108055500D01*
X136878186Y-108021392D01*
X136992314Y-107955500D01*
X137085500Y-107862314D01*
X137105113Y-107828342D01*
X137155680Y-107780128D01*
X137224287Y-107766904D01*
X137289151Y-107792872D01*
X137319886Y-107828342D01*
X137339500Y-107862314D01*
X137432686Y-107955500D01*
X137546814Y-108021392D01*
X137674108Y-108055500D01*
X137674110Y-108055500D01*
X137805890Y-108055500D01*
X137805892Y-108055500D01*
X137933186Y-108021392D01*
X138047314Y-107955500D01*
X138140500Y-107862314D01*
X138160113Y-107828342D01*
X138210680Y-107780128D01*
X138279287Y-107766904D01*
X138344151Y-107792872D01*
X138374886Y-107828342D01*
X138394500Y-107862314D01*
X138487686Y-107955500D01*
X138601814Y-108021392D01*
X138729108Y-108055500D01*
X138729110Y-108055500D01*
X138860890Y-108055500D01*
X138860892Y-108055500D01*
X138988186Y-108021392D01*
X139102314Y-107955500D01*
X139195500Y-107862314D01*
X139261392Y-107748186D01*
X139295500Y-107620892D01*
X139295500Y-107489108D01*
X139261392Y-107361814D01*
X139242950Y-107329872D01*
X139212113Y-107276460D01*
X139195500Y-107214460D01*
X139195500Y-106702139D01*
X139215185Y-106635100D01*
X139231819Y-106614458D01*
X145512282Y-100333995D01*
X171149499Y-100333995D01*
X171176418Y-100469322D01*
X171176421Y-100469332D01*
X171229221Y-100596804D01*
X171229228Y-100596817D01*
X171305885Y-100711541D01*
X171305888Y-100711545D01*
X171403454Y-100809111D01*
X171403458Y-100809114D01*
X171518182Y-100885771D01*
X171518195Y-100885778D01*
X171645667Y-100938578D01*
X171645672Y-100938580D01*
X171645676Y-100938580D01*
X171645677Y-100938581D01*
X171781004Y-100965500D01*
X171781007Y-100965500D01*
X172618995Y-100965500D01*
X172710041Y-100947389D01*
X172754328Y-100938580D01*
X172881811Y-100885775D01*
X172996542Y-100809114D01*
X173094114Y-100711542D01*
X173170775Y-100596811D01*
X173223580Y-100469328D01*
X173236727Y-100403236D01*
X173250500Y-100333995D01*
X173250500Y-100196004D01*
X173223581Y-100060677D01*
X173223580Y-100060676D01*
X173223580Y-100060672D01*
X173179656Y-99954629D01*
X173170778Y-99933195D01*
X173170771Y-99933182D01*
X173094114Y-99818458D01*
X173094111Y-99818454D01*
X172996545Y-99720888D01*
X172996541Y-99720885D01*
X172881817Y-99644228D01*
X172881804Y-99644221D01*
X172754332Y-99591421D01*
X172754322Y-99591418D01*
X172618995Y-99564500D01*
X172618993Y-99564500D01*
X171781007Y-99564500D01*
X171781005Y-99564500D01*
X171645677Y-99591418D01*
X171645667Y-99591421D01*
X171518195Y-99644221D01*
X171518182Y-99644228D01*
X171403458Y-99720885D01*
X171403454Y-99720888D01*
X171305888Y-99818454D01*
X171305885Y-99818458D01*
X171229228Y-99933182D01*
X171229221Y-99933195D01*
X171176421Y-100060667D01*
X171176418Y-100060677D01*
X171149500Y-100196004D01*
X171149500Y-100196007D01*
X171149500Y-100333993D01*
X171149500Y-100333995D01*
X171149499Y-100333995D01*
X145512282Y-100333995D01*
X145775306Y-100070971D01*
X145836629Y-100037486D01*
X145862987Y-100034652D01*
X161843573Y-100034652D01*
X161843575Y-100034652D01*
X161945436Y-100007359D01*
X162036761Y-99954632D01*
X163832630Y-98158761D01*
X163888213Y-98126671D01*
X163993186Y-98098544D01*
X164107314Y-98032652D01*
X164200500Y-97939466D01*
X164266392Y-97825338D01*
X164300500Y-97698044D01*
X164300500Y-97566260D01*
X164266392Y-97438966D01*
X164200500Y-97324838D01*
X164107314Y-97231652D01*
X164036487Y-97190760D01*
X163993187Y-97165760D01*
X163929539Y-97148706D01*
X163865892Y-97131652D01*
X163734108Y-97131652D01*
X163606812Y-97165760D01*
X163492686Y-97231652D01*
X163492683Y-97231654D01*
X163399502Y-97324835D01*
X163399500Y-97324838D01*
X163333607Y-97438966D01*
X163333607Y-97438967D01*
X163310715Y-97524398D01*
X163278622Y-97579984D01*
X161661274Y-99197333D01*
X161599951Y-99230818D01*
X161573593Y-99233652D01*
X155709603Y-99233652D01*
X155642564Y-99213967D01*
X155596809Y-99161163D01*
X155586865Y-99092005D01*
X155615890Y-99028449D01*
X155621922Y-99021971D01*
X155832221Y-98811672D01*
X156492399Y-98151492D01*
X156547986Y-98119400D01*
X156643183Y-98093893D01*
X156643183Y-98093892D01*
X156643186Y-98093892D01*
X156757314Y-98028000D01*
X156850500Y-97934814D01*
X156916392Y-97820686D01*
X156950500Y-97693392D01*
X156950500Y-97561608D01*
X156916392Y-97434314D01*
X156914947Y-97431812D01*
X156904642Y-97413963D01*
X156850500Y-97320186D01*
X156757314Y-97227000D01*
X156694545Y-97190760D01*
X156643187Y-97161108D01*
X156579539Y-97144054D01*
X156515892Y-97127000D01*
X156384108Y-97127000D01*
X156256812Y-97161108D01*
X156142686Y-97227000D01*
X156142683Y-97227002D01*
X156049502Y-97320183D01*
X156049500Y-97320186D01*
X155983607Y-97434314D01*
X155983607Y-97434315D01*
X155958098Y-97529514D01*
X155926005Y-97585100D01*
X154914774Y-98596333D01*
X154853451Y-98629818D01*
X154827093Y-98632652D01*
X148865255Y-98632652D01*
X148798216Y-98612967D01*
X148752461Y-98560163D01*
X148742517Y-98491005D01*
X148771542Y-98427449D01*
X148777565Y-98420979D01*
X149017400Y-98181143D01*
X149072982Y-98149053D01*
X149168186Y-98123544D01*
X149282314Y-98057652D01*
X149375500Y-97964466D01*
X149441392Y-97850338D01*
X149475500Y-97723044D01*
X149475500Y-97591260D01*
X149441392Y-97463966D01*
X149375500Y-97349838D01*
X149282314Y-97256652D01*
X149225250Y-97223706D01*
X149168187Y-97190760D01*
X149104539Y-97173706D01*
X149040892Y-97156652D01*
X148909108Y-97156652D01*
X148781812Y-97190760D01*
X148667686Y-97256652D01*
X148667683Y-97256654D01*
X148574502Y-97349835D01*
X148574500Y-97349838D01*
X148508608Y-97463964D01*
X148483099Y-97559166D01*
X148451005Y-97614753D01*
X148070426Y-97995333D01*
X148009103Y-98028818D01*
X147982745Y-98031652D01*
X145095121Y-98031652D01*
X144993261Y-98058945D01*
X144993258Y-98058946D01*
X144908899Y-98107651D01*
X144901938Y-98111669D01*
X144901933Y-98111673D01*
X142995640Y-100017966D01*
X142934317Y-100051451D01*
X142864625Y-100046467D01*
X142808692Y-100004595D01*
X142784275Y-99939131D01*
X142788184Y-99898193D01*
X142795500Y-99870892D01*
X142795500Y-99739108D01*
X142761392Y-99611814D01*
X142695500Y-99497686D01*
X142602314Y-99404500D01*
X142545250Y-99371554D01*
X142488187Y-99338608D01*
X142424539Y-99321554D01*
X142360892Y-99304500D01*
X142229108Y-99304500D01*
X142101812Y-99338608D01*
X141987686Y-99404500D01*
X141987683Y-99404502D01*
X141894502Y-99497683D01*
X141894500Y-99497686D01*
X141828608Y-99611812D01*
X141794500Y-99739108D01*
X141794500Y-99829166D01*
X141774815Y-99896205D01*
X141758181Y-99916847D01*
X139071848Y-102603181D01*
X139010525Y-102636666D01*
X138984167Y-102639500D01*
X136798676Y-102639500D01*
X136731637Y-102619815D01*
X136710995Y-102603181D01*
X136647316Y-102539502D01*
X136647314Y-102539500D01*
X136533186Y-102473608D01*
X136472174Y-102457260D01*
X136412513Y-102420894D01*
X136381985Y-102358047D01*
X136390280Y-102288672D01*
X136416584Y-102249807D01*
X140597422Y-98068971D01*
X140658745Y-98035486D01*
X140685103Y-98032652D01*
X142134460Y-98032652D01*
X142196460Y-98049265D01*
X142213228Y-98058946D01*
X142281814Y-98098544D01*
X142409108Y-98132652D01*
X142409110Y-98132652D01*
X142540890Y-98132652D01*
X142540892Y-98132652D01*
X142668186Y-98098544D01*
X142782314Y-98032652D01*
X142875500Y-97939466D01*
X142941392Y-97825338D01*
X142975500Y-97698044D01*
X142975500Y-97566260D01*
X142941392Y-97438966D01*
X142875500Y-97324838D01*
X142782314Y-97231652D01*
X142711487Y-97190760D01*
X142668187Y-97165760D01*
X142604539Y-97148706D01*
X142540892Y-97131652D01*
X142409108Y-97131652D01*
X142281814Y-97165760D01*
X142281813Y-97165760D01*
X142281811Y-97165761D01*
X142281810Y-97165761D01*
X142196460Y-97215039D01*
X142134460Y-97231652D01*
X140415121Y-97231652D01*
X140313258Y-97258945D01*
X140221935Y-97311672D01*
X140221932Y-97311674D01*
X135309522Y-102224084D01*
X135309520Y-102224087D01*
X135256793Y-102315410D01*
X135229500Y-102417273D01*
X135229500Y-107214460D01*
X135212887Y-107276460D01*
X135163609Y-107361810D01*
X135163609Y-107361811D01*
X135163608Y-107361813D01*
X135163608Y-107361814D01*
X135153581Y-107399236D01*
X135129500Y-107489108D01*
X134045500Y-107489108D01*
X134045500Y-99602254D01*
X134065185Y-99535215D01*
X134081814Y-99514578D01*
X135449229Y-98147162D01*
X135504816Y-98115070D01*
X135593183Y-98091393D01*
X135593183Y-98091392D01*
X135593186Y-98091392D01*
X135707314Y-98025500D01*
X135800500Y-97932314D01*
X135866392Y-97818186D01*
X135900500Y-97690892D01*
X135900500Y-97559108D01*
X135866392Y-97431814D01*
X135800500Y-97317686D01*
X135707314Y-97224500D01*
X135648875Y-97190760D01*
X135593187Y-97158608D01*
X135526576Y-97140760D01*
X135465892Y-97124500D01*
X135334108Y-97124500D01*
X135206812Y-97158608D01*
X135092686Y-97224500D01*
X135092683Y-97224502D01*
X134999502Y-97317683D01*
X134999500Y-97317686D01*
X134943913Y-97413966D01*
X134933608Y-97431814D01*
X134907430Y-97529514D01*
X134906270Y-97533843D01*
X134874176Y-97589430D01*
X133324522Y-99139084D01*
X133324518Y-99139090D01*
X133271792Y-99230412D01*
X133271793Y-99230413D01*
X133244500Y-99332273D01*
X133244500Y-108863861D01*
X133224815Y-108930900D01*
X133172011Y-108976655D01*
X133102853Y-108986599D01*
X133039297Y-108957574D01*
X133032819Y-108951542D01*
X132031819Y-107950542D01*
X131998334Y-107889219D01*
X131995500Y-107862861D01*
X131995500Y-100964881D01*
X131995501Y-100964868D01*
X131995501Y-100849426D01*
X131984699Y-100809114D01*
X131968207Y-100747565D01*
X131943926Y-100705509D01*
X131915480Y-100656239D01*
X131840913Y-100581672D01*
X131840910Y-100581670D01*
X130351245Y-99092005D01*
X128823993Y-97564752D01*
X128791900Y-97509166D01*
X128766392Y-97413966D01*
X128700500Y-97299838D01*
X128607314Y-97206652D01*
X128520712Y-97156652D01*
X128493187Y-97140760D01*
X128429539Y-97123706D01*
X128365892Y-97106652D01*
X128234108Y-97106652D01*
X128106812Y-97140760D01*
X127992686Y-97206652D01*
X127992683Y-97206654D01*
X127899502Y-97299835D01*
X127899500Y-97299838D01*
X127833608Y-97413964D01*
X127808100Y-97509164D01*
X127799500Y-97541260D01*
X127799500Y-97673044D01*
X127806199Y-97698044D01*
X127833608Y-97800339D01*
X127848042Y-97825339D01*
X127899500Y-97914466D01*
X127992686Y-98007652D01*
X128106814Y-98073544D01*
X128202014Y-98099052D01*
X128257600Y-98131145D01*
X131158181Y-101031725D01*
X131191666Y-101093048D01*
X131194500Y-101119406D01*
X131194500Y-108132842D01*
X131221793Y-108234705D01*
X131248156Y-108280366D01*
X131274520Y-108326029D01*
X132962202Y-110013711D01*
X134486311Y-111537819D01*
X134519796Y-111599142D01*
X134514812Y-111668834D01*
X134472940Y-111724767D01*
X134407476Y-111749184D01*
X134398630Y-111749500D01*
X130442196Y-111749500D01*
X130375157Y-111729815D01*
X130354515Y-111713181D01*
X119986819Y-101345484D01*
X119953334Y-101284161D01*
X119950500Y-101257803D01*
X119950500Y-99324406D01*
X119970185Y-99257367D01*
X119986814Y-99236729D01*
X121067399Y-98156144D01*
X121122986Y-98124052D01*
X121218183Y-98098545D01*
X121218183Y-98098544D01*
X121218186Y-98098544D01*
X121332314Y-98032652D01*
X121425500Y-97939466D01*
X121491392Y-97825338D01*
X121525500Y-97698044D01*
X121525500Y-97566260D01*
X121491392Y-97438966D01*
X121425500Y-97324838D01*
X121332314Y-97231652D01*
X121261487Y-97190760D01*
X121218187Y-97165760D01*
X121154539Y-97148706D01*
X121090892Y-97131652D01*
X120959108Y-97131652D01*
X120831812Y-97165760D01*
X120717686Y-97231652D01*
X120717683Y-97231654D01*
X120624502Y-97324835D01*
X120624500Y-97324838D01*
X120558607Y-97438966D01*
X120558607Y-97438967D01*
X120533098Y-97534166D01*
X120501005Y-97589752D01*
X119229522Y-98861236D01*
X119229520Y-98861239D01*
X119176792Y-98952564D01*
X119170093Y-98977563D01*
X119170094Y-98977564D01*
X119149500Y-99054423D01*
X119149500Y-101058745D01*
X119129815Y-101125784D01*
X119077011Y-101171539D01*
X119007853Y-101181483D01*
X118944297Y-101152458D01*
X118937819Y-101146426D01*
X116603067Y-98811674D01*
X116603065Y-98811672D01*
X116557402Y-98785308D01*
X116511741Y-98758945D01*
X116460809Y-98745298D01*
X116409879Y-98731652D01*
X116409878Y-98731652D01*
X115340540Y-98731652D01*
X115278540Y-98715039D01*
X115193188Y-98665761D01*
X115193187Y-98665760D01*
X115193186Y-98665760D01*
X115065892Y-98631652D01*
X114934108Y-98631652D01*
X114806812Y-98665760D01*
X114692686Y-98731652D01*
X114692683Y-98731654D01*
X114599502Y-98824835D01*
X114599500Y-98824838D01*
X114533608Y-98938964D01*
X114511367Y-99021971D01*
X114499500Y-99066260D01*
X105500500Y-99066260D01*
X105500500Y-92878711D01*
X106149500Y-92878711D01*
X106149500Y-93121288D01*
X106181161Y-93361785D01*
X106243947Y-93596104D01*
X106336773Y-93820205D01*
X106336776Y-93820212D01*
X106458064Y-94030289D01*
X106458066Y-94030292D01*
X106458067Y-94030293D01*
X106605733Y-94222736D01*
X106605739Y-94222743D01*
X106777256Y-94394260D01*
X106777262Y-94394265D01*
X106969711Y-94541936D01*
X107179788Y-94663224D01*
X107403900Y-94756054D01*
X107638211Y-94818838D01*
X107818586Y-94842584D01*
X107878711Y-94850500D01*
X107878712Y-94850500D01*
X108121289Y-94850500D01*
X108169388Y-94844167D01*
X108361789Y-94818838D01*
X108596100Y-94756054D01*
X108820212Y-94663224D01*
X109030289Y-94541936D01*
X109222738Y-94394265D01*
X109394265Y-94222738D01*
X109541936Y-94030289D01*
X109663224Y-93820212D01*
X109756054Y-93596100D01*
X109818838Y-93361789D01*
X109850500Y-93121288D01*
X109850500Y-92878712D01*
X109850500Y-92878711D01*
X170149500Y-92878711D01*
X170149500Y-93121288D01*
X170181161Y-93361785D01*
X170243947Y-93596104D01*
X170336773Y-93820205D01*
X170336776Y-93820212D01*
X170458064Y-94030289D01*
X170458066Y-94030292D01*
X170458067Y-94030293D01*
X170605733Y-94222736D01*
X170605739Y-94222743D01*
X170777256Y-94394260D01*
X170777262Y-94394265D01*
X170969711Y-94541936D01*
X171179788Y-94663224D01*
X171403900Y-94756054D01*
X171638211Y-94818838D01*
X171818586Y-94842584D01*
X171878711Y-94850500D01*
X171878712Y-94850500D01*
X172121289Y-94850500D01*
X172169388Y-94844167D01*
X172361789Y-94818838D01*
X172596100Y-94756054D01*
X172820212Y-94663224D01*
X173030289Y-94541936D01*
X173222738Y-94394265D01*
X173394265Y-94222738D01*
X173541936Y-94030289D01*
X173663224Y-93820212D01*
X173756054Y-93596100D01*
X173818838Y-93361789D01*
X173850500Y-93121288D01*
X173850500Y-92878712D01*
X173818838Y-92638211D01*
X173756054Y-92403900D01*
X173663224Y-92179788D01*
X173541936Y-91969711D01*
X173401430Y-91786599D01*
X173394266Y-91777263D01*
X173394260Y-91777256D01*
X173222743Y-91605739D01*
X173222736Y-91605733D01*
X173030293Y-91458067D01*
X173030292Y-91458066D01*
X173030289Y-91458064D01*
X172820212Y-91336776D01*
X172820205Y-91336773D01*
X172596104Y-91243947D01*
X172361785Y-91181161D01*
X172121289Y-91149500D01*
X172121288Y-91149500D01*
X171878712Y-91149500D01*
X171878711Y-91149500D01*
X171638214Y-91181161D01*
X171403895Y-91243947D01*
X171179794Y-91336773D01*
X171179785Y-91336777D01*
X170969706Y-91458067D01*
X170777263Y-91605733D01*
X170777256Y-91605739D01*
X170605739Y-91777256D01*
X170605733Y-91777263D01*
X170458067Y-91969706D01*
X170336777Y-92179785D01*
X170336773Y-92179794D01*
X170243947Y-92403895D01*
X170181161Y-92638214D01*
X170149500Y-92878711D01*
X109850500Y-92878711D01*
X109818838Y-92638211D01*
X109756054Y-92403900D01*
X109663224Y-92179788D01*
X109541936Y-91969711D01*
X109401430Y-91786599D01*
X109394266Y-91777263D01*
X109394260Y-91777256D01*
X109222743Y-91605739D01*
X109222736Y-91605733D01*
X109030293Y-91458067D01*
X109030292Y-91458066D01*
X109030289Y-91458064D01*
X108820212Y-91336776D01*
X108820205Y-91336773D01*
X108596104Y-91243947D01*
X108361785Y-91181161D01*
X108121289Y-91149500D01*
X108121288Y-91149500D01*
X107878712Y-91149500D01*
X107878711Y-91149500D01*
X107638214Y-91181161D01*
X107403895Y-91243947D01*
X107179794Y-91336773D01*
X107179785Y-91336777D01*
X106969706Y-91458067D01*
X106777263Y-91605733D01*
X106777256Y-91605739D01*
X106605739Y-91777256D01*
X106605733Y-91777263D01*
X106458067Y-91969706D01*
X106336777Y-92179785D01*
X106336773Y-92179794D01*
X106243947Y-92403895D01*
X106181161Y-92638214D01*
X106149500Y-92878711D01*
X105500500Y-92878711D01*
X105500500Y-92004427D01*
X105500816Y-91995581D01*
X105515130Y-91795443D01*
X105515131Y-91795434D01*
X105517646Y-91777938D01*
X105559356Y-91586199D01*
X105564333Y-91569248D01*
X105632911Y-91385385D01*
X105640259Y-91369298D01*
X105702815Y-91254734D01*
X105734291Y-91197089D01*
X105743845Y-91182221D01*
X105861448Y-91025123D01*
X105873020Y-91011769D01*
X106011769Y-90873020D01*
X106025123Y-90861448D01*
X106182221Y-90743845D01*
X106197089Y-90734291D01*
X106369298Y-90640258D01*
X106385385Y-90632911D01*
X106569248Y-90564333D01*
X106586199Y-90559356D01*
X106777938Y-90517646D01*
X106795436Y-90515130D01*
X106995582Y-90500816D01*
X107004428Y-90500500D01*
X107065892Y-90500500D01*
X172934108Y-90500500D01*
X172995572Y-90500500D01*
X173004418Y-90500816D01*
G37*
%TD.AperFunction*%
%TD*%
M02*
