%TF.GenerationSoftware,KiCad,Pcbnew,9.0.6*%
%TF.CreationDate,2026-01-13T17:11:53+01:00*%
%TF.ProjectId,TempWatchtV1,54656d70-5761-4746-9368-7456312e6b69,rev?*%
%TF.SameCoordinates,Original*%
%TF.FileFunction,Legend,Bot*%
%TF.FilePolarity,Positive*%
%FSLAX46Y46*%
G04 Gerber Fmt 4.6, Leading zero omitted, Abs format (unit mm)*
G04 Created by KiCad (PCBNEW 9.0.6) date 2026-01-13 17:11:53*
%MOMM*%
%LPD*%
G01*
G04 APERTURE LIST*
%ADD10C,0.350000*%
G04 APERTURE END LIST*
D10*
X169016879Y-91518396D02*
X168159737Y-91518396D01*
X168588308Y-93018396D02*
X168588308Y-91518396D01*
X167088308Y-92946968D02*
X167231165Y-93018396D01*
X167231165Y-93018396D02*
X167516880Y-93018396D01*
X167516880Y-93018396D02*
X167659737Y-92946968D01*
X167659737Y-92946968D02*
X167731165Y-92804110D01*
X167731165Y-92804110D02*
X167731165Y-92232682D01*
X167731165Y-92232682D02*
X167659737Y-92089825D01*
X167659737Y-92089825D02*
X167516880Y-92018396D01*
X167516880Y-92018396D02*
X167231165Y-92018396D01*
X167231165Y-92018396D02*
X167088308Y-92089825D01*
X167088308Y-92089825D02*
X167016880Y-92232682D01*
X167016880Y-92232682D02*
X167016880Y-92375539D01*
X167016880Y-92375539D02*
X167731165Y-92518396D01*
X166374023Y-93018396D02*
X166374023Y-92018396D01*
X166374023Y-92161253D02*
X166302594Y-92089825D01*
X166302594Y-92089825D02*
X166159737Y-92018396D01*
X166159737Y-92018396D02*
X165945451Y-92018396D01*
X165945451Y-92018396D02*
X165802594Y-92089825D01*
X165802594Y-92089825D02*
X165731166Y-92232682D01*
X165731166Y-92232682D02*
X165731166Y-93018396D01*
X165731166Y-92232682D02*
X165659737Y-92089825D01*
X165659737Y-92089825D02*
X165516880Y-92018396D01*
X165516880Y-92018396D02*
X165302594Y-92018396D01*
X165302594Y-92018396D02*
X165159737Y-92089825D01*
X165159737Y-92089825D02*
X165088308Y-92232682D01*
X165088308Y-92232682D02*
X165088308Y-93018396D01*
X164374023Y-92018396D02*
X164374023Y-93518396D01*
X164374023Y-92089825D02*
X164231166Y-92018396D01*
X164231166Y-92018396D02*
X163945451Y-92018396D01*
X163945451Y-92018396D02*
X163802594Y-92089825D01*
X163802594Y-92089825D02*
X163731166Y-92161253D01*
X163731166Y-92161253D02*
X163659737Y-92304110D01*
X163659737Y-92304110D02*
X163659737Y-92732682D01*
X163659737Y-92732682D02*
X163731166Y-92875539D01*
X163731166Y-92875539D02*
X163802594Y-92946968D01*
X163802594Y-92946968D02*
X163945451Y-93018396D01*
X163945451Y-93018396D02*
X164231166Y-93018396D01*
X164231166Y-93018396D02*
X164374023Y-92946968D01*
X163159737Y-91518396D02*
X162802594Y-93018396D01*
X162802594Y-93018396D02*
X162516880Y-91946968D01*
X162516880Y-91946968D02*
X162231165Y-93018396D01*
X162231165Y-93018396D02*
X161874023Y-91518396D01*
X160659737Y-93018396D02*
X160659737Y-92232682D01*
X160659737Y-92232682D02*
X160731165Y-92089825D01*
X160731165Y-92089825D02*
X160874022Y-92018396D01*
X160874022Y-92018396D02*
X161159737Y-92018396D01*
X161159737Y-92018396D02*
X161302594Y-92089825D01*
X160659737Y-92946968D02*
X160802594Y-93018396D01*
X160802594Y-93018396D02*
X161159737Y-93018396D01*
X161159737Y-93018396D02*
X161302594Y-92946968D01*
X161302594Y-92946968D02*
X161374022Y-92804110D01*
X161374022Y-92804110D02*
X161374022Y-92661253D01*
X161374022Y-92661253D02*
X161302594Y-92518396D01*
X161302594Y-92518396D02*
X161159737Y-92446968D01*
X161159737Y-92446968D02*
X160802594Y-92446968D01*
X160802594Y-92446968D02*
X160659737Y-92375539D01*
X160159736Y-92018396D02*
X159588308Y-92018396D01*
X159945451Y-91518396D02*
X159945451Y-92804110D01*
X159945451Y-92804110D02*
X159874022Y-92946968D01*
X159874022Y-92946968D02*
X159731165Y-93018396D01*
X159731165Y-93018396D02*
X159588308Y-93018396D01*
X158445451Y-92946968D02*
X158588308Y-93018396D01*
X158588308Y-93018396D02*
X158874022Y-93018396D01*
X158874022Y-93018396D02*
X159016879Y-92946968D01*
X159016879Y-92946968D02*
X159088308Y-92875539D01*
X159088308Y-92875539D02*
X159159736Y-92732682D01*
X159159736Y-92732682D02*
X159159736Y-92304110D01*
X159159736Y-92304110D02*
X159088308Y-92161253D01*
X159088308Y-92161253D02*
X159016879Y-92089825D01*
X159016879Y-92089825D02*
X158874022Y-92018396D01*
X158874022Y-92018396D02*
X158588308Y-92018396D01*
X158588308Y-92018396D02*
X158445451Y-92089825D01*
X157802594Y-93018396D02*
X157802594Y-91518396D01*
X157159737Y-93018396D02*
X157159737Y-92232682D01*
X157159737Y-92232682D02*
X157231165Y-92089825D01*
X157231165Y-92089825D02*
X157374022Y-92018396D01*
X157374022Y-92018396D02*
X157588308Y-92018396D01*
X157588308Y-92018396D02*
X157731165Y-92089825D01*
X157731165Y-92089825D02*
X157802594Y-92161253D01*
X156659736Y-91518396D02*
X156159736Y-93018396D01*
X156159736Y-93018396D02*
X155659736Y-91518396D01*
X154374022Y-93018396D02*
X155231165Y-93018396D01*
X154802594Y-93018396D02*
X154802594Y-91518396D01*
X154802594Y-91518396D02*
X154945451Y-91732682D01*
X154945451Y-91732682D02*
X155088308Y-91875539D01*
X155088308Y-91875539D02*
X155231165Y-91946968D01*
X153731166Y-92875539D02*
X153659737Y-92946968D01*
X153659737Y-92946968D02*
X153731166Y-93018396D01*
X153731166Y-93018396D02*
X153802594Y-92946968D01*
X153802594Y-92946968D02*
X153731166Y-92875539D01*
X153731166Y-92875539D02*
X153731166Y-93018396D01*
X152731165Y-91518396D02*
X152588308Y-91518396D01*
X152588308Y-91518396D02*
X152445451Y-91589825D01*
X152445451Y-91589825D02*
X152374023Y-91661253D01*
X152374023Y-91661253D02*
X152302594Y-91804110D01*
X152302594Y-91804110D02*
X152231165Y-92089825D01*
X152231165Y-92089825D02*
X152231165Y-92446968D01*
X152231165Y-92446968D02*
X152302594Y-92732682D01*
X152302594Y-92732682D02*
X152374023Y-92875539D01*
X152374023Y-92875539D02*
X152445451Y-92946968D01*
X152445451Y-92946968D02*
X152588308Y-93018396D01*
X152588308Y-93018396D02*
X152731165Y-93018396D01*
X152731165Y-93018396D02*
X152874023Y-92946968D01*
X152874023Y-92946968D02*
X152945451Y-92875539D01*
X152945451Y-92875539D02*
X153016880Y-92732682D01*
X153016880Y-92732682D02*
X153088308Y-92446968D01*
X153088308Y-92446968D02*
X153088308Y-92089825D01*
X153088308Y-92089825D02*
X153016880Y-91804110D01*
X153016880Y-91804110D02*
X152945451Y-91661253D01*
X152945451Y-91661253D02*
X152874023Y-91589825D01*
X152874023Y-91589825D02*
X152731165Y-91518396D01*
X167945451Y-95433312D02*
X168445451Y-94719026D01*
X168802594Y-95433312D02*
X168802594Y-93933312D01*
X168802594Y-93933312D02*
X168231165Y-93933312D01*
X168231165Y-93933312D02*
X168088308Y-94004741D01*
X168088308Y-94004741D02*
X168016879Y-94076169D01*
X168016879Y-94076169D02*
X167945451Y-94219026D01*
X167945451Y-94219026D02*
X167945451Y-94433312D01*
X167945451Y-94433312D02*
X168016879Y-94576169D01*
X168016879Y-94576169D02*
X168088308Y-94647598D01*
X168088308Y-94647598D02*
X168231165Y-94719026D01*
X168231165Y-94719026D02*
X168802594Y-94719026D01*
X166731165Y-95361884D02*
X166874022Y-95433312D01*
X166874022Y-95433312D02*
X167159737Y-95433312D01*
X167159737Y-95433312D02*
X167302594Y-95361884D01*
X167302594Y-95361884D02*
X167374022Y-95219026D01*
X167374022Y-95219026D02*
X167374022Y-94647598D01*
X167374022Y-94647598D02*
X167302594Y-94504741D01*
X167302594Y-94504741D02*
X167159737Y-94433312D01*
X167159737Y-94433312D02*
X166874022Y-94433312D01*
X166874022Y-94433312D02*
X166731165Y-94504741D01*
X166731165Y-94504741D02*
X166659737Y-94647598D01*
X166659737Y-94647598D02*
X166659737Y-94790455D01*
X166659737Y-94790455D02*
X167374022Y-94933312D01*
X166016880Y-94433312D02*
X166016880Y-95433312D01*
X166016880Y-94576169D02*
X165945451Y-94504741D01*
X165945451Y-94504741D02*
X165802594Y-94433312D01*
X165802594Y-94433312D02*
X165588308Y-94433312D01*
X165588308Y-94433312D02*
X165445451Y-94504741D01*
X165445451Y-94504741D02*
X165374023Y-94647598D01*
X165374023Y-94647598D02*
X165374023Y-95433312D01*
X164016880Y-95433312D02*
X164016880Y-94647598D01*
X164016880Y-94647598D02*
X164088308Y-94504741D01*
X164088308Y-94504741D02*
X164231165Y-94433312D01*
X164231165Y-94433312D02*
X164516880Y-94433312D01*
X164516880Y-94433312D02*
X164659737Y-94504741D01*
X164016880Y-95361884D02*
X164159737Y-95433312D01*
X164159737Y-95433312D02*
X164516880Y-95433312D01*
X164516880Y-95433312D02*
X164659737Y-95361884D01*
X164659737Y-95361884D02*
X164731165Y-95219026D01*
X164731165Y-95219026D02*
X164731165Y-95076169D01*
X164731165Y-95076169D02*
X164659737Y-94933312D01*
X164659737Y-94933312D02*
X164516880Y-94861884D01*
X164516880Y-94861884D02*
X164159737Y-94861884D01*
X164159737Y-94861884D02*
X164016880Y-94790455D01*
X163516879Y-94433312D02*
X162945451Y-94433312D01*
X163302594Y-93933312D02*
X163302594Y-95219026D01*
X163302594Y-95219026D02*
X163231165Y-95361884D01*
X163231165Y-95361884D02*
X163088308Y-95433312D01*
X163088308Y-95433312D02*
X162945451Y-95433312D01*
X162231165Y-95433312D02*
X162374022Y-95361884D01*
X162374022Y-95361884D02*
X162445451Y-95290455D01*
X162445451Y-95290455D02*
X162516879Y-95147598D01*
X162516879Y-95147598D02*
X162516879Y-94719026D01*
X162516879Y-94719026D02*
X162445451Y-94576169D01*
X162445451Y-94576169D02*
X162374022Y-94504741D01*
X162374022Y-94504741D02*
X162231165Y-94433312D01*
X162231165Y-94433312D02*
X162016879Y-94433312D01*
X162016879Y-94433312D02*
X161874022Y-94504741D01*
X161874022Y-94504741D02*
X161802594Y-94576169D01*
X161802594Y-94576169D02*
X161731165Y-94719026D01*
X161731165Y-94719026D02*
X161731165Y-95147598D01*
X161731165Y-95147598D02*
X161802594Y-95290455D01*
X161802594Y-95290455D02*
X161874022Y-95361884D01*
X161874022Y-95361884D02*
X162016879Y-95433312D01*
X162016879Y-95433312D02*
X162231165Y-95433312D01*
X160016879Y-95361884D02*
X159802594Y-95433312D01*
X159802594Y-95433312D02*
X159445451Y-95433312D01*
X159445451Y-95433312D02*
X159302594Y-95361884D01*
X159302594Y-95361884D02*
X159231165Y-95290455D01*
X159231165Y-95290455D02*
X159159736Y-95147598D01*
X159159736Y-95147598D02*
X159159736Y-95004741D01*
X159159736Y-95004741D02*
X159231165Y-94861884D01*
X159231165Y-94861884D02*
X159302594Y-94790455D01*
X159302594Y-94790455D02*
X159445451Y-94719026D01*
X159445451Y-94719026D02*
X159731165Y-94647598D01*
X159731165Y-94647598D02*
X159874022Y-94576169D01*
X159874022Y-94576169D02*
X159945451Y-94504741D01*
X159945451Y-94504741D02*
X160016879Y-94361884D01*
X160016879Y-94361884D02*
X160016879Y-94219026D01*
X160016879Y-94219026D02*
X159945451Y-94076169D01*
X159945451Y-94076169D02*
X159874022Y-94004741D01*
X159874022Y-94004741D02*
X159731165Y-93933312D01*
X159731165Y-93933312D02*
X159374022Y-93933312D01*
X159374022Y-93933312D02*
X159159736Y-94004741D01*
X158731165Y-94433312D02*
X158159737Y-94433312D01*
X158516880Y-93933312D02*
X158516880Y-95219026D01*
X158516880Y-95219026D02*
X158445451Y-95361884D01*
X158445451Y-95361884D02*
X158302594Y-95433312D01*
X158302594Y-95433312D02*
X158159737Y-95433312D01*
X157659737Y-95290455D02*
X157588308Y-95361884D01*
X157588308Y-95361884D02*
X157659737Y-95433312D01*
X157659737Y-95433312D02*
X157731165Y-95361884D01*
X157731165Y-95361884D02*
X157659737Y-95290455D01*
X157659737Y-95290455D02*
X157659737Y-95433312D01*
X168516879Y-96348228D02*
X168374022Y-96348228D01*
X168374022Y-96348228D02*
X168231165Y-96419657D01*
X168231165Y-96419657D02*
X168159737Y-96491085D01*
X168159737Y-96491085D02*
X168088308Y-96633942D01*
X168088308Y-96633942D02*
X168016879Y-96919657D01*
X168016879Y-96919657D02*
X168016879Y-97276800D01*
X168016879Y-97276800D02*
X168088308Y-97562514D01*
X168088308Y-97562514D02*
X168159737Y-97705371D01*
X168159737Y-97705371D02*
X168231165Y-97776800D01*
X168231165Y-97776800D02*
X168374022Y-97848228D01*
X168374022Y-97848228D02*
X168516879Y-97848228D01*
X168516879Y-97848228D02*
X168659737Y-97776800D01*
X168659737Y-97776800D02*
X168731165Y-97705371D01*
X168731165Y-97705371D02*
X168802594Y-97562514D01*
X168802594Y-97562514D02*
X168874022Y-97276800D01*
X168874022Y-97276800D02*
X168874022Y-96919657D01*
X168874022Y-96919657D02*
X168802594Y-96633942D01*
X168802594Y-96633942D02*
X168731165Y-96491085D01*
X168731165Y-96491085D02*
X168659737Y-96419657D01*
X168659737Y-96419657D02*
X168516879Y-96348228D01*
X167516880Y-96348228D02*
X166588308Y-96348228D01*
X166588308Y-96348228D02*
X167088308Y-96919657D01*
X167088308Y-96919657D02*
X166874023Y-96919657D01*
X166874023Y-96919657D02*
X166731166Y-96991085D01*
X166731166Y-96991085D02*
X166659737Y-97062514D01*
X166659737Y-97062514D02*
X166588308Y-97205371D01*
X166588308Y-97205371D02*
X166588308Y-97562514D01*
X166588308Y-97562514D02*
X166659737Y-97705371D01*
X166659737Y-97705371D02*
X166731166Y-97776800D01*
X166731166Y-97776800D02*
X166874023Y-97848228D01*
X166874023Y-97848228D02*
X167302594Y-97848228D01*
X167302594Y-97848228D02*
X167445451Y-97776800D01*
X167445451Y-97776800D02*
X167516880Y-97705371D01*
X165945452Y-97705371D02*
X165874023Y-97776800D01*
X165874023Y-97776800D02*
X165945452Y-97848228D01*
X165945452Y-97848228D02*
X166016880Y-97776800D01*
X166016880Y-97776800D02*
X165945452Y-97705371D01*
X165945452Y-97705371D02*
X165945452Y-97848228D01*
X164945451Y-96348228D02*
X164802594Y-96348228D01*
X164802594Y-96348228D02*
X164659737Y-96419657D01*
X164659737Y-96419657D02*
X164588309Y-96491085D01*
X164588309Y-96491085D02*
X164516880Y-96633942D01*
X164516880Y-96633942D02*
X164445451Y-96919657D01*
X164445451Y-96919657D02*
X164445451Y-97276800D01*
X164445451Y-97276800D02*
X164516880Y-97562514D01*
X164516880Y-97562514D02*
X164588309Y-97705371D01*
X164588309Y-97705371D02*
X164659737Y-97776800D01*
X164659737Y-97776800D02*
X164802594Y-97848228D01*
X164802594Y-97848228D02*
X164945451Y-97848228D01*
X164945451Y-97848228D02*
X165088309Y-97776800D01*
X165088309Y-97776800D02*
X165159737Y-97705371D01*
X165159737Y-97705371D02*
X165231166Y-97562514D01*
X165231166Y-97562514D02*
X165302594Y-97276800D01*
X165302594Y-97276800D02*
X165302594Y-96919657D01*
X165302594Y-96919657D02*
X165231166Y-96633942D01*
X165231166Y-96633942D02*
X165159737Y-96491085D01*
X165159737Y-96491085D02*
X165088309Y-96419657D01*
X165088309Y-96419657D02*
X164945451Y-96348228D01*
X163016880Y-97848228D02*
X163874023Y-97848228D01*
X163445452Y-97848228D02*
X163445452Y-96348228D01*
X163445452Y-96348228D02*
X163588309Y-96562514D01*
X163588309Y-96562514D02*
X163731166Y-96705371D01*
X163731166Y-96705371D02*
X163874023Y-96776800D01*
X162374024Y-97705371D02*
X162302595Y-97776800D01*
X162302595Y-97776800D02*
X162374024Y-97848228D01*
X162374024Y-97848228D02*
X162445452Y-97776800D01*
X162445452Y-97776800D02*
X162374024Y-97705371D01*
X162374024Y-97705371D02*
X162374024Y-97848228D01*
X161731166Y-96491085D02*
X161659738Y-96419657D01*
X161659738Y-96419657D02*
X161516881Y-96348228D01*
X161516881Y-96348228D02*
X161159738Y-96348228D01*
X161159738Y-96348228D02*
X161016881Y-96419657D01*
X161016881Y-96419657D02*
X160945452Y-96491085D01*
X160945452Y-96491085D02*
X160874023Y-96633942D01*
X160874023Y-96633942D02*
X160874023Y-96776800D01*
X160874023Y-96776800D02*
X160945452Y-96991085D01*
X160945452Y-96991085D02*
X161802595Y-97848228D01*
X161802595Y-97848228D02*
X160874023Y-97848228D01*
X159945452Y-96348228D02*
X159802595Y-96348228D01*
X159802595Y-96348228D02*
X159659738Y-96419657D01*
X159659738Y-96419657D02*
X159588310Y-96491085D01*
X159588310Y-96491085D02*
X159516881Y-96633942D01*
X159516881Y-96633942D02*
X159445452Y-96919657D01*
X159445452Y-96919657D02*
X159445452Y-97276800D01*
X159445452Y-97276800D02*
X159516881Y-97562514D01*
X159516881Y-97562514D02*
X159588310Y-97705371D01*
X159588310Y-97705371D02*
X159659738Y-97776800D01*
X159659738Y-97776800D02*
X159802595Y-97848228D01*
X159802595Y-97848228D02*
X159945452Y-97848228D01*
X159945452Y-97848228D02*
X160088310Y-97776800D01*
X160088310Y-97776800D02*
X160159738Y-97705371D01*
X160159738Y-97705371D02*
X160231167Y-97562514D01*
X160231167Y-97562514D02*
X160302595Y-97276800D01*
X160302595Y-97276800D02*
X160302595Y-96919657D01*
X160302595Y-96919657D02*
X160231167Y-96633942D01*
X160231167Y-96633942D02*
X160159738Y-96491085D01*
X160159738Y-96491085D02*
X160088310Y-96419657D01*
X160088310Y-96419657D02*
X159945452Y-96348228D01*
X158874024Y-96491085D02*
X158802596Y-96419657D01*
X158802596Y-96419657D02*
X158659739Y-96348228D01*
X158659739Y-96348228D02*
X158302596Y-96348228D01*
X158302596Y-96348228D02*
X158159739Y-96419657D01*
X158159739Y-96419657D02*
X158088310Y-96491085D01*
X158088310Y-96491085D02*
X158016881Y-96633942D01*
X158016881Y-96633942D02*
X158016881Y-96776800D01*
X158016881Y-96776800D02*
X158088310Y-96991085D01*
X158088310Y-96991085D02*
X158945453Y-97848228D01*
X158945453Y-97848228D02*
X158016881Y-97848228D01*
X156731168Y-96348228D02*
X157016882Y-96348228D01*
X157016882Y-96348228D02*
X157159739Y-96419657D01*
X157159739Y-96419657D02*
X157231168Y-96491085D01*
X157231168Y-96491085D02*
X157374025Y-96705371D01*
X157374025Y-96705371D02*
X157445453Y-96991085D01*
X157445453Y-96991085D02*
X157445453Y-97562514D01*
X157445453Y-97562514D02*
X157374025Y-97705371D01*
X157374025Y-97705371D02*
X157302596Y-97776800D01*
X157302596Y-97776800D02*
X157159739Y-97848228D01*
X157159739Y-97848228D02*
X156874025Y-97848228D01*
X156874025Y-97848228D02*
X156731168Y-97776800D01*
X156731168Y-97776800D02*
X156659739Y-97705371D01*
X156659739Y-97705371D02*
X156588310Y-97562514D01*
X156588310Y-97562514D02*
X156588310Y-97205371D01*
X156588310Y-97205371D02*
X156659739Y-97062514D01*
X156659739Y-97062514D02*
X156731168Y-96991085D01*
X156731168Y-96991085D02*
X156874025Y-96919657D01*
X156874025Y-96919657D02*
X157159739Y-96919657D01*
X157159739Y-96919657D02*
X157302596Y-96991085D01*
X157302596Y-96991085D02*
X157374025Y-97062514D01*
X157374025Y-97062514D02*
X157445453Y-97205371D01*
M02*
